<?xml version="1.0" encoding="UTF-8"?>
<!-- Created with Inkscape (http://www.inkscape.org/) -->
<svg width="106.94mm" height="107.62mm" version="1.1" viewBox="0 0 106.94 107.62" xmlns="http://www.w3.org/2000/svg" xmlns:cc="http://creativecommons.org/ns#" xmlns:dc="http://purl.org/dc/elements/1.1/" xmlns:rdf="http://www.w3.org/1999/02/22-rdf-syntax-ns#">
 <metadata>
  <rdf:RDF>
   <cc:Work rdf:about="">
    <dc:format>image/svg+xml</dc:format>
    <dc:type rdf:resource="http://purl.org/dc/dcmitype/StillImage"/>
    <dc:title/>
   </cc:Work>
  </rdf:RDF>
 </metadata>
 <g transform="translate(-50.852 -99.561)">
  <g transform="matrix(.26458 0 0 .26458 -191.38 -29.405)" fill="#15254f">
   <path d="m1145.5 676.5c-5.2-11.6-18-17.1-29.8-12.2-0.1 0-0.3 0-0.5 0.1-12 6.5-17 20.3-12 33 4.6 11.9 19.8 15.8 30.8 10.7 11.2-5.2 16.5-20.6 11.5-31.6zm-12.4 30c-5 2.8-11.2 2-16.5 0.7-6.7-1.6-10.6-6.9-12.6-13.2-3.5-10.9 2.1-22.3 11.7-27.8h0.1c11.6-5.3 24.1 0.7 28.5 12.2 4.1 10.6-1.6 22.8-11.2 28.1z"/>
   <path d="m1124.2 681.9c-0.1 0-0.2-0.1-0.3 0h-0.2c-2.1 0.1-3.9 1.6-4.3 3.7-0.5 2.2 1.2 4.2 3.1 5 2.4 0.9 4.1-1 4.6-3.1 0.5-2.5-0.7-4.9-2.9-5.6zm-1.8 6.6c-2.4-1.3-1.3-4.7 1.2-4.9 2.9 1 1.8 6.5-1.2 4.9z"/>
   <path d="m1148.6 666.9c-4.7-6.4-12.1-9.9-20-10.2-5.2-0.2-10.4-0.1-15.2 1.7-4.4 1.6-9.4 4.6-12.3 8.4-1.2 1.6-2.2 3.4-3.1 5.2-1.7 3.6-2.7 7.6-3.1 11.6-0.7 8.1 1.6 16.5 6.7 22.9 4.7 5.9 12.7 10.6 20.2 11 8 0.3 16.4-3.5 22.5-8.2 12.9-10 13.5-29.8 4.3-42.4zm-4.5 40.2c-4.9 4.5-11.4 7-17.9 8.2-8.9 1.7-16.1-3.2-22.3-9-6-5.7-8.1-14.4-7.4-22.4 0.4-4.1 1.5-8.2 3.4-11.9 0.9-1.8 2.1-3.5 3.4-5 5-5.7 15.4-8.4 22.6-8.6 7.8-0.2 15.2 2.7 20.4 8.5 10.1 11.3 8.6 30.3-2.2 40.2z"/>
   <path d="m1114.2 658.7c-19-14.7-38.5-28.8-58.5-42.2-0.6-0.4-1.2 0.1-1.3 0.7-0.2 0.2-0.2 0.5 0 0.9 13.7 19.5 27.7 38.9 41.8 58.2 0.7 0.9 2.3 0 1.6-0.9-12.6-17.2-25-34.6-37.3-52 7.6 7.9 15.2 15.7 22.8 23.6 0 0.1 0.1 0.2 0.1 0.2 0.1 0.2 0.2 0.3 0.4 0.3 6.1 6.3 12.3 12.7 18.4 19 0.4 0.4 0.9-0.1 0.8-0.5 0.3 0.3 0.9-0.2 0.7-0.6-2.8-6.2-5.6-12.5-8.4-18.7 1.1 0.8 2.3 1.7 3.4 2.5 2.1 4.8 4 9.8 6.6 14.4 0.3 0.5 1.1 0.1 0.8-0.5-2.3-4.1-4.1-8.5-5.9-12.8 1 0.8 2.1 1.5 3.1 2.3 0.6 1.7 1.2 3.3 1.8 5 0.5 1.4 1 3.5 2 4.6 0.1 0.2 0.4 0.2 0.6 0.1h0.1c0.1-0.1 0.2-0.2 0.2-0.4v-0.1c0-0.4-0.5-0.5-0.8-0.3 0.1-0.2 0.1-0.3 0.2-0.5-0.2-0.5-0.4-0.9-0.6-1.4-0.4-0.9-0.7-1.9-1.1-2.9s-0.8-2-1.1-3.1c1 0.7 2 1.5 3 2.3 0.7 2 1.5 3.9 2.4 5.7 0.3 0.5 1 0.1 0.8-0.5-0.7-1.4-1.3-2.8-1.8-4.2 1.4 1 2.7 2.1 4.1 3.1 0.7 0.7 2-0.6 1.1-1.3zm-54.3-37.1c0.8 0.6 1.7 1.1 2.5 1.7 0.5 0.8 0.9 1.5 1.4 2.3-1.3-1.3-2.6-2.7-3.9-4zm6.4 6.5c-0.7-1.2-1.3-2.4-2-3.6 0.5 0.3 0.9 0.6 1.3 0.9 1.4 1.8 2.6 3.8 3.7 5.8zm5.5 5.7c0-0.1 0-0.1-0.1-0.2-1.3-2.2-2.5-4.5-4-6.6 0.8 0.5 1.6 1.1 2.4 1.7 0.3 0.8 0.9 1.8 1.1 2.3 0.6 1.5 1.3 2.9 2 4.3zm3.4 3.6c-0.8-1.6-1.6-3.2-2.3-4.8-0.4-0.9-0.8-1.8-1.1-2.7 0 0 0-0.1-0.1-0.2 0.6 0.4 1.1 0.8 1.7 1.2 1.3 2.9 2.6 5.8 4 8.7zm3.9 4v-0.4c-1.5-3-2.8-6-4.2-9 0.6 0.4 1.2 0.9 1.8 1.3 2.1 3.7 3.9 7.5 5.6 11.4zm4.9 5.1c-1.7-4.1-3.6-8.1-5.7-12 0.9 0.6 1.7 1.2 2.6 1.9 1.6 4.4 3.5 8.6 5.7 12.8zm4.6 4.7v-0.2c-2.4-4.4-4.4-9-6.3-13.6 0.6 0.4 1.2 0.9 1.8 1.3 2.6 5.2 5.1 10.4 7.5 15.7zm4.9 5v-0.2c-2.5-5.5-5.1-10.9-7.8-16.3 1 0.7 2 1.5 3.1 2.2l7.4 17zm9.3 9.7-5-5.2v-0.2c-2.5-5.8-5.1-11.7-7.6-17.5l3.6 2.7c3 6.7 6 13.4 9 20.2z"/>
   <path d="m1134.9 714.4c19 14.7 38.5 28.8 58.5 42.2 0.6 0.4 1.2-0.1 1.3-0.7 0.2-0.2 0.2-0.5 0-0.9-13.7-19.5-27.7-38.9-41.8-58.2-0.7-0.9-2.3 0-1.6 0.9 12.6 17.2 25 34.6 37.3 52-7.6-7.9-15.2-15.7-22.8-23.6 0-0.1-0.1-0.2-0.1-0.2-0.1-0.2-0.2-0.3-0.4-0.3-6.1-6.3-12.3-12.7-18.4-19-0.4-0.4-0.9 0.1-0.8 0.5-0.3-0.3-0.9 0.2-0.7 0.6 2.8 6.2 5.6 12.5 8.4 18.7-1.1-0.8-2.3-1.7-3.4-2.5-2.1-4.8-4-9.8-6.6-14.4-0.3-0.5-1.1-0.1-0.8 0.5 2.3 4.1 4.1 8.5 5.9 12.8-1-0.8-2.1-1.5-3.1-2.3-0.6-1.7-1.2-3.3-1.8-5-0.5-1.4-1-3.5-2-4.6-0.1-0.2-0.4-0.2-0.6-0.1h-0.1c-0.1 0.1-0.2 0.2-0.2 0.4v0.1c0 0.4 0.5 0.5 0.8 0.3-0.1 0.2-0.1 0.3-0.2 0.5 0.2 0.5 0.4 0.9 0.6 1.4 0.4 0.9 0.7 1.9 1.1 2.9s0.8 2 1.1 3.1c-1-0.7-2-1.5-3-2.3-0.7-2-1.5-3.9-2.4-5.7-0.3-0.5-1-0.1-0.8 0.5 0.7 1.4 1.3 2.8 1.8 4.2-1.4-1-2.7-2.1-4.1-3.1-0.7-0.7-2 0.6-1.1 1.3zm54.2 37.1c-0.8-0.6-1.7-1.1-2.5-1.7-0.5-0.8-0.9-1.5-1.4-2.3 1.4 1.4 2.7 2.7 3.9 4zm-6.3-6.5c0.7 1.2 1.3 2.4 2 3.6-0.5-0.3-0.9-0.6-1.3-0.9-1.4-1.8-2.6-3.8-3.7-5.8zm-5.5-5.7c0 0.1 0 0.1 0.1 0.2 1.3 2.2 2.5 4.5 4 6.6-0.8-0.5-1.6-1.1-2.4-1.7-0.3-0.8-0.9-1.8-1.1-2.3-0.6-1.5-1.3-2.9-2-4.3zm-3.5-3.6c0.1 0.1 0.1 0.1 0 0 0.8 1.6 1.6 3.2 2.3 4.8 0.4 0.9 0.8 1.8 1.1 2.7 0 0 0 0.1 0.1 0.2-0.6-0.4-1.1-0.8-1.7-1.2-1.3-2.9-2.6-5.8-4-8.7zm-3.8-3.9v0.4c1.5 3 2.8 6 4.2 9-0.6-0.4-1.2-0.9-1.8-1.3-2.1-3.7-3.9-7.5-5.6-11.4zm-4.9-5.1c1.7 4.1 3.6 8.1 5.7 12-0.9-0.6-1.7-1.2-2.6-1.9-1.6-4.4-3.5-8.6-5.7-12.8zm-4.6-4.8v0.2c2.4 4.4 4.4 9 6.3 13.6-0.6-0.4-1.2-0.9-1.8-1.3-2.6-5.2-5.1-10.4-7.5-15.7zm-4.9-5v0.2c2.5 5.5 5.1 10.9 7.8 16.3-1-0.7-2-1.5-3.1-2.2l-7.4-17zm-9.4-9.6 5 5.2v0.2c2.5 5.8 5.1 11.7 7.6 17.5l-3.6-2.7c-2.9-6.8-5.9-13.5-9-20.2z"/>
   <path d="m1193.9 616.4c-0.2-0.2-0.5-0.2-0.9 0-8.2 5.7-16.3 11.5-24.4 17.3 0-0.1 0-0.2-0.1-0.3-6.7-5.5-14.3-9.5-22.6-11.9-0.6-0.2-0.8 0.7-0.2 0.9 8.1 2.4 15.7 6.3 22.2 11.7 0.1 0 0.1 0.1 0.2 0.1-11.1 7.9-22.2 15.9-33.2 24-0.2 0.1-0.3 0.3-0.3 0.4 0.7 0.1 1.4 0.3 2.1 0.5 16.9-12.4 34-24.6 51.1-36.7-7.9 7.6-15.7 15.2-23.6 22.8-0.1 0-0.2 0.1-0.2 0.1-0.2 0.1-0.3 0.2-0.3 0.4-6.3 6.1-12.7 12.3-19 18.4 0 0 0 0.1-0.1 0.1 0.4 0.4 0.8 0.9 1.2 1.3 6.2-2.8 12.4-5.6 18.7-8.3-0.8 1.1-1.7 2.3-2.5 3.4-4.8 2.1-9.8 4-14.4 6.6-0.1 0.1-0.2 0.2-0.2 0.3 0.2 0.2 0.3 0.4 0.5 0.6 0.1 0 0.1 0 0.2-0.1 4.1-2.3 8.5-4.1 12.8-5.9-0.8 1-1.5 2.1-2.3 3.1-1.7 0.6-3.3 1.2-5 1.8-1.4 0.5-3.5 1-4.6 2-0.2 0.1-0.2 0.4-0.1 0.6v0.1c0.1 0.1 0.2 0.2 0.4 0.2h0.1c0.4 0 0.5-0.5 0.3-0.8 0.2 0.1 0.3 0.1 0.5 0.2 0.5-0.2 0.9-0.4 1.4-0.6 0.9-0.4 1.9-0.7 2.9-1.1s2-0.8 3.1-1.1c-0.7 1-1.5 2-2.3 3-1.8 0.6-3.5 1.3-5.2 2.1 0.2 0.3 0.3 0.5 0.5 0.8 1.2-0.6 2.4-1.1 3.7-1.6-0.9 1.2-1.8 2.3-2.7 3.5l0.9 1.8c14.7-19 28.8-38.5 42.1-58.4 0.4-0.6-0.1-1.2-0.7-1.3zm-28.4 39.4c-6.7 3-13.5 6-20.2 9l5.2-5h0.2c5.8-2.5 11.7-5.1 17.5-7.6-1 1.2-1.9 2.4-2.7 3.6zm3.7-5-17 7.4 2.7-2.6h0.2c5.5-2.5 10.9-5.1 16.3-7.8-0.8 0.9-1.5 1.9-2.2 3zm3.3-4.7c-5.2 2.6-10.4 5.1-15.7 7.5l3.1-3h0.2c4.4-2.4 9-4.4 13.6-6.3-0.3 0.6-0.8 1.2-1.2 1.8zm2.3-3.1c-4.4 1.6-8.6 3.5-12.8 5.7l2.7-2.6c4.1-1.7 8.1-3.6 12-5.7-0.7 0.8-1.3 1.7-1.9 2.6zm3-4.3c-3.7 2.1-7.5 3.9-11.4 5.6l3.3-3.2h0.4c3-1.5 6-2.8 9-4.2-0.4 0.6-0.8 1.2-1.3 1.8zm2.3-3.3c-2.9 1.3-5.8 2.6-8.7 4l2.2-2.2h0.1c1.6-0.8 3.1-1.6 4.7-2.3 0.9-0.4 1.8-0.8 2.7-1.1 0 0 0.1 0 0.2-0.1-0.3 0.6-0.8 1.1-1.2 1.7zm2.3-3.2c-0.8 0.3-1.8 0.9-2.3 1.1-1.5 0.6-2.9 1.3-4.3 2l1.5-1.4c0.1 0 0.1 0 0.2-0.1 2.2-1.3 4.5-2.5 6.6-4-0.5 0.8-1.1 1.6-1.7 2.4zm3.2-4.6c-1.8 1.4-3.8 2.6-5.8 3.7l3.1-3c1.2-0.6 2.4-1.3 3.6-2-0.3 0.4-0.6 0.9-0.9 1.3zm2.2-3.1c-0.8 0.5-1.5 0.9-2.3 1.4 1.3-1.3 2.7-2.6 4-3.9-0.6 0.8-1.1 1.6-1.7 2.5z"/>
   <path d="m1096.7 696.9c-14.7 19-28.8 38.5-42.2 58.5-0.4 0.6 0.1 1.2 0.7 1.3 0.2 0.2 0.5 0.2 0.9 0 19.5-13.7 38.9-27.7 58.2-41.8 0.9-0.7 0-2.3-0.9-1.6-17.2 12.6-34.6 25-52 37.3 7.9-7.6 15.7-15.2 23.6-22.8 0.1 0 0.2-0.1 0.2-0.1 0.2-0.1 0.3-0.2 0.3-0.4 6.3-6.1 12.7-12.3 19-18.4 0.4-0.4-0.1-0.9-0.5-0.8 0.3-0.3-0.2-0.9-0.6-0.7-6.2 2.8-12.5 5.6-18.7 8.4 0.8-1.1 1.7-2.3 2.5-3.4 4.8-2.1 9.8-4 14.4-6.6 0.5-0.3 0.1-1.1-0.5-0.8-4.1 2.3-8.5 4.1-12.8 5.9 0.8-1 1.5-2.1 2.3-3.1 1.7-0.6 3.3-1.2 5-1.8 1.4-0.5 3.5-1 4.6-2 0.2-0.1 0.2-0.4 0.1-0.6v-0.1c-0.1-0.1-0.2-0.2-0.4-0.2h-0.1c-0.4 0-0.5 0.5-0.3 0.8-0.2-0.1-0.3-0.1-0.5-0.2-0.5 0.2-0.9 0.4-1.4 0.6-0.9 0.4-1.9 0.7-2.9 1.1s-2 0.8-3.1 1.1c0.7-1 1.5-2 2.3-3 2-0.7 3.9-1.5 5.7-2.4 0.5-0.3 0.1-1-0.5-0.8-1.4 0.7-2.8 1.3-4.2 1.8 1-1.4 2.1-2.7 3.1-4.1 0.7-0.7-0.6-2-1.3-1.1zm-37.1 54.3c0.6-0.8 1.1-1.7 1.7-2.5 0.8-0.5 1.5-0.9 2.3-1.4-1.3 1.3-2.7 2.6-4 3.9zm6.5-6.4c-1.2 0.7-2.4 1.3-3.6 2 0.3-0.5 0.6-0.9 0.9-1.3 1.8-1.4 3.8-2.6 5.8-3.7zm5.7-5.5c-0.1 0-0.1 0-0.2 0.1-2.2 1.3-4.5 2.5-6.6 4 0.5-0.8 1.1-1.6 1.7-2.4 0.8-0.3 1.8-0.9 2.3-1.1 1.5-0.6 2.9-1.3 4.3-2zm3.6-3.4s-0.1 0 0 0c-1.6 0.8-3.2 1.6-4.8 2.3-0.9 0.4-1.8 0.8-2.7 1.1 0 0-0.1 0-0.2 0.1 0.4-0.6 0.8-1.1 1.2-1.7 2.9-1.3 5.8-2.6 8.7-4zm3.9-3.9h-0.4c-3 1.5-6 2.8-9 4.2 0.4-0.6 0.9-1.2 1.3-1.8 3.7-2.1 7.5-3.9 11.4-5.6zm5.1-4.9c-4.1 1.7-8.1 3.6-12 5.7 0.6-0.9 1.2-1.7 1.9-2.6 4.4-1.6 8.6-3.5 12.8-5.7zm4.8-4.6h-0.2c-4.4 2.4-9 4.4-13.6 6.3 0.4-0.6 0.9-1.2 1.3-1.8 5.2-2.6 10.4-5.1 15.7-7.5zm5-4.9h-0.2c-5.5 2.5-10.9 5.1-16.3 7.8 0.7-1 1.5-2 2.2-3.1l17-7.4zm9.7-9.3-5.2 5h-0.2c-5.8 2.5-11.7 5.1-17.5 7.6 0.9-1.2 1.8-2.4 2.7-3.6 6.7-3 13.4-6 20.2-9z"/>
   <path d="m1128.7 535.2c0-0.1 0-0.2-0.1-0.4-0.2-1.3-0.5-2.5-0.7-3.8v-0.1c-1.1-5.7-2.1-11.4-3.2-17.1-0.1-0.4-0.3-0.6-0.6-0.6-0.5-0.4-1.3-0.4-1.4 0.4-6.8 45.3-14.9 90.5-24.1 135.4-0.2 1.1 1.5 1.6 1.8 0.5 8.9-43.1 16.7-86.5 23.3-130.1 0 3.6 0 7.2 0.1 10.8-0.2 0.2-0.3 0.4-0.1 0.7l0.1 0.1c0 8.9 0.1 17.8 0.1 26.8-0.3 0.1-0.5 0.6-0.1 0.8l0.1 0.1v8.9c-0.1 0.1-0.1 0.3 0 0.4v4.7c-0.2 0.2-0.2 0.5 0 0.7v3.4c-0.3 0.2-0.4 0.6 0 0.8 0.1 26.7 0.3 53.4 0.4 80.1 0 0.6 0.9 0.6 0.9 0-0.1-26.5-0.3-53.1-0.4-79.6 3.7 2.2 7.5 4.4 11.1 6.7 3.9 21.5 7.7 43.1 11.4 64.7 0.2 1.2 2 0.7 1.8-0.5-6.5-38-13.4-75.9-20.4-113.8zm6.4 45.2c-3.4-2.5-6.9-5-10.3-7.4v-4.1c3.1 2.8 6.3 5.4 9.7 7.8 0.1 1.2 0.4 2.4 0.6 3.7zm-0.9-5c-3.3-2.4-6.5-5-9.4-7.7v-4.3c2.9 2 5.7 4.2 8.4 6.4 0.3 1.8 0.6 3.7 1 5.6zm-1.8-10.1c0.2 1 0.4 2 0.5 3-2.6-2.2-5.4-4.2-8.2-6.1v-3c2.7 1.8 5.1 4.1 7.7 6.1-0.1 0-0.1 0 0 0zm-0.8-4c0.2 0.9 0.3 1.8 0.5 2.6-2.4-2-4.8-4.2-7.4-5.8v-3.1c2.3 2 4.6 4 6.8 6.2 0 0.1 0.1 0.1 0.1 0.1zm-0.2-1.4c-2.2-2.1-4.4-4.1-6.7-6v-3.8c2 1.8 3.9 3.6 5.9 5.4 0.2 1.4 0.5 2.9 0.8 4.4zm-1.1-6c-1.9-1.7-3.7-3.4-5.6-5.1v-3.5c1.5 1.8 3.2 3.4 5 5 0.1 1.2 0.3 2.4 0.6 3.6zm-1.7-8.9c0.2 1.3 0.5 2.6 0.7 3.9-1.6-1.5-3.2-3.1-4.6-4.8 0 0-0.1 0-0.1-0.1v-3.7c1.4 1.5 2.8 3.1 4 4.7zm-0.3-1.8c-1.2-1.5-2.4-2.9-3.7-4.2v-3.7c1 1 1.9 2 2.8 3.1 0.3 1.5 0.6 3.1 0.9 4.8zm-1.3-6.7c-0.8-0.8-1.5-1.7-2.3-2.5l-0.1-0.1v-2.1c0.7 0.7 1.4 1.4 2 2.1 0.1 1 0.3 1.8 0.4 2.6zm-0.7-4.1c-0.6-0.6-1.2-1.2-1.7-1.8v-2.1c0.4 0.5 0.9 1 1.3 1.5 0.1 0.7 0.2 1.6 0.4 2.4zm-0.8-4.2c-0.1-0.1-0.2-0.3-0.4-0.4-0.2-0.2-0.4-0.2-0.6 0v-4.8c0.3 1.7 0.7 3.4 1 5.2zm-0.7 48.9v-3.1c3.5 2.5 7 5.1 10.6 7.6 0.1 0.7 0.2 1.3 0.4 2-3.7-2.2-7.3-4.4-11-6.5z"/>
   <path d="m1126.9 582.9c0-0.6-0.9-0.6-0.9 0-0.2 24.8 0 49.6 0.8 74.3 0 0.6 0.9 0.6 0.9 0-0.7-24.7-1-49.5-0.8-74.3z"/>
   <path d="m1128.6 601.8v55.5c0 0.6 0.9 0.6 0.9 0v-55.5c0-0.6-0.9-0.6-0.9 0z"/>
   <path d="m1131.5 610c0-0.6-0.9-0.6-0.9 0 1.1 16.1 1.3 32.3 0.8 48.4 0 0.6 0.9 0.6 0.9 0 0.6-16.2 0.3-32.3-0.8-48.4z"/>
   <path d="m1134.5 623.6c0-0.6-0.9-0.6-0.9 0 0.2 11.7 0.5 23.5 0.7 35.2 0 0.6 0.9 0.6 0.9 0-0.2-11.7-0.4-23.5-0.7-35.2z"/>
   <path d="m1137.1 631.3c0-0.6-0.9-0.6-0.9 0 0.4 9.1 0.4 18.2-0.1 27.3 0 0.6 0.9 0.6 0.9 0 0.5-9.1 0.5-18.2 0.1-27.3z"/>
   <path d="m1139.9 636.5c0-0.6-0.9-0.6-0.9 0 0.2 6.4 0.4 12.9 0.6 19.3 0 0.6 0.9 0.6 0.9 0-0.2-6.4-0.4-12.8-0.6-19.3z"/>
   <path d="m1142.2 641.3c0-0.6-0.9-0.6-0.9 0 0 4.2 0.2 8.3 0.5 12.5 0.1 0.6 1 0.6 0.9 0-0.3-4.2-0.5-8.3-0.5-12.5z"/>
   <path d="m1145.1 645.2c0-0.6-1-0.6-0.9 0 0.2 2.4 0.3 4.8 0.5 7.3 0 0.6 1 0.6 0.9 0-0.1-2.5-0.3-4.9-0.5-7.3z"/>
   <path d="m1119 840c0 0.1 0 0.2 0.1 0.4 0.2 1.3 0.5 2.5 0.7 3.8v0.1c1.1 5.7 2.1 11.4 3.2 17.1 0.1 0.4 0.3 0.6 0.6 0.6 0.5 0.4 1.3 0.4 1.4-0.4 6.8-45.3 15.8-92.3 25-137.2 0.2-1.1-1.5-1.6-1.8-0.5-8.9 43.1-17.6 88.3-24.2 131.9 0-3.6 0-7.2-0.1-10.8 0.2-0.2 0.3-0.4 0.1-0.7l-0.1-0.1c0-8.9-0.1-17.8-0.1-26.8 0.3-0.1 0.5-0.6 0.1-0.8l-0.1-0.1v-8.9c0.1-0.1 0.1-0.3 0-0.4v-4.7c0.2-0.2 0.2-0.5 0-0.7v-3.4c0.3-0.2 0.4-0.6 0-0.8-0.1-26.7-0.3-53.4-0.4-80.1 0-0.6-0.9-0.6-0.9 0 0.1 26.5 0.3 53.1 0.4 79.6-3.7-2.2-7.5-4.4-11.1-6.7-3.9-21.5-7.7-43.1-11.4-64.7-0.2-1.2-2-0.7-1.8 0.5 6.4 38 13.3 75.9 20.4 113.8zm-6.5-45.2c3.4 2.5 6.9 5 10.3 7.4v4.1c-3.1-2.8-6.3-5.4-9.7-7.8-0.1-1.2-0.4-2.4-0.6-3.7zm0.9 5.1c3.3 2.4 6.5 5 9.4 7.7v4.3c-2.9-2-5.7-4.2-8.4-6.4-0.3-1.9-0.6-3.8-1-5.6zm1.9 10c-0.2-1-0.4-2-0.5-3 2.6 2.2 5.4 4.2 8.2 6.1v3c-2.8-1.7-5.2-4-7.7-6.1zm0.7 4c-0.2-0.9-0.3-1.8-0.5-2.6 2.4 2 4.8 4.2 7.4 5.8v3.1c-2.3-2-4.6-4-6.8-6.2 0 0 0-0.1-0.1-0.1zm0.2 1.4c2.2 2.1 4.4 4.1 6.7 6v3.8c-2-1.8-3.9-3.6-5.9-5.4-0.2-1.4-0.5-2.9-0.8-4.4zm1.1 6c1.9 1.7 3.7 3.4 5.6 5.1v3.5c-1.5-1.8-3.2-3.4-5-5-0.1-1.2-0.3-2.4-0.6-3.6zm1.7 8.9c-0.2-1.3-0.5-2.6-0.7-3.9 1.6 1.5 3.2 3.1 4.6 4.8 0 0 0.1 0 0.1 0.1v3.7c-1.4-1.5-2.8-3.1-4-4.7zm0.3 1.9c1.2 1.5 2.4 2.9 3.7 4.2v3.7c-1-1-1.9-2-2.8-3.1l-0.9-4.8zm1.3 6.6c0.8 0.8 1.5 1.7 2.3 2.5l0.1 0.1v2.1c-0.7-0.7-1.4-1.4-2-2.1-0.1-0.9-0.3-1.8-0.4-2.6zm0.7 4.1c0.6 0.6 1.2 1.2 1.7 1.8v2.1c-0.4-0.5-0.9-1-1.3-1.5-0.1-0.7-0.2-1.6-0.4-2.4zm0.8 4.3c0.1 0.1 0.2 0.3 0.4 0.4 0.2 0.2 0.4 0.2 0.6 0v4.8c-0.3-1.8-0.7-3.5-1-5.2zm0.7-49v3.1c-3.5-2.5-7-5.1-10.6-7.6-0.1-0.7-0.2-1.3-0.4-2 3.7 2.2 7.4 4.4 11 6.5z"/>
   <path d="m1120.7 792.3c0 0.6 0.9 0.6 0.9 0 0.2-24.8 0-51.4-0.8-76.1 0-0.6-0.9-0.6-0.9 0 0.7 24.7 1 51.3 0.8 76.1z"/>
   <path d="m1119 773.5v-57.3c0-0.6-0.9-0.6-0.9 0v57.3c0 0.5 0.9 0.5 0.9 0z"/>
   <path d="m1116.1 765.3c0 0.6 0.9 0.6 0.9 0-1.1-16.1-1.3-32.3-0.8-48.4 0-0.6-0.9-1.5-0.9-0.9-0.6 16.1-0.3 33.2 0.8 49.3z"/>
   <path d="m1113.1 751.6c0 0.6 0.9 0.6 0.9 0-0.2-11.7-0.5-24.4-0.7-36.1 0-0.6-0.9-0.6-0.9 0 0.2 11.7 0.4 24.4 0.7 36.1z"/>
   <path d="m1110.5 743.9c0 0.6 0.9 0.6 0.9 0-0.4-9.1-0.4-18.2 0.1-27.3 0-0.6-0.9-0.6-0.9 0-0.5 9.1-0.5 18.2-0.1 27.3z"/>
   <path d="m1107.7 738.7c0 0.6 0.9 0.6 0.9 0-0.2-6.4-0.4-12.9-0.6-19.3 0-0.6-0.9-0.6-0.9 0 0.2 6.4 0.4 12.9 0.6 19.3z"/>
   <path d="m1105.4 733.9c0 0.6 0.9 0.6 0.9 0 0-4.2-0.2-8.3-0.5-12.5-0.1-0.6-1-0.6-0.9 0 0.3 4.2 0.5 8.3 0.5 12.5z"/>
   <path d="m1102.5 730c0 0.6 1 0.6 0.9 0-0.2-2.4-0.3-4.8-0.5-7.3 0-0.6-1-0.6-0.9 0 0.2 2.5 0.3 4.9 0.5 7.3z"/>
   <path d="m1276.7 692c0.1 0 0.2 0 0.4-0.1 1.3-0.2 2.5-0.5 3.8-0.7h0.1c5.7-1.1 11.4-2.1 17.1-3.2 0.4-0.1 0.6-0.3 0.6-0.6 0.4-0.5 0.4-1.3-0.4-1.4-45.3-6.8-90.5-14.9-135.4-24.1-1.1-0.2-1.6 1.5-0.5 1.8 43.1 8.9 86.5 16.7 130.1 23.3-3.6 0-7.2 0-10.8 0.1-0.2-0.2-0.4-0.3-0.7-0.1l-0.1 0.1c-8.9 0-17.8 0.1-26.8 0.1-0.1-0.3-0.6-0.5-0.8-0.1l-0.1 0.1h-8.9c-0.1-0.1-0.3-0.1-0.4 0h-4.7c-0.2-0.2-0.5-0.2-0.7 0h-3.4c-0.2-0.3-0.6-0.4-0.8 0-26.7 0.1-53.4 0.3-80.1 0.4-0.6 0-0.6 0.9 0 0.9 26.5-0.1 53.1-0.3 79.6-0.4-2.2 3.7-4.4 7.5-6.7 11.1-21.5 3.9-43.1 7.7-64.7 11.4-1.2 0.2-0.7 2 0.5 1.8 37.9-6.5 75.9-13.3 113.8-20.4zm-45.2 6.4c2.5-3.4 5-6.9 7.4-10.3h4.1c-2.8 3.1-5.4 6.3-7.8 9.7-1.2 0.2-2.5 0.4-3.7 0.6zm5-0.9c2.4-3.3 5-6.5 7.7-9.4h4.3c-2 2.9-4.2 5.7-6.4 8.4-1.8 0.4-3.7 0.7-5.6 1zm10-1.8c-1 0.2-2 0.4-3 0.5 2.2-2.6 4.2-5.4 6.1-8.2h3c-1.7 2.8-4 5.2-6.1 7.7zm4.1-0.7c-0.9 0.2-1.8 0.3-2.6 0.5 2-2.4 4.2-4.8 5.8-7.4h3.1c-2 2.3-4 4.6-6.2 6.8-0.1-0.1-0.1 0-0.1 0.1zm1.4-0.3c2.1-2.2 4.1-4.4 6-6.7h3.8c-1.8 2-3.6 3.9-5.4 5.9-1.4 0.3-2.9 0.5-4.4 0.8zm5.9-1.1c1.7-1.9 3.4-3.7 5.1-5.6h3.5c-1.8 1.5-3.4 3.2-5 5-1.2 0.2-2.4 0.4-3.6 0.6zm8.9-1.6c-1.3 0.2-2.6 0.5-3.9 0.7 1.5-1.6 3.1-3.2 4.8-4.6 0 0 0-0.1 0.1-0.1h3.7c-1.4 1.4-3 2.7-4.7 4zm1.9-0.4c1.5-1.2 2.9-2.4 4.2-3.7h3.7c-1 1-2 1.9-3.1 2.8l-4.8 0.9zm6.6-1.2c0.8-0.8 1.7-1.5 2.5-2.3l0.1-0.1h2.1c-0.7 0.7-1.4 1.4-2.1 2-0.9 0.1-1.7 0.2-2.6 0.4zm4.2-0.8c0.6-0.6 1.2-1.2 1.8-1.7h2.1c-0.5 0.4-1 0.9-1.5 1.3-0.8 0.1-1.6 0.3-2.4 0.4zm4.2-0.8c0.1-0.1 0.3-0.2 0.4-0.4 0.2-0.2 0.2-0.4 0-0.6h4.8c-1.7 0.4-3.5 0.7-5.2 1zm-48.9-0.7h3.1c-2.5 3.5-5.1 7-7.6 10.6-0.7 0.1-1.3 0.2-2 0.4 2.2-3.7 4.3-7.3 6.5-11z"/>
   <path d="m1229 690.3c0.6 0 0.6-0.9 0-0.9-24.8-0.2-49.6 0-74.3 0.8-0.6 0-0.6 0.9 0 0.9 24.7-0.8 49.5-1 74.3-0.8z"/>
   <path d="m1210.1 692h-55.5c-0.6 0-0.6 0.9 0 0.9h55.5c0.6 0 0.6-0.9 0-0.9z"/>
   <path d="m1201.9 694.9c0.6 0 0.6-0.9 0-0.9-16.1 1.1-32.3 1.3-48.4 0.8-0.6 0-0.6 0.9 0 0.9 16.1 0.5 32.3 0.3 48.4-0.8z"/>
   <path d="m1188.3 697.9c0.6 0 0.6-0.9 0-0.9-11.7 0.2-23.5 0.5-35.2 0.7-0.6 0-0.6 0.9 0 0.9 11.7-0.2 23.4-0.5 35.2-0.7z"/>
   <path d="m1180.6 700.5c0.6 0 0.6-0.9 0-0.9-9.1 0.4-18.2 0.4-27.3-0.1-0.6 0-0.6 0.9 0 0.9 9.1 0.4 18.2 0.5 27.3 0.1z"/>
   <path d="m1175.3 703.2c0.6 0 0.6-0.9 0-0.9-6.4 0.2-12.9 0.4-19.3 0.6-0.6 0-0.6 0.9 0 0.9 6.5-0.2 12.9-0.4 19.3-0.6z"/>
   <path d="m1170.6 705.6c0.6 0 0.6-0.9 0-0.9-4.2 0-8.3 0.2-12.5 0.5-0.6 0.1-0.6 1 0 0.9 4.1-0.4 8.3-0.5 12.5-0.5z"/>
   <path d="m1166.7 708.5c0.6 0 0.6-1 0-0.9-2.4 0.2-4.8 0.3-7.3 0.5-0.6 0-0.6 1 0 0.9 2.4-0.2 4.9-0.4 7.3-0.5z"/>
   <path d="m1094.4 685.8c-26.5 0.1-53.1 0.3-79.6 0.4 2.2-3.7 4.4-7.5 6.7-11.1 21.5-3.9 43.1-7.7 64.7-11.4 1.2-0.2 0.7-2-0.5-1.8-38 6.5-76 13.3-113.9 20.4-0.1 0-0.2 0-0.4 0.1-1.3 0.2-2.5 0.5-3.8 0.7h-0.1c-5.7 1.1-11.4 2.1-17.1 3.2-0.4 0.1-0.6 0.3-0.6 0.6-0.4 0.5-0.4 1.3 0.4 1.4 44.8 6.7 91.3 15.6 135.7 24.7 0.4-0.5 0.8-1.1 1.2-1.6-42.9-8.9-87.8-17.5-131.1-24.1 3.6 0 7.2 0 10.8-0.1 0.2 0.2 0.4 0.3 0.7 0.1l0.1-0.1c8.9 0 17.8-0.1 26.8-0.1 0.1 0.3 0.6 0.5 0.8 0.1l0.1-0.1h8.9c0.1 0.1 0.3 0.1 0.4 0h4.7c0.2 0.2 0.5 0.2 0.7 0h3.4c0.2 0.3 0.6 0.4 0.8 0 26.7-0.1 53.4-0.3 80.1-0.4 0.7 0 0.7-0.9 0.1-0.9zm-130 0c-0.2 0.2-0.2 0.4 0 0.6h-4.8c1.7-0.3 3.5-0.6 5.2-1-0.1 0.2-0.3 0.3-0.4 0.4zm2.9 0.6h-2.1c0.5-0.4 1-0.9 1.5-1.3 0.8-0.2 1.7-0.3 2.5-0.5-0.7 0.7-1.3 1.2-1.9 1.8zm3.3 0h-2.1c0.7-0.7 1.4-1.4 2.1-2 0.8-0.2 1.7-0.3 2.5-0.5-0.8 0.8-1.7 1.5-2.5 2.3 0.1 0.1 0 0.1 0 0.2zm5 0h-3.7c1-1 2-1.9 3.1-2.8l4.8-0.9c-1.4 1.2-2.9 2.4-4.2 3.7zm5.1-0.1h-3.7c1.5-1.4 3.1-2.8 4.7-4 1.3-0.2 2.6-0.5 3.9-0.7-1.6 1.7-3.2 3.2-4.9 4.7zm4.8 0h-3.5c1.8-1.5 3.4-3.2 5-5 1.2-0.2 2.4-0.4 3.6-0.7-1.7 2-3.4 3.8-5.1 5.7zm5 0h-3.8c1.8-2 3.6-3.9 5.4-5.9 1.5-0.3 3-0.5 4.5-0.8-2.1 2.2-4.1 4.4-6.1 6.7zm4.3 0h-3.1c2-2.3 4-4.6 6.2-6.8 0.1-0.1 0.1-0.1 0.1-0.2 0.9-0.2 1.8-0.3 2.6-0.5-2 2.4-4.2 4.8-5.8 7.5zm1 0c1.8-2.7 4.1-5.1 6.1-7.6 1-0.2 2-0.4 3-0.5-2.2 2.6-4.2 5.4-6.1 8.2-1-0.1-2-0.1-3-0.1zm8.5-0.1h-4.3c2-2.9 4.2-5.7 6.4-8.4 1.9-0.3 3.7-0.7 5.6-1-2.4 3.3-5 6.4-7.7 9.4zm5.3 0h-4.1c2.8-3.1 5.4-6.3 7.8-9.7 1.2-0.2 2.5-0.5 3.7-0.7-2.5 3.5-4.9 7-7.4 10.4zm4.2 0h-3.1c2.5-3.5 5.1-7 7.6-10.6 0.7-0.1 1.3-0.2 2-0.4-2.2 3.7-4.4 7.3-6.5 11z"/>
   <path d="m1019.5 684c-0.6 0-0.6 0.9 0 0.9 24.8 0.2 51.4 0 76.1-0.8 0.6 0 0.6-0.9 0-0.9-24.7 0.8-51.3 1-76.1 0.8z"/>
   <path d="m1038.4 682.4h57.3c0.6 0 0.6-0.9 0-0.9h-57.3c-0.6-0.1-0.6 0.9 0 0.9z"/>
   <path d="m1046.6 679.4c-0.6 0-0.6 0.9 0 0.9 16.1-1.1 32.3-1.3 48.4-0.8 0.6 0 1.5-0.9 0.9-0.9-16.1-0.5-33.2-0.3-49.3 0.8z"/>
   <path d="m1060.2 676.4c-0.6 0-0.6 0.9 0 0.9 11.7-0.2 24.4-0.5 36.1-0.7 0.6 0 0.6-0.9 0-0.9-11.7 0.3-24.3 0.5-36.1 0.7z"/>
   <path d="m1068 673.9c-0.6 0-0.6 0.9 0 0.9 9.1-0.4 18.2-0.4 27.3 0.1 0.6 0 0.6-0.9 0-0.9-9.2-0.5-18.3-0.6-27.3-0.1z"/>
   <path d="m1073.2 671.1c-0.6 0-0.6 0.9 0 0.9 6.4-0.2 12.9-0.4 19.3-0.6 0.6 0 0.6-0.9 0-0.9-6.4 0.2-12.9 0.4-19.3 0.6z"/>
   <path d="m1078 668.7c-0.6 0-0.6 0.9 0 0.9 4.2 0 8.3-0.2 12.5-0.5 0.6-0.1 0.6-1 0-0.9-4.2 0.4-8.4 0.6-12.5 0.5z"/>
   <path d="m1081.8 665.8c-0.6 0-0.6 1 0 0.9 2.4-0.2 4.8-0.3 7.3-0.5 0.6 0 0.6-1 0-0.9-2.4 0.2-4.9 0.4-7.3 0.5z"/>
   <path d="m1063.6 741.7c-9.7-10.9-16.1-24.1-18.9-38.4-0.2-1.2-2-0.7-1.8 0.5 2.9 14.6 9.5 28 19.4 39.2 0.8 0.9 2.1-0.4 1.3-1.3z"/>
   <path d="m1105.6 766c-14-2-26.7-8.7-36.1-19.3-0.8-0.9-2.1 0.4-1.3 1.3 9.6 10.8 22.6 17.7 36.9 19.8 1.2 0.1 1.7-1.6 0.5-1.8z"/>
   <path d="m1178.6 745.8c-4.3 3.9-8.9 7.4-13.8 10.3 0.1-0.1 0.1-0.3-0.1-0.5-2.4-2.8-4.7-5.7-6.8-8.7-0.3-0.5-1.1 0-0.8 0.5 2.2 3.1 4.5 6 6.9 8.9 0.1 0.1 0.1 0.1 0.2 0.1-7 4.1-14.7 7.2-22.7 9.2-1.1 0.3-0.7 2 0.5 1.8 14.2-3.5 27.1-10.4 37.8-20.3 0.9-0.8-0.4-2.1-1.2-1.3z"/>
   <path d="m1205.5 704c-2.8 8.5-6.8 16.4-11.9 23.7l-0.1-0.1c-0.2-0.2-0.4-0.2-0.5-0.1-0.5-0.9-2.7-2.5-3.3-2.9-1.4-1.1-2.8-2.1-4.3-3-0.5-0.3-1 0.5-0.5 0.8 1.7 1.1 3.4 2.2 5 3.5 0.7 0.6 1.4 1.2 2.1 1.9 0.3 0.3 0.5 0.6 0.8 0.8-2.9 4-6.1 7.8-9.7 11.3-0.8 0.8 0.5 2.1 1.3 1.3 10.4-10.3 18.1-22.8 22.8-36.7 0.4-1.1-1.4-1.6-1.7-0.5z"/>
   <path d="m1205.1 670.2c-3.1-14.4-9.8-27.5-19.7-38.4-0.8-0.9-2.1 0.4-1.3 1.3 7.9 8.8 13.7 19 17.2 30.1-1.5 0.9-3.5 1.2-5.1 1.7s-3.1 1.2-4.5 1.9c-0.5 0.3-0.1 1 0.5 0.8 1.8-0.9 3.7-1.6 5.6-2.2 1.3-0.4 2.7-0.6 3.9-1.3 0.6 2.1 1.2 4.3 1.7 6.5 0.2 1.2 1.9 0.7 1.7-0.4z"/>
   <path d="m1180.4 625.1c-12.2-8.8-25.4-15.7-39.6-20.6-1.1-0.4-1.6 1.4-0.5 1.8 7.4 2.6 14.6 5.7 21.5 9.4-2.2 2.6-3.6 5.6-4.1 8.9-0.1 0.6 0.8 0.8 0.9 0.2 0.5-3.2 1.8-6.1 3.9-8.5 0.1-0.1 0.1-0.2 0.1-0.2 5.8 3.2 11.5 6.7 16.9 10.6 0.9 0.6 1.8-1 0.9-1.6z"/>
   <path d="m1062.5 629.4c-9.1 12.5-16.4 26.1-21.8 40.6-0.4 1.1 1.3 1.6 1.8 0.5 5.4-14.3 12.6-27.8 21.6-40.1 0.7-1-0.9-1.9-1.6-1z"/>
   <path d="m1075.7 647.9c-4.7 5.1-8.4 10.8-11.1 17.2-0.2 0.5-0.1 1.2 0.5 1.3h0.3c0.8 0.1 1.3-0.7 1.1-1.3 2.6-5.9 6.1-11.2 10.5-16 0.8-0.7-0.5-2-1.3-1.2z"/>
   <path d="m1102.8 626.5c-3.3 1.8-6.5 3.7-9.7 5.7-2.5 1.5-5.8 3-7.7 5.3-0.7 0.9 0.5 2.2 1.3 1.3 2-2.4 5.7-4 8.4-5.7 2.8-1.8 5.7-3.4 8.7-5 1-0.6 0.1-2.2-1-1.6z"/>
   <path d="m1076.8 723.6c-2.3-1.8-3.9-5.3-5.3-7.8-1.5-2.6-2.8-5.2-4-7.9-0.5-1.1-2-0.1-1.6 0.9 1.5 3.4 3.2 6.7 5.1 9.8 1.3 2.3 2.7 4.9 4.8 6.5 1 0.7 1.9-0.8 1-1.5z"/>
   <path d="m1102.8 742.7v-0.1c-0.2-0.3-0.7-0.5-1-0.4h-0.1c-0.1 0-0.1 0.1-0.1 0.1-1.1 0-3-0.9-3.9-1.2-1.7-0.6-3.3-1.4-4.9-2.3-2.4-1.4-4.6-3.2-6.9-4.9-0.9-0.7-1.8 0.9-0.9 1.6 2.9 2.2 5.7 4.3 8.9 6 2.2 1.1 6 3.1 8.5 2.6 0.5-0.2 0.6-0.9 0.4-1.4z"/>
   <path d="m1159.7 732.4c-4.1 3.8-8.7 6.8-13.8 9.1-1.1 0.5-0.1 2 0.9 1.6 5.2-2.4 9.9-5.5 14.2-9.3 0.8-1-0.5-2.2-1.3-1.4z"/>
   <path d="m1179.7 708.6c-1.8 5-4.5 9.5-8.2 13.4-0.8 0.9 0.5 2.1 1.3 1.3 3.9-4.1 6.8-8.9 8.7-14.2 0.4-1.2-1.4-1.6-1.8-0.5z"/>
   <path d="m1163.9 637.3c-5.8-3.7-11.9-6.9-18.2-9.8-1.1-0.5-2 1.1-0.9 1.6 6.3 2.8 12.4 6.1 18.2 9.8 1 0.6 1.9-1 0.9-1.6z"/>
   <path d="m1184.4 666.2c-2.6-6.6-7.3-12.2-11.3-18-0.7-1-2.2 0-1.6 0.9 3.9 5.6 8.6 11.2 11.2 17.6 0.4 1.1 2.2 0.6 1.7-0.5z"/>
   <path d="m1072.9 723.9c-3.8-4.2-6.7-9-8.8-14.3-0.2-0.5-1.1-0.3-0.9 0.2 2.2 5.4 5.2 10.3 9 14.7 0.4 0.5 1-0.2 0.7-0.6z"/>
   <path d="m1071.5 727c-5.1-5.1-8.2-11.5-11.2-18-0.2-0.5-1-0.1-0.8 0.5 2.9 6.6 6.1 13 11.3 18.2 0.5 0.4 1.2-0.3 0.7-0.7z"/>
   <path d="m1100.8 747.6c-0.3-0.5-0.8-0.6-1.4-0.8-1.7-0.5-3.3-1.1-4.8-1.8-3.2-1.4-6.1-3.4-8.8-5.6-0.4-0.4-1.1 0.3-0.6 0.6 2.2 1.8 4.5 3.4 7 4.7 1.1 0.6 2.3 1.2 3.5 1.7 0.7 0.3 1.4 0.6 2.1 0.8 0.3 0.1 1.4 0.3 1.9 0.6 0 0.1 0 0.2 0.1 0.2l0.1 0.1c0.1 0.2 0.4 0.3 0.6 0.2 0.1 0 0.1-0.1 0.2-0.1 0.1-0.1 0.2-0.3 0.1-0.6z"/>
   <path d="m1101.7 750.4c-6.6-1.7-12.8-4.5-18.4-8.4-0.5-0.3-0.9 0.5-0.5 0.8 5.7 4 11.9 6.8 18.7 8.5 0.5 0.1 0.8-0.8 0.2-0.9z"/>
   <path d="m1073.9 646.4c-5.9 4.4-10.1 10.4-12.1 17.5-0.2 0.6 0.7 0.8 0.9 0.2 2-6.8 6-12.7 11.7-16.9 0.4-0.3 0-1.1-0.5-0.8z"/>
   <path d="m1070.7 644.5c-2.3 2-4.2 4.3-5.9 6.8-3.3-1.9-6.6-3.9-9.9-5.8-0.5-0.3-1 0.5-0.5 0.8 3.3 1.9 6.5 3.8 9.8 5.8-0.7 1.1-1.3 2.2-1.9 3.3-1.2 2.1-2.2 4.3-3.1 6.6-0.4 1-1.8 2.9-1.3 4 0.1 0.2 0.4 0.3 0.6 0.2 0.3-0.1 0.3-0.4 0.1-0.6-0.1-0.4 0.9-2 1-2.4l1.2-2.7c0.8-1.8 1.7-3.5 2.6-5.2 0.5-0.9 1-1.8 1.6-2.6 0.1 0 0.2 0.1 0.2 0.1 0.5 0.3 1-0.5 0.5-0.8-0.1 0-0.1-0.1-0.2-0.1 1.6-2.4 3.5-4.7 5.8-6.6 0.5-0.5-0.2-1.2-0.6-0.8z"/>
   <path d="m1107.2 602.8c-7.4 2.1-14.7 4.3-21.4 8.1-6.6 3.7-12.3 8.9-17.9 13.9-0.9 0.8 0.4 2.1 1.3 1.3 4.2-3.7 8.3-7.3 12.8-10.5 0 0.1 0 0.2 0.1 0.3 2.3 3.4 4.3 6.8 6.2 10.4 0.1 0.3 0.4 0.3 0.6 0.2-2.6 1.3-5.2 2.7-7.1 4.9-0.4 0.4 0.3 1.1 0.6 0.6 2.5-2.9 6.5-4.5 9.9-6.3 1.8-0.9 3.6-1.8 5.5-2.6 1.6-0.7 3.3-1.2 4.7-2.3 0.5-0.3 0-1.1-0.5-0.8-1.4 1-3.1 1.6-4.7 2.3-2.1 0.9-4.2 2-6.2 3-0.7 0.4-1.4 0.7-2.2 1.1 0.2-0.1 0.3-0.4 0.2-0.6-1.9-3.6-3.9-7.1-6.2-10.4-0.1-0.1-0.2-0.2-0.4-0.2 1.4-1 2.8-1.9 4.2-2.8 6.4-3.9 13.8-5.9 21-7.9 1.1-0.2 0.6-2-0.5-1.7z"/>
   <path d="m1101.2 624-9.3 4.5c-2.4 1.1-5.5 2-7 4.4-0.3 0.5 0.5 1 0.8 0.5 1.4-2.3 5.1-3.3 7.4-4.5l8.5-4.1c0.6-0.3 0.1-1-0.4-0.8z"/>
   <path d="m1163.6 634.8c-3.1-2.2-6.3-4.2-9.7-6-1.7-0.9-3.4-1.7-5.1-2.5-0.9-0.4-1.7-0.8-2.6-0.3-0.5 0.3 0 1.1 0.5 0.8 0.9-0.5 3.7 1.3 4.6 1.7 1.5 0.7 2.9 1.5 4.3 2.3 2.6 1.5 5.1 3.1 7.5 4.9 0.6 0.2 1-0.6 0.5-0.9z"/>
   <path d="m1185 661.7c-2.6-4.4-5.4-8.7-8.2-13-0.3-0.5-1.1 0-0.8 0.5 2.8 4.3 5.5 8.6 8.2 13 0.3 0.5 1.1 0 0.8-0.5z"/>
   <path d="m1188.9 665.7c-2.8-7.1-6.2-13.9-10.2-20.5-0.3-0.5-1.1 0-0.8 0.5 3.9 6.5 7.3 13.2 10.1 20.3 0.3 0.5 1.1 0.2 0.9-0.3z"/>
   <path d="m1183.8 710.4c-2.3 4.7-5.1 9-8.4 13-0.4 0.4 0.3 1.1 0.6 0.6 3.4-4 6.3-8.4 8.6-13.2 0.3-0.5-0.5-1-0.8-0.4z"/>
   <path d="m1188.5 708.5c-1.2 3.9-3.1 7.4-5.5 10.7-1.3 1.9-2.8 3.6-4.3 5.3-0.6 0.6-1.9 1.5-1.8 2.5 0 0.3 0.3 0.5 0.6 0.4h0.2c0.3 0 0.4-0.3 0.3-0.6v-0.1c0.3-0.5 1.2-1.3 1.4-1.5 0.7-0.8 1.3-1.6 2-2.3 1.2-1.4 2.3-2.9 3.3-4.4 2-3 3.6-6.2 4.7-9.7 0.1-0.6-0.8-0.9-0.9-0.3z"/>
   <path d="m1160.2 737.2c-3.6 3.2-7.6 5.6-12.1 7.1-0.6 0.2-0.3 1.1 0.2 0.9 4.7-1.6 8.9-4.1 12.5-7.3 0.4-0.5-0.2-1.1-0.6-0.7z"/>
   <path d="m1164 739c-2.3 2.5-4.9 4.5-7.8 6.3-0.9 0.5-8.8 5.1-9.3 4.4-0.4-0.5-1 0.2-0.6 0.6 0.7 0.8 1.8 0 2.5-0.3 2-0.9 4-1.8 6-2.9 3.7-1.9 7.1-4.3 9.9-7.5 0.4-0.4-0.3-1.1-0.7-0.6z"/>
   <path d="m1192.3 645.7c-2.6 2.2-5.5 4-8.5 5.6-0.5 0.3-0.1 1.1 0.5 0.8 3.1-1.6 6-3.5 8.7-5.7 0.4-0.5-0.2-1.1-0.7-0.7z"/>
   <path d="m1104.7 615.5c-1-2.8-2.1-5.6-3.1-8.4-0.2-0.5-1.1-0.3-0.9 0.2l3.1 8.4c0.2 0.6 1.1 0.4 0.9-0.2z"/>
   <path d="m1062.2 721.4c-2.6 1.4-5.2 2.9-7.8 4.3-0.1 0-0.3 0-0.4 0.1-0.2 0.1-0.3 0.3-0.5 0.4-0.4 0.4 0.1 1 0.6 0.7 2.9-1.6 5.8-3.2 8.6-4.8 0.5-0.2 0-1-0.5-0.7z"/>
   <path d="m1087.7 747.1c-2.3 2.9-4.4 5.9-6.4 9-0.3 0.5 0.5 1 0.8 0.5 1.9-3.1 4-6 6.2-8.8 0.4-0.6-0.2-1.2-0.6-0.7z"/>
   <path d="m1102.2 756.8c0-0.6-0.9-0.6-0.9 0 0.1 2-0.1 4-0.7 6-0.2 0.6 0.7 0.8 0.9 0.2 0.6-2 0.8-4.1 0.7-6.2z"/>
   <path d="m1049.8 615.8c-2.2-1.8-4.1-3.9-5.9-6.1-0.7-0.9-2 0.4-1.3 1.3 1.4 1.8 2.9 3.4 4.5 4.9-2.6-0.5-5.2-0.8-7.8-1-0.9 0-1.1 1-0.6 1.5-0.2 0.3-0.2 0.7 0.1 1.1 1.5 1.7 3.1 3.2 4.9 4.6 0.9 0.7 1.8-0.9 0.9-1.6-1.4-1.1-2.7-2.3-3.9-3.6 2.5 0.2 4.9 0.5 7.3 1.1 0.5 0.1 0.9-0.2 1.1-0.6 0.6 0 1.4-0.9 0.7-1.6z"/>
   <path d="m1058.6 606c-1.2-2.2-2.3-4.4-3.1-6.7-0.4-1.1-2.2-0.6-1.8 0.5 0.6 1.7 1.4 3.4 2.2 5.1-1.4-0.6-2.8-1.2-4.1-1.9-0.7-0.4-1.6 0.2-1.3 1 0.6 1.7 1.2 3.5 1.8 5.2-1.9-0.9-3.9-1.6-5.9-2.2-1.1-0.3-1.6 1.4-0.5 1.8 2.6 0.8 5.1 1.8 7.5 3 0.7 0.3 1.6-0.2 1.3-1-0.6-1.7-1.2-3.5-1.8-5.2 1.5 0.7 3 1.3 4.6 1.9 0.8 0 1.5-0.9 1.1-1.5z"/>
   <path d="m1047.2 753.9c-1.5-1.8-3.7-2.7-5.6-1-0.7 0.6-0.8 1.7-0.6 2.5 0.1 0.6 0.3 1.3 0.4 1.9-0.4 1-1 1.2-1.7 0.6-0.5-0.3-0.9-0.8-1.3-1.3-0.8-0.9-2.1 0.4-1.3 1.3 1.1 1.3 3.6 3.2 5.3 1.5 0.7-0.7 0.9-1.5 0.8-2.5-0.1-0.5-0.2-1-0.3-1.6-0.3-0.9 0.2-1.4 1.3-1.5 0.8 0.1 1.3 0.9 1.8 1.4 0.6 0.8 1.9-0.4 1.2-1.3z"/>
   <path d="m1056.8 763.7c-1.9 1.2-3.9 2.4-5.8 3.5 0.4-1.6 0.8-3.2 1.3-4.8 0.2-0.6-0.5-1.3-1.1-1.1-1.2 0.4-2.5 0.8-3.7 1.2 0.5-1.6 1.1-3.3 1.9-4.7 0.6-1-1-1.9-1.6-0.9-1.2 2.1-1.8 4.6-2.7 6.8-0.2 0.6 0.5 1.3 1.1 1.1 1.3-0.4 2.5-0.8 3.8-1.3-0.5 1.8-1 3.5-1.4 5.3-0.2 0.8 0.6 1.4 1.3 1 2.6-1.5 5.1-3.1 7.7-4.6 1.1-0.6 0.2-2.1-0.8-1.5z"/>
   <path d="m1200.7 765.6c-0.3-1.5-2.1-2-3.4-2.1-1-0.1-2.1 0.3-3.1 0.4-0.6 0.1-1.2-0.1-1.7-0.5-0.2-0.2 0.4-2.4 1.2-2.1 1.1 0.3 1.6-1.4 0.5-1.8-1.2-0.4-2.5 0.7-3.1 1.7-0.7 1.2-0.7 2.3 0.2 3.4 0.8 1 2.5 1.1 3.7 1 1-0.2 2-0.4 3-0.3 1.2 0.2 1.3 1.4 0.4 2-0.6 0.5-1.5 0.1-2.1-0.2-1-0.6-1.9 1-0.9 1.6 2.6 1.6 5.9 0.1 5.3-3.1z"/>
   <path d="m1204.7 759c-0.4 1-0.9 2-1.5 3-0.7-0.6-1.4-1.2-2-1.8 0.7-0.8 1.4-1.5 2.1-2.3 0.8-0.9-0.5-2.2-1.3-1.3l-2.1 2.3c-0.4-0.5-0.9-0.9-1.3-1.4 0.3-0.2 0.6-0.5 0.9-0.7 0.5-0.4 1.1-0.8 1.6-1.3 0.4-0.3 0.3-1 0-1.3-0.4-0.4-0.9-0.3-1.3 0l-1.8 1.4c-0.3 0.2-0.6 0.5-0.9 0.7-0.4 0.3-0.5 0.6-0.6 1.1 0 0.2 0 0.3 0.1 0.5 0 0.2 0.1 0.4 0.2 0.5 1.9 2 3.8 4.1 6 5.7 0.4 0.3 1 0.1 1.2-0.3 0.9-1.3 1.6-2.8 2.2-4.3 0.7-1.1-1.1-1.6-1.5-0.5z"/>
   <path d="m1200.1 606.7c-0.9 0.9-1.8 1.9-2.7 2.8-0.4 0.4-1.1 1.4-1.8 2l1-8.4c0.1-0.7-0.8-1.2-1.4-0.8-2.7 1.9-5.1 4-7.4 6.3-0.8 0.8 0.5 2.1 1.3 1.3 1.7-1.7 3.5-3.3 5.4-4.8l-0.9 7.8c-0.1 0.5 0.5 0.9 0.9 0.9 0.9 0 1.4-0.3 2.1-0.9 1.7-1.5 3.2-3.3 4.7-4.9 0.9-0.9-0.3-2.2-1.2-1.3z"/>
   <path d="m1208.1 613.2c-1.2-0.9-2.3-1.9-3.5-2.8 0-0.6-0.7-1-1.2-0.8-0.7-0.1-1.5 0.7-1 1.3-1.4 2.2-2.8 4.4-4.1 6.6-0.2 0.3-0.2 0.9 0.1 1.1l2.8 2.2c0.9 0.7 2.2-0.5 1.3-1.3-0.7-0.6-1.5-1.2-2.2-1.8 0.4-0.7 0.9-1.4 1.3-2.1 1 0.4 1.8 1 2.6 1.6 0.9 0.7 2.2-0.6 1.3-1.3s-1.9-1.4-3-1.9c0.4-0.7 0.8-1.4 1.3-2 0.8 0.6 1.6 1.3 2.4 1.9 0 0.2 0.1 0.5 0.3 0.7 0.7 0.6 1.6 0.4 1.9-0.5 0-0.3-0.1-0.7-0.3-0.9z"/>
   <path d="m1209.2 604.7c-9.6-9.1-21.2-15.8-32.9-21.7-13.1-6.7-27-11.1-41.5-13.6-1.1-0.2-1.6 1.6-0.5 1.8 26.6 4.7 53.5 16.5 73.6 34.9 20 18.3 24.9 45.1 28.8 70.7 0.2 1.2 1.9 0.7 1.8-0.5-4.1-26.3-9.3-52.6-29.3-71.6z"/>
   <path d="m1252 648.3c-3.3 0.9-6.7 2.3-10.1 3-1.3-6.8-3.1-13.5-5.5-19.9-1.3-3.4-2.8-6.7-4.5-9.8 0.5-0.2 1-0.5 1.5-0.7 1.1-0.5 2.2-1.1 3.2-1.6 2.2-1.1 4.3-2.2 6.5-3.3 0.5-0.3 0.1-1.1-0.5-0.8-2.4 1.2-4.8 2.5-7.3 3.7-0.9 0.5-2.9 1-3.9 1.9-4.6-8.1-10.8-15.4-17.6-21.7-0.3-0.3-0.6-0.5-0.8-0.7 11.2-10 21.6-20.8 31-32.5 0.7-0.9-0.5-2.2-1.3-1.3-9.5 11.7-19.9 22.6-31.1 32.5-8.6-7.4-18.3-13.1-28.5-18 1.7-3.4 3.4-6.8 5-10.2 0.3-0.5-0.5-1-0.8-0.5-1.7 3.4-3.4 6.8-5.1 10.3-1.6-0.8-3.3-1.6-5-2.3-7.4-3.4-14.9-6.5-22.7-8.9 0.5-4.7 1.3-9.3 2.3-13.8 0.1-0.6-0.7-0.8-0.9-0.2-1.1 4.6-1.8 9.2-2.4 13.8-6.8-2-13.8-3.4-21-3.8-1.2-0.1-1.2 1.8 0 1.8 15.4 0.9 29.8 6.5 43.7 12.7 1.8 0.8 3.5 1.6 5.2 2.4 0.1 0.2 0.3 0.3 0.5 0.3 10.9 5.3 21.2 11.5 30.3 19.7 9.7 8.7 17.4 19.5 22.2 31.6 2.5 6.3 4.2 13 5.5 19.8-0.4 0.2-0.2 0.7 0.2 0.8 1.6 8.3 2.5 16.8 3.6 25 0.1 1.1 2 1.2 1.8 0-1.1-8.4-2.1-16.9-3.7-25.3 3.4-0.7 6.9-2.1 10.2-3 0.8-0.3 0.6-1.2 0-1z"/>
   <path d="m1256.5 719.1c-4.1-0.9-8.3-1.9-12.4-2.8 1.4-6.1 2.3-12.2 2.7-18.4 0.1-1.2-1.7-1.2-1.8 0-2 28.8-14.5 56.1-34.9 76.5-20.2 20.1-48 32.1-76.3 33.8-0.1-0.1-0.3-0.2-0.6-0.2-0.7 0-1 0.6-0.8 1.1-0.1 0.5 0.2 1 0.9 1 8.6-0.5 17-1.9 25.2-4.1 0.9 3.8 2.1 7.5 3.4 11.1 0.2 0.5 1.1 0.3 0.9-0.2-1.4-3.6-2.5-7.4-3.4-11.1 10-2.8 19.6-6.9 28.6-12.1 2.5 3.4 4.7 6.9 6.8 10.6 0.3 0.5 1.1 0.1 0.8-0.5-2.1-3.7-4.3-7.2-6.8-10.6 8.2-4.9 15.8-10.7 22.7-17.4l0.2-0.2c9.9 9 19.3 18.5 28.4 28.4 0.8 0.9 2.1-0.4 1.3-1.3-9.1-9.9-18.5-19.3-28.4-28.4 8-8.1 14.7-17.4 20-27.4 2.7 1.4 5.5 2.8 8.2 4.1 0 0.2 0.1 0.3 0.3 0.4 0.3 0.1 0.5 0.1 0.8 0.2 0.5 0.1 0.8-0.6 0.4-0.8l-9.3-4.7c4.7-9.1 8.3-18.8 10.6-28.7l12.4 2.8c0.4-0.1 0.6-1 0.1-1.1z"/>
   <path d="m1112.7 807.2c-28.8-2.2-56-14.7-76.6-34.9-20.4-20.2-32.7-48.1-34.9-76.6-0.1-1.2-1.9-1.2-1.8 0 0.6 8.3 2.1 16.5 4.4 24.5h-0.3c-4.1 1.7-8.3 3.4-12.4 5.2-0.5 0.2-0.3 1.1 0.2 0.9 4.1-1.7 8.3-3.4 12.4-5.2 0.1 0 0.2-0.1 0.2-0.2 3 10.2 7.2 20 12.6 29.1-4.1 2.8-8.3 5.7-12.4 8.5-0.5 0.3 0 1.1 0.5 0.8 4.2-2.8 8.3-5.7 12.5-8.5 5 8.2 10.9 15.9 17.8 22.8l1 1c-11.1 10.6-22.3 21.2-33.4 31.8-0.9 0.8 0.4 2.1 1.3 1.3 11.1-10.6 22.3-21.2 33.4-31.8 7.7 7.4 16.4 13.6 25.8 18.6-1.5 3-2.9 6.1-4.4 9.1-0.7 1.4-2.6 3.7-1.4 5.2 0.4 0.5 1-0.2 0.6-0.6-0.7-0.9 2.6-6.3 3.1-7.3 1-2 1.9-4 2.9-5.9 9.3 4.9 19.1 8.6 29.3 11-1.1 4.4-2.2 8.8-3.1 13.2-0.1 0.6 0.8 0.8 0.9 0.2 0.9-4.4 2-8.9 3.1-13.3 6.2 1.4 12.4 2.4 18.7 2.9 1.2 0.1 1.1-1.8 0-1.8z"/>
   <path d="m1111.3 800.2c-26.3-2.4-51-14.1-69.7-32.7-18.6-18.5-29.8-44-32-70-0.1-1.2-1.9-1.2-1.8 0 2.2 26.8 13.7 52.1 32.5 71.3 18.7 19.1 44.5 30.8 71 33.2 1.2 0.1 1.2-1.7 0-1.8z"/>
   <path d="m1238.8 699.2c-6 54.2-50 97.4-104.2 102.5-1.2 0.1-1.2 1.9 0 1.8 27-2.6 52.3-14.2 71.8-33.1 19.3-18.8 31.3-44.6 34.3-71.2 0-1.1-1.8-1.1-1.9 0z"/>
   <path d="m1113.6 568.2c-13.4 1.5-25.8 6.6-37.6 12.9-11.7 6.3-24.6 12.9-33.9 22.5-9.3 9.5-16.7 22.2-23 33.9-6.4 12-10.9 25-11.6 38.7-0.1 1.2 1.8 1.2 1.8 0 0.7-13.4 5.1-25.9 11.3-37.7 5.9-11.3 13.3-22.7 21.6-32.3s20.9-15.7 31.8-21.8c12.3-6.9 25.4-12.7 39.5-14.2 1.3-0.3 1.3-2.2 0.1-2z"/>
   <path d="m1114.1 562.7c-8.5 0.8-16.8 2.5-24.9 4.9-1.5-5-3.2-9.9-4.9-14.8-0.2-0.5-1.1-0.3-0.9 0.2 1.8 4.9 3.4 9.8 4.9 14.8-9.5 2.9-18.6 7-27.2 12.1-3.2-4.3-6.5-8.5-9.7-12.8-0.3-0.5-1.1 0-0.8 0.5 3.2 4.3 6.5 8.6 9.7 12.8-8.3 5-16.1 11-23.1 17.9-0.5 0.5-0.9 1-1.4 1.4 0-0.1-0.1-0.3-0.2-0.4-10.5-11.5-21-23-31.9-34.1-0.8-0.8-2.1 0.4-1.3 1.3 10.9 11.1 21.4 22.7 31.9 34.1 0.1 0.1 0.3 0.2 0.4 0.2-7.5 7.8-13.8 16.7-19.1 26.1-4.1-2-8.1-4-12.2-6-0.5-0.3-1 0.5-0.5 0.8 4.1 2 8.1 4 12.2 6-0.7 1.4-1.5 2.8-2.2 4.2-3.8 7.6-6.6 15.7-8.9 23.8-4.3-1.1-8.6-2.3-13-3.5-0.6-0.2-0.8 0.7-0.2 0.9 4.3 1.2 8.6 2.4 13 3.5-1.9 6.8-3.4 13.7-4.8 20.6-0.2 1.1 1.5 1.6 1.8 0.5 3.1-14.9 6.6-29.7 13.1-43.5 5.8-12.4 13.9-23.7 23.5-33.6 20.2-20.8 47.9-33.4 76.6-36.1 1.2-0.1 1.2-1.9 0.1-1.8z"/>
   <path d="m1038.1 622.6c-12.7 12.7-17 30.5-21 47.4-0.1 0.6 0.7 0.8 0.9 0.2 3.9-16.8 8.2-34.4 20.8-47 0.3-0.3-0.3-1-0.7-0.6z"/>
   <path d="m1037.8 627.3c-11 11-14.8 26.5-17.7 41.3-0.1 0.6 0.8 0.8 0.9 0.2 2.9-14.7 6.6-30 17.5-40.9 0.4-0.4-0.3-1.1-0.7-0.6z"/>
   <path d="m1036.4 749.9c-9.8-13.7-15.9-29.9-17.4-46.7-0.1-0.6-1-0.6-0.9 0 1.6 17 7.6 33.3 17.5 47.2 0.3 0.4 1.1 0 0.8-0.5z"/>
   <path d="m1039.5 746.7c-7.3-8.7-12.4-18.9-15.2-29.9-0.1-0.6-1-0.3-0.9 0.2 2.8 11.1 8.1 21.5 15.4 30.3 0.5 0.5 1.1-0.2 0.7-0.6z"/>
   <path d="m1107.2 790.6c-17.4-2-34-8.5-48.2-18.8-0.5-0.3-0.9 0.4-0.5 0.8 14.3 10.4 31.1 16.9 48.6 19 0.7 0 0.7-0.9 0.1-1z"/>
   <path d="m1104.6 786.6c-11.1-1.5-21.9-4.7-32.1-9.4-0.5-0.2-1 0.5-0.5 0.8 10.2 4.8 21.1 7.9 32.3 9.5 0.6 0.1 0.9-0.8 0.3-0.9z"/>
   <path d="m1188.7 765.3c-13.5 12.3-30.1 20.7-48 24.4-0.6 0.1-0.3 1 0.2 0.9 18-3.8 34.7-12.3 48.4-24.7 0.5-0.4-0.2-1-0.6-0.6z"/>
   <path d="m1172.2 771.8c-4 3.7-8.6 6.4-13.6 8.6-2.7 1.2-5.5 2.2-8.3 3.2-2.9 1-5.8 2.3-8.9 2.2-0.6 0-0.6 0.9 0 0.9 3 0.1 5.7-1 8.4-2 2.8-1 5.6-2 8.4-3.2 5.3-2.2 10.3-5.1 14.6-9.1 0.5-0.3-0.2-1-0.6-0.6z"/>
   <path d="m1227.8 703.3c-4.6 15.5-9.4 31.5-19.5 44.4-0.4 0.5 0.3 1.1 0.6 0.6 10.3-13 15.2-29.1 19.8-44.8 0.1-0.6-0.8-0.8-0.9-0.2z"/>
   <path d="m1224.2 704.6c-2 10.4-5.7 20.4-11 29.6-0.3 0.5 0.5 1 0.8 0.5 5.4-9.3 9.1-19.3 11.1-29.8 0.1-0.7-0.8-0.9-0.9-0.3z"/>
   <path d="m1208.6 623.5c-0.4-0.5-1 0.2-0.6 0.6 11.2 13.6 18.8 29.9 22.3 47.1 0.1 0.6 1 0.3 0.9-0.2-3.6-17.4-11.3-33.8-22.6-47.5z"/>
   <path d="m1228.8 671.3c-1.5-5.5-2.8-11.1-4.9-16.4-1.9-4.8-4.4-9.4-7.5-13.6-0.3-0.5-1.1 0-0.8 0.5 3.1 4.4 5.7 9.1 7.7 14.1 2 5.1 3.2 10.4 4.6 15.6 0.2 0.6 1 0.3 0.9-0.2z"/>
   <path d="m1186.1 600.1c-14.8-9.9-31.5-16.5-49.1-19.3-0.6-0.1-0.8 0.8-0.2 0.9 17.5 2.8 34.2 9.4 48.9 19.2 0.5 0.3 0.9-0.5 0.4-0.8z"/>
   <path d="m1167.7 593.5c-9.5-5.1-19.8-8.2-30.5-9.1-0.6-0.1-0.6 0.9 0 0.9 10.5 0.9 20.7 4 30 9 0.6 0.3 1-0.5 0.5-0.8z"/>
   <path d="m1112.4 579.3c-16.8 5.3-34.6 9.8-49.1 20.2-0.5 0.3 0 1.1 0.5 0.8 14.5-10.3 32.2-14.8 48.9-20.1 0.5-0.2 0.3-1.1-0.3-0.9z"/>
   <path d="m1110.8 584.6c-5 0.9-10 1.9-15 3.2-4.4 1.1-8.9 2.3-12.7 4.7-0.5 0.3 0 1.1 0.5 0.8 4.1-2.5 8.8-3.6 13.3-4.8 4.7-1.2 9.4-2.2 14.2-3 0.5-0.1 0.2-1-0.3-0.9z"/>
   <path d="m943 682c-1.3 4.5-2.9 8.9-4.8 13.2-2.3-3.7-4.8-7.2-7.5-10.6-0.4-0.5-1.1-0.3-1.4 0.2-2.1 3.3-4.3 6.5-6.4 9.8-2-3.9-3.9-7.9-5.7-11.9-0.5-1.1-2-0.1-1.6 0.9 2 4.5 4.1 8.9 6.4 13.2 0.3 0.6 1.2 0.5 1.6 0 2.2-3.3 4.4-6.7 6.6-10 2.7 3.5 5.1 7.1 7.4 10.8 0.3 0.5 1.3 0.6 1.6 0 2.3-4.9 4.2-9.9 5.7-15.1 0.2-1.1-1.6-1.6-1.9-0.5z"/>
   <path d="m1130.9 488.3c-0.1 4.9-0.1 9.8-0.2 14.6-4-5.6-9.4-10.3-14.2-15.2-0.6-0.6-1.5-0.1-1.5 0.6-0.1 0.1-0.2 0.3-0.2 0.5-0.1 3.1 0 6.2 0.1 9.3 0.1 1.2 0.9 6.5 0.8 7.6-0.3 0.3-0.5 0.7-0.2 1.2 0 0 0 0.1 0.1 0.1 0.3 0.5 1 0.6 1.4 0.2 1.3-1.3 0-4.8-0.1-6.4-0.3-3.5-0.4-7-0.3-10.5 5 5 10.5 9.9 14.2 15.9 0.5 0.8 1.7 0.5 1.7-0.5 0.1-5.9 0.1-11.7 0.2-17.6 0.1-0.9-1.7-0.9-1.8 0.2z"/>
   <path d="m1318.5 694.4c-2.3 0.3-4.5 0.6-6.8 0.8-3.5 0.3-3-2.8-3.1-5.4-0.1-0.9-0.1-1.8-0.1-2.7 2.9-0.4 5.8-0.8 8.6-1.2 1.2-0.2 0.7-1.9-0.5-1.8-2.7 0.4-5.5 0.8-8.2 1.2-0.1-2.6-0.1-5.2 0-7.8 2.7 0.2 5.3 0.6 7.9 1.1 1.1 0.2 1.6-1.5 0.5-1.8-2.9-0.6-5.8-1-8.7-1.2-0.4 0-0.7 0.2-0.8 0.5-0.4 0.1-0.7 0.4-0.7 0.8-0.1 3.4-0.1 6.7 0.1 10.1 0.1 2.7-0.2 6.3 0.6 8.8 0.3 0.8 0.6 1.4 1.7 1.3 3.4-0.1 6.7-0.4 10.1-0.9 1.1-0.2 0.6-2-0.6-1.8z"/>
   <path d="m1129.4 883.3c-1.5-1.1-3.6-1.7-5.3-2.4-7.2-3.2-1.6-13.1 4.4-8.3 0.9 0.7 2.2-0.6 1.3-1.3-3.9-3.1-11.3-1.7-11.1 4.4 0.1 2.8 1.2 4.6 3.5 6.2 1.5 1.1 3.6 1.6 5.3 2.4 3.4 1.6 2.8 6.8-0.6 7.9-2.4 0.8-5-0.2-6.7-2-0.8-0.9-2.1 0.4-1.3 1.3 4 4.2 11.8 3.5 13.4-2.5 0.7-2.5-1.2-4.4-2.9-5.7z"/>
   <path d="m1082.7 705.4c-22-2.5-43.8-6.1-65.5-10.5-0.6-0.1-0.8 0.8-0.2 0.9 21.7 4.5 43.7 8 65.7 10.6 0.6 0 0.6-0.9 0-1z"/>
   <path d="m1143.6 729.6c-4.4 27.1-9.5 54-15.3 80.8-0.1 0.6 0.8 0.8 0.9 0.2 5.8-26.8 10.9-53.8 15.3-80.8 0.1-0.5-0.8-0.8-0.9-0.2z"/>
   <path d="m1239.1 679.3c-22.7-3-45.2-6.7-67.7-11-0.6-0.1-0.8 0.8-0.2 0.9 22.5 4.4 45.2 8.1 67.9 11.1 0.5 0 0.5-1 0-1z"/>
   <path d="m1115 581c-4.3 21.9-7.5 43.9-9.7 66.1-0.1 0.6 0.9 0.6 0.9 0 2.2-22.1 5.5-44 9.7-65.8 0.1-0.7-0.8-0.9-0.9-0.3z"/>
  </g>
 </g>
</svg>
