<?xml version="1.0" encoding="UTF-8" standalone="no"?>
<!-- Created with Inkscape (http://www.inkscape.org/) -->

<svg
   xmlns:dc="http://purl.org/dc/elements/1.1/"
   xmlns:cc="http://creativecommons.org/ns#"
   xmlns:rdf="http://www.w3.org/1999/02/22-rdf-syntax-ns#"
   xmlns:svg="http://www.w3.org/2000/svg"
   xmlns="http://www.w3.org/2000/svg"
   xmlns:sodipodi="http://sodipodi.sourceforge.net/DTD/sodipodi-0.dtd"
   xmlns:inkscape="http://www.inkscape.org/namespaces/inkscape"
   width="210mm"
   height="244mm"
   viewBox="0 0 210 244"
   version="1.1"
   id="svg183"
   inkscape:version="0.92.3 (2405546, 2018-03-11)"
   sodipodi:docname="iconeTraveln.svg">
  <defs
     id="defs177" />
  <sodipodi:namedview
     id="base"
     pagecolor="#ffffff"
     bordercolor="#666666"
     borderopacity="1.0"
     inkscape:pageopacity="0.0"
     inkscape:pageshadow="2"
     inkscape:zoom="0.35"
     inkscape:cx="400"
     inkscape:cy="560"
     inkscape:document-units="mm"
     inkscape:current-layer="layer1"
     showgrid="false"
     borderlayer="false"
     inkscape:window-width="3066"
     inkscape:window-height="1689"
     inkscape:window-x="134"
     inkscape:window-y="55"
     inkscape:window-maximized="1" />
  <metadata
     id="metadata180">
    <rdf:RDF>
      <cc:Work
         rdf:about="">
        <dc:format>image/svg+xml</dc:format>
        <dc:type
           rdf:resource="http://purl.org/dc/dcmitype/StillImage" />
        <dc:title></dc:title>
      </cc:Work>
    </rdf:RDF>
  </metadata>
  <g
     inkscape:label="Layer 1"
     inkscape:groupmode="layer"
     id="layer1"
     transform="translate(0,-53)">
    <g
       id="g212"
       transform="matrix(2.2051854,0,0,2.2051854,-126.79284,-138.4258)"
       style="fill:#ffffff">
      <path
         inkscape:connector-curvature="0"
         id="path26"
         style="fill:#ffffff;fill-opacity:1;fill-rule:nonzero;stroke:none;stroke-width:0.03527778"
         d="m 147.28331,141.76491 c -2.7425,11.25961 -10.3438,21.92055 -18.13031,30.40556 -11.53725,-15.97307 -35.342693,-54.83718 -2.35409,-59.13014 17.24731,-2.24402 23.91692,14.63252 20.4844,28.72458 z M 78.558317,96.511637 c 14.03738,-1.82633 19.46557,11.909423 16.67192,23.378933 -2.23203,9.16411 -8.41869,17.84068 -14.75599,24.7463 -9.39024,-12.99986 -28.765,-44.63097 -1.91593,-48.125233 z m 50.597153,12.909193 c -12.73422,-0.75282 -21.55896,8.8766 -22.72524,20.81389 -1.52859,15.6531 11.95423,33.35161 21.06542,45.079 0.0914,7.82249 -10.29582,7.56391 -16.51918,7.83449 -11.357673,0.49389 -19.020713,-3.81812 -14.665323,-7.81403 0.94403,-0.50235 1.83938,-1.0802 2.68605,-1.73355 4.015323,-2.83739 1.645003,-7.87612 -2.44299,-9.05968 -3.96451,-1.14794 -7.57061,-1.27247 -11.68223,-0.91405 -1.68945,0.14746 -3.72886,0.51858 -5.38163,0.77752 -2.58057,0.48719 -5.18124,0.78387 -7.80132,0.889 -6.54403,1.01953 -12.49927,-6.05649 -4.86058,-8.48042 5.68608,-2.12619 12.6231,-1.9872 14.33725,-8.71608 0.15592,-0.0748 0.30797,-0.1778 0.45085,-0.32985 8.91328,-9.513 16.81656,-21.57589 17.62019,-34.91018 0.67733,-11.24268 -8.30369,-18.673939 -18.76073,-19.2913 -10.3639,-0.612069 -17.54646,7.22489 -18.49543,16.94074 -1.22273,12.51832 9.34438,26.63366 16.74813,36.17701 -1.97168,8.20949 -24.64689,4.11692 -18.14336,17.72567 1.78329,3.73168 7.62317,3.69182 11.10368,3.76413 4.3254,0.0896 8.93621,-1.11477 13.18295,-1.66793 1.52612,-0.17886 3.05929,-0.18591 4.59458,-0.25153 7.06472,-0.30163 12.025493,3.58634 5.56154,7.03368 -2.70581,1.44322 -3.34293,3.93489 -2.28494,7.15504 1.13418,3.45229 6.82801,4.54978 10.281703,5.11069 5.27121,0.85655 14.49035,0.54152 21.52545,-1.68345 2.43275,-0.76941 5.88891,-4.23475 5.80707,-7.69973 0.066,-0.0547 0.13582,-0.0861 0.19897,-0.15381 10.95163,-11.68858 20.66219,-26.51019 21.64926,-42.89283 0.83221,-13.81337 -10.20233,-22.94432 -23.05014,-23.70244" />
      <path
         inkscape:connector-curvature="0"
         id="path24"
         style="fill:#ffffff;fill-opacity:1;fill-rule:nonzero;stroke:none;stroke-width:0.03527778"
         d="m 71.928917,114.82898 c -0.15699,-4.96536 2.17205,-7.53147 6.6294,-8.26313 4.56106,0.35313 8.33931,2.43805 8.74994,7.64295 0.14111,1.7907 -0.26846,3.61103 -1.01917,5.22675 -1.29364,2.78201 -4.41466,2.67194 -6.99523,2.64513 -4.83729,-0.0494 -7.21395,-2.49238 -7.36494,-7.2517 z m 18.29964,0.59161 c 0.5849,-7.59251 -5.12163,-12.65313 -14.13863,-11.20321 -4.37727,1.06046 -6.85447,4.4475 -7.08484,9.59983 -0.31714,7.08801 3.28719,10.88672 10.28877,11.21022 6.6675,0.30727 10.42035,-2.93264 10.9347,-9.60684" />
      <path
         inkscape:connector-curvature="0"
         id="path28"
         style="fill:#ffffff;fill-opacity:1;fill-rule:nonzero;stroke:none;stroke-width:0.03527778"
         d="m 137.22908,141.76491 c -1.58926,3.41771 -5.42431,3.28295 -8.59472,3.24979 -5.94325,-0.0603 -8.8639,-3.06176 -9.04911,-8.90976 -0.19332,-6.10094 2.66841,-9.25406 8.14529,-10.15259 5.60423,0.43392 10.24608,2.99544 10.75055,9.39059 0.17356,2.19993 -0.3295,4.43689 -1.25201,6.42197 z m -12.53172,-18.69793 c -5.37775,1.30281 -8.42152,5.46453 -8.7048,11.79478 -0.38946,8.70902 4.03896,13.37627 12.6418,13.7735 8.1922,0.37747 12.80336,-3.60328 13.43483,-11.80324 0.71896,-9.32886 -6.2925,-15.54692 -17.37183,-13.76504" />
    </g>
  </g>
</svg>
