<?xml version="1.0" encoding="UTF-8"?>
<!-- Created with Inkscape (http://www.inkscape.org/) -->
<svg width="210mm" height="244mm" version="1.1" viewBox="0 0 210 244" xmlns="http://www.w3.org/2000/svg" xmlns:cc="http://creativecommons.org/ns#" xmlns:dc="http://purl.org/dc/elements/1.1/" xmlns:rdf="http://www.w3.org/1999/02/22-rdf-syntax-ns#">
 <metadata>
  <rdf:RDF>
   <cc:Work rdf:about="">
    <dc:format>image/svg+xml</dc:format>
    <dc:type rdf:resource="http://purl.org/dc/dcmitype/StillImage"/>
    <dc:title/>
   </cc:Work>
  </rdf:RDF>
 </metadata>
 <g transform="translate(0,-53)">
  <g transform="matrix(2.2052 0 0 2.2052 -126.79 -138.43)" fill="#fff">
   <path d="m147.28 141.76c-2.7425 11.26-10.344 21.921-18.13 30.406-11.537-15.973-35.343-54.837-2.3541-59.13 17.247-2.244 23.917 14.633 20.484 28.725zm-68.725-45.253c14.037-1.8263 19.466 11.909 16.672 23.379-2.232 9.1641-8.4187 17.841-14.756 24.746-9.3902-13-28.765-44.631-1.9159-48.125zm50.597 12.909c-12.734-0.75282-21.559 8.8766-22.725 20.814-1.5286 15.653 11.954 33.352 21.065 45.079 0.0914 7.8225-10.296 7.5639-16.519 7.8345-11.358 0.49389-19.021-3.8181-14.665-7.814 0.94403-0.50235 1.8394-1.0802 2.686-1.7336 4.0153-2.8374 1.645-7.8761-2.443-9.0597-3.9645-1.1479-7.5706-1.2725-11.682-0.91405-1.6894 0.14746-3.7289 0.51858-5.3816 0.77752-2.5806 0.48719-5.1812 0.78387-7.8013 0.889-6.544 1.0195-12.499-6.0565-4.8606-8.4804 5.6861-2.1262 12.623-1.9872 14.337-8.7161 0.15592-0.0748 0.30797-0.1778 0.45085-0.32985 8.9133-9.513 16.817-21.576 17.62-34.91 0.67733-11.243-8.3037-18.674-18.761-19.291-10.364-0.61207-17.546 7.2249-18.495 16.941-1.2227 12.518 9.3444 26.634 16.748 36.177-1.9717 8.2095-24.647 4.1169-18.143 17.726 1.7833 3.7317 7.6232 3.6918 11.104 3.7641 4.3254 0.0896 8.9362-1.1148 13.183-1.6679 1.5261-0.17886 3.0593-0.18591 4.5946-0.25153 7.0647-0.30163 12.025 3.5863 5.5615 7.0337-2.7058 1.4432-3.3429 3.9349-2.2849 7.155 1.1342 3.4523 6.828 4.5498 10.282 5.1107 5.2712 0.85655 14.49 0.54152 21.525-1.6834 2.4328-0.76941 5.8889-4.2348 5.8071-7.6997 0.066-0.0547 0.13582-0.0861 0.19897-0.15381 10.952-11.689 20.662-26.51 21.649-42.893 0.83221-13.813-10.202-22.944-23.05-23.702"/>
   <path d="m71.929 114.83c-0.15699-4.9654 2.172-7.5315 6.6294-8.2631 4.5611 0.35313 8.3393 2.438 8.7499 7.643 0.14111 1.7907-0.26846 3.611-1.0192 5.2268-1.2936 2.782-4.4147 2.6719-6.9952 2.6451-4.8373-0.0494-7.214-2.4924-7.3649-7.2517zm18.3 0.59161c0.5849-7.5925-5.1216-12.653-14.139-11.203-4.3773 1.0605-6.8545 4.4475-7.0848 9.5998-0.31714 7.088 3.2872 10.887 10.289 11.21 6.6675 0.30727 10.42-2.9326 10.935-9.6068"/>
   <path d="m137.23 141.76c-1.5893 3.4177-5.4243 3.283-8.5947 3.2498-5.9432-0.0603-8.8639-3.0618-9.0491-8.9098-0.19332-6.1009 2.6684-9.2541 8.1453-10.153 5.6042 0.43392 10.246 2.9954 10.751 9.3906 0.17356 2.1999-0.3295 4.4369-1.252 6.422zm-12.532-18.698c-5.3778 1.3028-8.4215 5.4645-8.7048 11.795-0.38946 8.709 4.039 13.376 12.642 13.774 8.1922 0.37747 12.803-3.6033 13.435-11.803 0.71896-9.3289-6.2925-15.547-17.372-13.765"/>
  </g>
 </g>
</svg>
