<?xml version="1.0" encoding="UTF-8"?>
<!-- Created with Inkscape (http://www.inkscape.org/) -->
<svg width="80.785mm" height="48.92mm" version="1.1" viewBox="0 0 80.785 48.92" xmlns="http://www.w3.org/2000/svg" xmlns:cc="http://creativecommons.org/ns#" xmlns:dc="http://purl.org/dc/elements/1.1/" xmlns:rdf="http://www.w3.org/1999/02/22-rdf-syntax-ns#">
 <metadata>
  <rdf:RDF>
   <cc:Work rdf:about="">
    <dc:format>image/svg+xml</dc:format>
    <dc:type rdf:resource="http://purl.org/dc/dcmitype/StillImage"/>
    <dc:title/>
   </cc:Work>
  </rdf:RDF>
 </metadata>
 <g transform="translate(-63.173 -144.78)" clip-rule="evenodd" fill="#fff" fill-rule="evenodd" stroke-width=".26458">
  <path d="m143.96 147.68c-0.685 0.74798-0.55112 1.7372-2.0786 1.8021-0.24871 1.7539-0.95462 2.5538-1.3854 3.8793-5.3316 2.2741-9.974 4.4138-15.242 6.6519-0.65855-0.96018-2.5538-0.25189-2.7712-1.3856-2.1307 1.3338-3.9732 2.9554-5.6822 4.7117 4.4651 1.678 9.2138 3.0723 9.9772 8.4521-0.0362 0.45191 0.43154 0.40084 0.55483 0.69321-1.2263 7.8478-5.6301 13.661-11.502 17.321-0.53313 0.0765 0.10663 0.53499-0.27675 0.83159-0.61119 0.0135-0.56806-0.46408-0.97049 0-2.1365 1.3507-4.6657 2.5297-7.4824 2.771-4.3921 0.37597-10.074 0.41883-14.965 0-3.4981-0.30003-6.7532-0.8202-9.8385-0.55403-1.6812 0.14446-3.0673 0.75194-4.9887 0.27676-3.5372-0.87445-7.1329-3.266-9.4221-4.9882-0.254-0.42625 0.12409-0.6231-0.13891-0.96997-2.6794-2.377-4.2611-5.421-4.5725-9.8388 0.32941-0.25718 0.29554-0.89456 0.69242-1.3854-0.46249-1.6185 0.31882-2.3154 0.27728-3.4642 0.65485-0.56171 0.8255-1.5163 1.3856-2.2172 0.36618-0.45853 0.52096-0.39106 0.83158-0.83159 0.45852-0.65087 0.78264-0.61939 1.5245-1.2472 1.1459-0.9705 1.8224-1.4417 3.6026-2.3558 1.992-1.0232 4.4807-2.1728 6.3743-2.7712 1.5856-0.50165 3.7981-0.37968 5.8198-0.55404 6.7744-0.58499 14.736-1.384 20.923-0.41566 0.50668-0.50985 0.82312-1.2097 0.9697-2.0786 2.6585-3.6245 7.1533-5.4107 11.363-7.4824 0.1307-1.0239 0.67045-1.6388 1.2472-2.218 1.1094-0.27596 2.0651-0.70512 3.0483-1.1081 4.3603-0.79692 8.2262-2.7718 12.471-3.6023 1.4277-0.27993 2.7763-1.2856 3.7417-0.5551h1.5248c0.57362 0.30375 0.8689 0.88583 1.524 1.1089 1.6828-0.76702 3.2216-0.21828 3.4637 1.5237zm-24.25 3.7417c1.3933 1.0374 5.0662 0.52334 5.8203 2.0786 0.38576 0.79613-0.2458 2.4574-0.4154 3.1869-0.25797-0.37439 0.0601 0.2921 0.13811 0.41566-1.0811 0.15028-1.3734 0.53657-1.9404 0.9697 0.72469 0.0587 1.306 0.36539 2.2177 0.55483 4.4635-2.3725 8.717-4.9551 13.857-6.6519 0.47599-0.46831 0.7202-0.54637 1.2464-1.1081 0.5932-3.9603-2.7043-5.6795-7.3443-4.4347-0.29369 0.21432-0.61701 0.39926-0.9697 0.55483-1.1758-0.13758-1.515 0.39556-2.3553 0.69242-2.5085 0.88635-6.118 2.123-8.8688 2.9102-1.1118 0.31882-1.9923 0.66966-2.4937 1.2472 0.48868-0.0196 0.61939-0.39688 1.1081-0.41566zm21.339-4.1574c0.0474 0.60007 0.67522 0.61859 0.55483 1.3862 0.66755-0.118 1.1279-0.44291 1.2472-1.1089-0.22331-0.77973-1.1946-0.53525-1.8021-0.27728zm-20.924 5.2663c-0.98055-0.0278-1.9865 0.40217-2.0788 0.8308-0.18257-2e-3 -0.12621-0.24289-0.27649-0.27676-4.4365 2.4987-10.276 4.3106-11.917 9.1453 2.8062 0.45853 4.9789 0.27676 7.3443 0.55404 1.2705-4.8263 5.8962-6.2976 9.9769-8.314 0.52916-0.1233 0.88476 0.22622 1.1089 0-0.39873-1.5539-3.2726-0.87207-4.1574-1.9394zm3.4642 3.0485c-4.522 1.2285-8.1214 3.3936-9.4229 7.4824 0.39925 0.0167 0.90752-0.0759 1.1089 0.13811 1.9492-3.316 4.8294-5.7015 9.0072-6.7892-0.18151-0.5752 0.32332-1.7042-0.13918-1.6629 2e-3 0.46302-0.35057 0.57282-0.55403 0.83158zm2.3561 16.766c-0.2151-1.6748-0.57679-2.1426-1.5248-3.325-0.96679-1.2068-1.7751-1.8606-3.4642-2.7718-1.76-0.9488-2.2246-1.1472-4.0185-1.2472-1.582-0.0881-3.1448-0.83767-4.8498-1.1081-4.9265-0.78264-10.347-0.36381-14.411-1.2472-7e-3 -0.0849-0.0204-0.16378-0.13811-0.13811-3.1628 0.81174-6.4947 0.24871-9.9769 0.55403-7.2088 1.6224-15.397 2.2741-19.954 7.0668-0.67733 2.7223-0.96229 4.5813-0.13837 7.8983 0.25479-1.9185-0.99775-6.2188 1.2464-7.4824 0.40163 0.61198-0.29978 0.95382-0.41566 1.6629-0.20453 1.2636 0.18573 2.7366 0.13917 4.7114 0.76544-0.0661 0.95858-0.70352 1.3856-1.1086-0.30295-1.5282-0.94059-4.7673 0.83159-5.2655-0.1069 1.8796-0.55113 3.8267 0 4.9887 0.36671-0.41883 0.96229-0.60827 1.3854-0.97049-4e-3 -1.5711-0.35269-3.4711 0.55404-4.7109 0.96917 0.32491 0.14367 1.1956 0.13917 1.6621-8e-3 0.81413 0.38629 1.6224 0.27649 2.4945 0.52864-0.11774 0.83291-0.45984 1.3864-0.55403 0.0542-1.5367-0.14208-3.3012 0.41566-4.0185 1.2292 0.49556 0.18574 2.6982 0.41487 3.6026 6.0023-2.3537 14.171-3.683 22.032-3.8798 2.6337-0.0661 6.0304 0.60828 8.037 0.83159 0.97579 0.10821 2.087-0.0654 3.0483 0.13811 6.5135 1.3835 12.775 2.8967 15.104 7.2057 1.4668-1.0271 2.118-2.871 2.4948-4.989zm-4.1574 4.8506c-0.33178-1.0546-1.4542-1.3176-1.9397-2.2177-3.5531-1.6703-7.5742-2.8554-11.363-3.325-0.61119-0.53472-1.4989-0.71199-2.3551-0.83159-0.86175-0.12038-1.7314 0.21934-2.4945 0.13812-0.65934-0.0701-1.1827-0.6051-1.8016-0.69242-1.2218-0.17356-2.4977 0.29925-4.018 0.27676-0.92604-0.0135-1.8584-0.38577-2.9102-0.41566-0.54504 0.67442-1.3637 0.2487-2.217 0.1389-9.8679 1.139-19.994 2.6667-25.497 9.5615 0.59848 0.85169 1.542 1.407 2.6329 1.6621 1.6899 0.39529 3.8656 1.1224 5.4038 1.3862 1.4742 0.25242 3.1004-0.0151 4.7114 0.27676 2.1831 0.39529 4.8617 0.61939 7.2057 0.55483 12.976-0.3593 28.566 1.3359 35.75-6.0978-0.57785 0.0709-0.70061-0.31486-1.1078-0.41487zm-55.289-5.1271c0.2712-0.16245 0.28866-1.0308 0.13891-0.83158-0.0323 0.35718-0.7149 0.66622-0.13891 0.83158zm0.41566 7.2049c-0.41116-1.7161-0.59399-4.01-0.83158-6.097-0.17648 2.0397-0.32173 4.377 0.83158 6.097zm43.511 4.7117c-2.1418 0.23734-4.4371 0.50192-6.79 0.55404-1.2158 0.0278-2.181 0.32253-3.1866 0.41566-2.84 0.26459-5.9187-0.52784-9.0069 0.13891-3.2425-0.17886-6.1391-0.4572-10.67-0.27728-1.1512 1.7936-2.9223 2.8567-3.0485 5.1271 3.7341 1.3351 8.6342 1.0681 12.749 1.524 0.0325-0.79851 0.67072-0.99166 0.55404-1.9397 0.9517-0.57282 0.40666-2.6416 1.8013-2.7712 0.16828 1.7034-1.8291 3.5147-1.2472 4.7109 5.8767 0.76465 11.859-0.0249 17.321-0.5543 5.1218-2.1426 10.163-4.1775 13.441-8.1754 1.3253-1.6163 1.8042-3.7981 3.0483-5.5422-0.0217-0.16298 0.0241-0.3937-0.13812-0.41566-3.8664 3.6505-8.4336 6.496-14.827 7.2051zm-42.54-2.4945c-1.5682-0.6014-2.0349-2.0661-3.1874-2.7712 0.0947 2.544 0.86148 4.7236 2.7718 6.0971 0.30215-1.0377 0.76623-1.9127 1.2464-2.7712-0.43604 0.0669-0.31353-0.42545-0.83079-0.27755 0.0926 0.53605 0 0.49318 0.13837 0.83159-0.68791-0.22569-0.44212 0.4818-0.96996 0.41566-0.56356-0.85223 0.57071-1.0493 0.83159-1.5243zm0.96996 1.3862c-0.0437 1.157-0.31274 2.0892-1.2472 2.3553 0.9488 0.66727 1.4171 1.8161 2.4945 2.355 1.015-1.4457 1.0224-2.7371 2.217-4.2947-0.51515-0.0865-0.63447-0.5678-1.3856-0.41567-0.66913 0.94642-1.1644 2.0018-1.3864 3.0483h-0.69242c0.30375-0.32094-0.3556-0.45932-0.13917-1.1086 0.78873-0.64585 0.81942-1.4129 1.5248-2.2172-0.26406-0.0595-0.3482-0.29845-0.69321-0.27729-0.0172 0.39873-0.17277 0.65855-0.69215 0.55483zm5.2652 6.6511c1.0692-2.0315 1.9555-3.3967 3.3258-5.1271-0.69003-0.2151-0.99457 3e-3 -1.8021-0.13837-0.88635 1.4608-2.0817 2.79-2.3553 4.7117h-0.69321c0.1016-0.37836-0.27516-0.27914-0.27649-0.5551 0.69983-1.2682 1.3862-2.7882 2.3553-4.1566-0.84957 0.0646-1.2729-0.29766-1.8013-0.55404-0.63897 0.94271-0.82153 2.054-1.5237 2.6326-0.0873 0.67522-0.1106 1.2518-0.27729 1.9397 1.1554 0.27676 1.6486 1.2158 3.0483 1.2472zm4.4342-5.1271c-0.99616 1.3832-3.7071 3.5354-3.1869 5.5428 0.51356-0.0984 0.59479 0.2368 1.1081 0.13811 0.47889-1.923 2.0124-3.8664 3.1874-5.5428-0.39899-0.0164-0.90725 0.0762-1.1086-0.13812z"/>
  <path d="m118.6 164.72c-0.0228 0.16167 0.0307 0.2466 0.13812 0.27755-0.12409 0.52255-0.3347 0.95832-0.83159 1.1086-4e-3 -0.13521-0.16933-0.10742-0.27675-0.13891 0.0182-0.71993 0.23124-1.2472 0.97022-1.2472z"/>
  <path d="m119.15 165c0.2241-0.0392 0.23892 0.13071 0.41566 0.13812 0.0857 1.0554 0.0257 1.9661-0.83158 2.0786-0.0534-0.93027-0.0254-1.7806 0.41592-2.2167z"/>
  <path d="m83.82 166.38c-0.52625-0.0278-0.47969-0.62839-0.69321-0.9697 0.60802-0.66384 1.0803 0.28919 0.69321 0.9697z"/>
  <path d="m81.464 165.42c0.80301 0.69294 0.58631 1.248 0.83158 2.6326-0.42624-0.10319-0.26617 0.38047-0.69241 0.27755-0.44582-0.84667-0.48789-2.2924-0.13917-2.9102z"/>
  <path d="m120.68 165.69c0.39158-0.1151 0.35851 0.19473 0.69215 0.13837 0.12938 0.7673 0.53843 2.7861-0.55404 2.771-0.25453-0.91016-0.15531-2.0664-0.13811-2.9094z"/>
  <path d="m79.801 165.83h0.41566c0.72761 0.89085-0.0632 1.5997 0.55483 2.4945-0.31803 0.1442-0.28707 0.63659-0.83158 0.55404-0.17489-1.0684-0.3773-2.2667-0.13891-3.0485z"/>
  <path d="m122.2 166.38h0.41566c0.3421 1.0729 0.16404 1.1721 0.27755 2.3561-0.2593 0.11033-0.50748 0.23151-0.83159 0.27649-0.23521-0.80883-0.1569-1.9553 0.13838-2.6326z"/>
  <path d="m124.42 166.94h0.55483c0.16854 0.75512 0.45482 2.7403-0.41566 2.9094-0.68633-0.73131-0.0447-2.0529-0.13917-2.9094z"/>
  <path d="m126.08 169.71h0.55404c-0.13467 0.821 0.24871 1.9838-0.55404 2.7712-0.66093-0.65563-0.0331-1.9397 0-2.7712z"/>
  <path d="m93.797 172.62c-2.3011 0.33152-3.2732 1.9928-5.1271 2.7712-0.0685 0.43524 0.47731 0.36618 0.13812 0.69294-0.4908 0.25929-1.0007 0.0815-1.2472-0.27728 0.12039-0.80381 0.71279-1.1353 1.3856-1.3856 1.1269-0.86518 3.4854-3.3867 4.8506-1.8013z"/>
  <path d="m96.29 173.73c-1.0268 0.95911-2.453 1.5192-3.4642 2.4945 0.0127 0.51805 0.15557 0.39449 0 0.83158h-1.2472c0.0849-1.9841 2.6906-2.5495 4.019-3.7417 0.28787 0.0812 0.44794 0.29184 0.69242 0.41567z"/>
  <path d="m99.201 175.11c-0.6768 0.84799-1.8074 1.2412-2.6329 1.9404-0.59531-1.0197 1.2578-2.45 2.6329-1.9404z"/>
  <path d="m86.868 183.43c-0.2204 0.98425-1.1607 1.8185-0.97049 2.7712-1.9719 0.32755-0.33999-2.7162 0.97049-2.7712z"/>
  <path d="m89.639 184.26c0.29766 0.75697-0.10821 0.5633-0.13811 1.3864-0.30824 0.10742-0.54054 0.29104-0.96996 0.27649-0.30004-0.97552 0.28786-1.4441 1.1081-1.6629z"/>
  <path d="m91.718 184.54c-0.10134 0.69374-0.75539 0.76147-1.1089 0.55404 0.0513-0.68051 0.56621-0.68342 1.1089-0.55404z"/>
  <path d="m92.688 170.26c-3.153 1.651-6.6323 2.9758-8.4524 5.9587-1.0075 0.0759-0.68024-1.306 0.13838-1.2472 1.7005-2.5487 5.1062-4.1317 8.314-4.7114z"/>
 </g>
</svg>
