<?xml version="1.0" encoding="UTF-8"?>
<!-- Created with Inkscape (http://www.inkscape.org/) -->
<svg width="163.88mm" height="69.525mm" version="1.1" viewBox="0 0 163.88 69.525" xmlns="http://www.w3.org/2000/svg" xmlns:cc="http://creativecommons.org/ns#" xmlns:dc="http://purl.org/dc/elements/1.1/" xmlns:rdf="http://www.w3.org/1999/02/22-rdf-syntax-ns#">
 <metadata>
  <rdf:RDF>
   <cc:Work rdf:about="">
    <dc:format>image/svg+xml</dc:format>
    <dc:type rdf:resource="http://purl.org/dc/dcmitype/StillImage"/>
    <dc:title/>
   </cc:Work>
  </rdf:RDF>
 </metadata>
 <g transform="translate(-17.088 -115.58)">
  <g transform="matrix(.26458 0 0 .26458 -179.48 39.136)" fill="#414042">
   <path d="m1361.7 414.98c-0.656-14.238-1.536-28.479-2.85-42.717-0.875-7.449-1.531-15.117-2.626-22.785-1.098-7.23-1.098-17.086-6.354-22.566-0.438-0.656-1.095-1.094-1.751-1.532-1.755-1.97-4.166-3.725-6.354-4.162-11.611-2.412-23.879-3.287-35.709-3.068-6.133 0-12.487 0.438-18.619 1.536-3.287 0.875-6.354 1.532-9.423 2.849-4.158 1.97-7.007 3.721-8.762 8.105-0.438 1.313-0.438 2.845-0.219 4.377-0.438 3.068-0.876 6.136-1.095 9.422-1.094-0.438-2.411-0.657-3.505-1.098-2.193-0.657-4.163-1.313-6.133-2.188-2.192-0.657-3.067-1.094-5.697-2.408-8.106-4.166-15.993-8.324-24.099-12.49-16.648-8.981-33.954-16.868-51.697-23.438-17.747-6.792-36.146-10.955-54.988-13.144-19.936-2.192-40.309 0.657-59.584 6.351-0.876 0.219-1.755 0.657-2.63 0.875-1.532-0.657-3.068-1.094-4.601-0.875-8.543 0.875-15.336 5.913-21.249 11.83-7.448-3.287-14.022-7.887-21.909-10.075-9.856-2.63-20.154-3.068-30.229-1.755-18.399 1.974-36.366 5.913-53.671 12.706-16.868 6.573-33.079 14.898-49.071 23.879-3.725 2.188-7.668 4.162-11.611 6.136-1.97 0.875-3.725 1.751-5.698 2.626-0.219 0-1.313 0.438-1.751 0.657-1.094 0.438-2.188 0.875-3.283 1.313-8.766 3.291-18.185 5.042-26.728 8.766-0.438 0.219-1.099 0.657-1.536 0.875-0.438-2.412-1.313-4.819-2.188-7.011-0.219-0.875-0.656-1.532-1.095-2.189-0.438-1.536-1.535-3.068-2.849-4.162-2.63-2.192-5.694-3.943-9.2-4.823-7.448-1.313-14.46-0.875-21.905 0.219-5.041 0.66-10.298 1.754-15.336 2.849-2.192 0.66-4.385 1.098-6.573 1.536-1.095 0-2.188 0.219-3.287 0.438-0.438 0-4.6 0.657-2.411 0.438-4.377 0.438-7.883 1.313-11.826 3.287-1.536 0.657-2.849 1.97-3.506 3.506h-0.219c-4.162 5.256-4.381 11.607-4.381 17.962 0 7.011-0.219 14.241-0.438 21.249-0.219 9.86-0.219 19.936 0.219 29.792 0.438 10.079 1.751 19.936 2.845 30.015 1.099 9.856 1.536 19.932 1.536 29.792 0 7.667-1.316 15.335-1.316 22.781-0.22 6.792 1.316 14.241 5.479 19.939 5.257 7.007 12.487 10.513 20.812 12.702 8.324 2.411 17.087 2.63 25.63 1.755 4.6-0.438 9.423-0.875 13.8-2.412 1.317-0.438 2.849-1.094 4.166-1.751 0.875-0.438 1.095-0.438 0.875-0.438 0.22 0 0.22-0.219 0.438-0.219 1.531-0.657 3.063-1.313 4.6-1.974 1.532 0.441 3.287 0.223 4.6-0.657 4.819-3.068 6.574-8.543 7.449-14.019 4.162 2.407 8.324 4.6 12.706 6.792 9.199 4.377 18.403 8.543 27.822 12.483 17.086 7.011 34.829 12.709 53.015 15.773 19.06 3.287 38.116 4.823 57.396 5.042 18.618 0.219 37.46-0.879 55.641-3.947 20.814-3.502 41.403-8.981 60.683-17.962 4.381-2.188 8.543-4.381 12.705-7.011 1.317 0.657 2.85 1.098 4.385 1.317 2.408 0.219 4.378 0.438 5.476 0.657 4.819 0.875 10.075 0.438 14.895 0.657 8.105 0.219 16.211 0.657 24.316-0.438 15.555-1.754 29.796-7.23 43.377-14.894 12.268-6.573 23.66-14.46 35.271-21.69 0.656-0.438 1.313-0.875 1.97-1.094-1.313 0.657 1.532-0.657 1.532-0.657 0.656-0.219 1.316-0.438 1.974-0.438-0.219 0 2.192-0.438 1.751-0.438 3.725-0.441 7.229-0.219 10.735 0 3.725 0.438 7.23 0.657 10.951 0.438 1.098 0 2.411 0 3.729-0.219 0.438 2.626 1.531 4.819 3.282 6.569v3.287c0.438 10.075 10.079 15.335 18.623 17.962 8.105 2.411 17.306 3.068 25.63 2.411 4.6-0.219 9.203-0.875 13.8-1.754 4.604-0.875 9.423-1.751 12.928-5.038 0.876-0.875 1.751-1.97 2.188-3.068 1.095-0.219 1.974-0.657 2.631-1.095 7.887-6.132 7.227-15.554 7.449-24.535 0-7.012 0.656-14.019 0.875-21.03 0.652-14.891 0.434-29.789-0.223-44.687zm-554.24 43.814c-1.754-2.63-5.041-3.943-7.887-5.475-3.286-1.536-6.792-3.068-10.298-4.604-7.011-3.064-14.019-6.132-21.029-9.638-0.438-0.438-1.095-0.438-1.532-0.219-0.441-4.381-0.88-8.981-1.317-13.143-0.875-10.08-0.875-19.936-1.094-30.011-0.22-4.604-0.22-9.422-0.22-14.241-0.219-3.943 0-8.106-0.438-12.049-0.223-1.973-0.441-3.943-0.879-5.694v-0.438-0.438c3.067 0 6.136-0.661 9.203-1.098 2.85-0.438 5.694-0.875 8.325-1.532 4.162-0.879 8.324-1.974 12.486-3.068 2.626-0.438 5.257-0.875 7.668-1.313 0.656-0.219 2.845-0.438 3.283-0.657 0.879 0 1.755 0 2.63-0.219 1.974-0.219 3.725-0.219 5.694-0.219 0 4.815 0.219 9.419 0.219 14.238 0.219 7.449 0.441 15.113 0.66 22.562 0.438 14.898 0.438 29.577 0.438 44.252 0 14.679 0 29.354-0.22 44.034v0.875c-0.879-0.438-1.535-0.657-2.411-0.875-5.256-1.97-10.294-3.943-15.555-5.917-8.762-3.721-17.524-7.887-26.067-11.827-0.438-6.136-1.095-12.271-1.751-18.403 6.351 3.068 12.925 6.132 19.494 9.204 3.287 1.751 6.793 3.283 10.079 5.034 2.85 1.317 6.132 3.291 9.2 3.291 1.096 0 1.976-1.317 1.319-2.412zm1.532 52.14c1.751-0.438-2.63 0.219-3.286 0.438-2.192 0.438-4.162 0.875-6.133 1.313h-0.66s-0.438 0-0.656 0.219c-1.313 0-2.63 0.219-4.162 0.219-1.97 0.219-3.943 0-5.913 0-1.099 0-2.192 0-3.068-0.219-0.219 0-1.97-0.219-1.97-0.219-1.755-0.219-3.51-0.438-5.041-0.875-0.876-0.219-1.751-0.657-2.846-0.875-0.438-0.219-1.098-0.438-1.536-0.657-0.656-0.219-1.313-0.66-1.97-1.098-0.223 0-0.66-0.219-0.879-0.438-0.438-0.438-1.095-1.313-1.532-1.532-0.219-0.66-0.656-1.536-0.875-1.754-0.219-0.875-0.438-1.532-0.438-2.189 0.22 1.094-0.219-2.411-0.219-3.068v-4.381c0.219-2.63 0.438-5.038 0.657-7.449 5.476 3.287 10.95 6.574 16.648 9.419 5.257 2.849 10.514 5.479 15.773 8.105 2.627 1.094 5.257 2.411 8.105 3.506 0.657 0.438 1.313 0.66 2.188 1.098-0.873 0.218-1.529 0.218-2.187 0.437zm3.065-6.793c-2.626-1.313-5.257-2.411-7.887-3.725-5.476-2.63-10.732-5.038-15.988-7.667-6.574-3.287-12.925-6.57-19.061-10.298 0.438-5.034 0.438-10.075 0.219-15.113 7.668 4.381 15.555 8.105 23.66 11.611 5.038 2.188 10.075 4.381 15.117 6.132 1.532 0.66 3.283 1.317 5.037 1.974 0.22 4.6 0.22 9.2 0.438 13.8 0.219 1.317 0.219 2.63 0.219 4.162-0.657-0.438-1.094-0.657-1.754-0.876zm310.42-24.097c-0.219 1.313-0.656 2.407-1.094 3.725-0.219 0.656-0.438 1.313-0.438 2.192-0.657 1.094-1.313 1.97-1.97 3.064-0.438 0.875-1.099 1.755-1.755 2.63-0.219 0.438-0.657 0.875-0.876 1.313-1.754 1.755-3.725 3.505-5.694 5.256-0.438 0.219-0.879 0.657-1.316 0.879-1.095 0.875-2.192 1.532-3.287 2.188-2.188 1.755-4.818 3.068-7.449 4.6-0.875 0.438-1.751 0.875-2.845 1.317-3.287 0.657-6.573 0.438-9.856 0.438-4.604-0.219-9.204-0.438-13.585-0.438-10.951-0.223-21.687 0.219-32.642-0.879-10.513-1.313-21.029-2.626-31.766-3.502-5.037-0.438-10.075-1.098-15.112-1.755-0.88 0-1.755-0.219-2.85-0.438-3.286-1.974-7.229-3.287-10.513-4.819-5.261-2.412-10.298-4.819-15.336-7.23-9.642-5.038-19.279-10.513-28.479-16.648-1.974-1.532-3.943 1.97-1.974 3.287 8.98 6.789 17.962 12.706 27.604 17.962 4.6 2.63 9.199 5.038 13.8 7.23-1.313 0.875-1.532 3.068 0.219 4.163 3.943 3.068 9.203 4.162 14.022 5.256 5.257 1.098 10.95 1.536 16.211 2.192 11.17 1.094 22.124 2.189 33.079 3.287 11.17 1.313 22.343 0.875 33.735 0.656h0.875c-7.011 2.189-14.019 3.943-21.248 5.694-4.601 1.094-9.2 1.974-13.8 2.849-0.876 0-1.755 0.219-2.85 0.438-0.438 0-0.875 0.219-1.313 0.219h-0.219-0.219c-4.6 0.656-9.422 1.094-14.022 1.536-16.211 1.532-32.641 1.751-48.853 1.094-8.105-0.438-16.211-1.094-24.316-1.974-0.875-0.219-1.532-0.219-2.407-0.438h-0.219c-0.219 0-0.661 0-0.88-0.219-2.188-0.219-4.377-0.438-6.569-0.875-4.381-0.657-8.763-1.536-13.144-2.412-15.992-2.845-31.766-7.449-47.32-12.486-8.105-2.849-15.992-5.913-23.879-8.981-3.943-1.536-7.887-2.849-11.83-3.943-1.97-0.438-3.725-0.875-5.476-1.094 0-4.822-0.219-9.638-0.219-14.46v-8.325c10.732 7.887 21.687 15.555 32.86 22.785 6.792 4.6 13.581 8.762 20.592 12.924 6.574 3.943 13.8 9.2 21.249 10.517 1.532 0.438 2.63-1.317 1.532-2.63-4.815-5.475-12.264-8.981-18.619-12.705-6.792-4.163-13.8-8.543-20.592-12.706-12.486-7.668-24.755-15.773-37.022-23.879v-17.966c6.573 4.604 13.144 9.204 19.717 13.804 8.981 6.354 17.743 12.924 26.506 19.494 8.766 6.574 17.528 13.147 26.29 19.939 4.381 3.283 8.762 6.789 13.144 10.075 4.381 3.068 8.762 7.23 14.019 8.981 1.755 0.656 3.506-1.532 2.411-3.068-2.849-4.163-7.449-7.227-11.611-10.513-4.162-3.287-8.543-6.574-12.705-9.86-8.763-6.57-17.524-13.362-26.291-19.932-8.762-6.573-17.743-12.928-26.724-19.06-7.887-5.475-16.211-10.955-24.755-15.335v-7.668-8.543c1.313 0.875 2.408 1.755 3.725 2.412 4.162 2.407 8.981 5.694 13.8 6.132 0.876 0.219 1.755-1.094 1.095-1.97-2.846-3.506-7.664-5.476-11.607-7.668-2.411-1.317-4.823-2.63-7.012-4.162-0.219-8.105-0.656-16.211-1.094-24.317 1.97 1.532 3.943 3.068 6.132 4.381 1.974 1.313 4.381 3.068 6.792 2.849 0.876-0.219 1.313-1.094 0.657-1.973-1.313-1.751-3.943-2.63-5.914-3.725-1.973-1.313-4.165-2.845-6.136-4.162-0.656-0.438-1.094-0.438-1.531 0-0.219-1.095-0.219-2.408-0.219-3.506-0.438-7.007-1.095-14.238-1.974-21.249 7.448 2.193 16.867 0.219 23.66-1.532 9.199-2.192 18.185-5.694 26.728-9.86 8.105-4.159 15.992-8.762 24.098-12.924 7.664-4.162 15.332-7.887 23.219-11.393 0.219 0 0.438-0.219 0.657-0.219h0.219c1.098-0.438 1.974-0.875 2.849-1.313 1.97-0.657 3.943-1.532 5.694-2.189 4.162-1.536 8.547-3.068 12.705-4.385 8.544-2.626 17.31-4.377 26.072-5.913 2.188-0.438 4.381-0.875 6.569-1.094 0.799-0.199 1.605-0.398 2.565-0.601 0.287-0.025 2.091-0.279 2.257-0.279 4.819-0.438 9.856-0.438 14.895-0.219 1.098 0 2.192 0 3.287 0.219-1.97-0.219 1.751 0.219 1.751 0.219 1.098 0.223 2.192 0.661 3.505 0.879 0.223 0 3.068 0.438 3.725 0.438 1.532 0.219 3.287 0.657 4.823 0.875-5.261 5.038-10.736 10.079-15.993 14.898-7.667 7.008-14.679 14.675-21.689 22.125-3.283 3.725-7.012 7.23-10.295 11.173-1.313 1.532-3.286 3.725-4.604 6.132-3.721 1.098-7.227 2.411-10.951 3.505-3.286 0.879-6.354 1.755-9.638 2.411-1.754 0.219-3.724 0.657-5.479 1.313-2.188 0.657-3.943 0.438-6.132 0.219-1.974-0.219-2.412 2.849-0.442 3.287 0.661 1.536 1.974 2.412 3.51 3.068 2.407 0.875 4.819 1.97 7.445 2.846 5.038 1.536 9.86 2.849 14.897 3.947 4.601 1.094 9.2 1.532 14.02 1.751 3.943 3.943 9.199 6.574 14.46 8.105 15.773 4.819 31.984 0.438 46.222-7.011h1.755c4.819 0 9.638-0.219 14.238-0.438 8.98-0.219 18.185 0.219 27.165 1.313 7.449 0.875 16.649 2.849 23.66 6.136 0.438 0.219 1.095 0.438 1.532 0.657 0.438 0.875 0.876 1.97 1.313 2.849 0 0.219 0.219 0.438 0.219 0.657 0.219 0.656 0.656 1.313 0.875 2.192 0.438 0.875 0.88 1.751 1.536 2.626 0.438 1.094 0.876 1.97 1.313 3.068 0.219 0.219 0.219 0.438 0.219 0.656 0.438 1.094 0.879 1.974 1.316 3.068-1.316-2.849 0.22 0.657 0.438 1.313 0.438 0.875 0.656 1.751 1.094 2.63-4.6 0.438-9.199 0.875-13.804 1.095-9.856 0.438-19.932 0.656-30.011 0.875-10.075 0.219-20.154 0.438-30.229 0.438h-14.68c-4.6 0-10.294-0.219-14.675 1.974-1.974 1.094-1.755 4.162 0 5.256 3.725 2.192 9.2 2.192 13.581 2.192 5.256 0 10.513 0 15.773-0.219 10.075-0.219 20.154-0.879 30.229-1.317 10.079-0.657 20.154-0.875 30.011-1.532 5.042-0.219 10.079-0.438 15.117-1.317h1.095c0.219 0.438 0.219 1.098 0.438 1.755 2.411 8.105 4.166 16.43 5.479 24.754-3.506 0-7.012 0.657-10.736 1.094-4.6 0.661-9.2 1.974-13.8 3.068-1.532 0.438-3.287 0.657-5.037 1.094h-0.442c-1.094 0-2.407 0.219-3.501 0.219-1.974 0.219-3.943 0.219-5.917 0.438-15.336 0.879-30.668 1.098-45.785-0.657-7.448-0.875-15.112-2.188-22.562-3.501-7.668-1.317-15.773-3.729-23.441-2.193-2.63 0.657-2.63 4.163-0.656 5.257 5.913 3.943 13.361 5.042 20.373 6.354 7.445 1.532 14.895 2.626 22.562 3.721 15.117 2.192 30.672 2.412 45.789 1.317 5.694-0.219 11.607-0.438 17.305-1.536 4.163-0.657 8.325-1.751 12.487-2.845 4.381-0.875 8.98-1.97 13.581-2.63h1.094v0.219c0.219 2.63 0.657 5.475 0.657 8.324 0 0.445-0.217 2.853-0.217 2.853zm44.69 20.592c-1.094 0.219-1.97 0.438-3.067 0.656h-0.438-0.438c-8.105 1.098-16.211 0.879-24.316 1.536h-4.381c1.316-2.192 2.63-4.823 3.286-7.23 2.192-2.63 3.725-5.698 4.819-8.981 5.037 2.408 9.86 4.6 14.897 7.011 3.287 1.532 6.57 3.064 10.079 4.377 1.313 0.657 2.627 1.317 4.159 1.536-1.531 0.438-3.064 0.876-4.6 1.095zm21.687-7.668c-1.313 0.879-2.845 1.536-4.377 2.192-0.219 0-1.317 0.657-1.536 0.657-0.656 0.219-1.313 0.438-1.751 0.656-1.316 0.438-2.411 0.875-3.506 1.313-1.97-2.408-5.26-3.502-8.105-4.819-3.286-1.532-6.792-2.849-10.294-4.381-5.261-2.188-10.298-4.381-15.336-6.354 0.876-5.038 1.095-10.294 0.876-14.894 8.762 3.725 17.086 8.105 25.63 12.487 5.26 2.626 10.735 5.038 16.211 7.449 2.188 1.094 4.819 2.188 7.23 3.064-1.533 0.879-3.287 1.973-5.042 2.63zm26.29-14.894c-4.818 2.626-9.637 5.694-14.456 8.543-3.947-1.973-8.324-3.287-12.053-4.822-5.476-2.408-10.951-5.038-16.211-7.449-9.419-4.377-18.619-8.543-28.037-12.483-0.657-8.762-2.193-17.528-4.604-26.071 11.396 7.449 22.785 14.46 34.834 20.811 8.105 4.385 16.648 8.325 25.192 11.83 4.381 1.974 8.766 3.725 13.362 5.256 2.192 0.657 4.604 1.317 6.792 1.974-1.532 0.875-3.064 1.754-4.819 2.411zm21.03-9.204c-3.506 0.879-6.792 2.192-10.075 3.724-3.068-1.97-6.792-3.064-10.298-4.381-4.162-1.532-8.324-3.068-12.268-4.819-8.981-3.506-17.524-7.668-25.85-12.049-13.584-7.011-26.946-14.675-39.871-23-1.751-5.917-3.943-12.271-6.573-17.966 0.219-1.094 0-2.192-0.219-3.287 1.098 0.219 2.192 0.438 3.506 0.656 0 0.438 0.223 0.875 0.66 1.317 18.618 17.743 42.717 27.162 66.157 37.022 12.046 5.038 23 11.17 34.393 17.306 3.067 1.532 5.917 3.068 8.981 4.381-2.845 0.221-5.693 0.439-8.543 1.096zm30.015 0.222c-3.286-0.879-6.573-1.973-9.641-3.071-6.352-2.408-12.487-5.694-18.4-8.762-10.954-5.913-21.69-11.826-33.302-16.43-21.468-8.981-45.124-16.868-63.09-32.204 0.876 0.219 1.974 0.219 2.85 0.442 3.943 0.438 8.105-0.661 11.83-1.755 3.505-1.094 5.256-6.132 2.188-8.762-3.506-3.064-7.008-5.913-11.611-7.23-4.381-1.532-8.763-3.064-13.144-4.6-8.324-2.849-16.648-5.476-24.973-8.324-8.325-2.849-16.649-5.476-24.974-8.325-8.763-3.287-17.747-8.105-27.166-7.668-8.98 0.219-16.648 4.6-23.879 9.204-3.502 2.407-7.227 4.6-10.951 6.789-1.974 1.098-3.943 1.974-5.917 3.068-0.438 0-0.656 0.219-0.656 0.219-0.219 0-0.438 0.219-0.438 0.219-1.095 0.438-2.188 0.657-3.068 1.094-1.751 0.657-3.505 1.095-5.256 1.313-0.219 0.223-1.751 0.441-2.189 0.441-0.66 0-1.316 0.219-2.192 0.219-1.754 0-3.505 0-5.037-0.219-0.219 0-1.532 0-1.974-0.219h-0.656c0-0.223 0-0.223-0.22-0.223-1.751-1.094-3.943-1.532-6.132-1.532-0.219-0.219-0.656-0.219-0.656-0.438-0.441-0.219-0.879-0.438-1.317-0.657 0-0.657 0-1.313-0.219-1.97 3.725-2.412 7.012-5.26 10.517-8.105 7.449-6.355 14.895-12.928 22.563-19.279 7.887-6.792 15.555-13.143 23.004-20.374 3.286-3.068 6.132-6.573 9.638-9.418 0.219-0.219 0.219-0.438 0.438-0.438 0.879-0.66 1.974-1.317 2.849-1.974 1.97-1.094 4.162-1.754 5.913-2.849 0-0.219 0.223-0.438 0.441-0.657 3.502-0.219 7.008-0.875 10.514-1.094 9.638-1.094 19.279-1.974 28.916-1.974 4.819 0 9.423 0 14.238 0.223 2.192 0 4.604 0.219 6.792 0.438 1.095 0.219 2.192 0.438 3.506 0.438 0.656 0.219 1.316 0.219 2.192 0.438 8.981 1.313 17.743 3.283 26.286 5.913 8.763 2.412 17.087 5.476 25.411 8.985 0.657 0.219 1.313 0.438 1.974 0.875 0.219 0 1.97 0.657 1.97 0.657 2.192 0.875 4.162 1.751 6.136 2.845 4.382 1.755 8.544 3.947 12.925 5.917 8.98 4.381 17.962 8.543 26.943 12.268 8.543 3.506 17.086 5.913 25.853 8.106 3.943 0.875 8.105 1.75 12.268 1.75-0.219 3.287-0.219 6.574-0.219 9.642 0.219 12.706 0.656 25.192 1.313 37.679-0.657-0.438-1.313-0.656-1.971-0.879-2.849-1.313-5.916-2.408-8.98-3.502-5.917-2.411-11.834-5.042-16.434-9.856-2.189-2.63-5.913 1.094-3.506 3.502 4.385 4.822 10.079 7.887 16.211 10.517 2.85 1.094 5.917 2.188 8.985 3.506 1.751 0.656 3.943 1.97 5.913 2.626 0.438 5.261 0.656 10.517 1.094 15.773-1.751-1.313-4.381-2.407-6.132-3.287-4.381-2.188-8.981-3.943-13.8-5.256-9.86-3.287-19.939-5.917-28.482-12.049-1.532-1.095-2.846 1.536-1.532 2.63 7.887 5.913 17.306 9.2 26.286 12.487 4.604 1.751 9.204 3.287 13.585 5.475 2.188 0.875 4.381 2.193 6.354 3.506 1.313 0.875 2.627 1.536 4.158 1.755 0.22 4.815 0.657 9.637 1.099 14.237-2.849-1.317-5.917-2.411-8.766-3.725-7.884-3.505-16.212-6.792-24.095-10.294-16.211-7.011-32.641-14.679-46.444-25.853-1.532-1.313-3.725 0.879-2.188 2.192 13.58 11.389 28.916 20.374 44.908 27.818 7.887 3.729 15.992 7.23 23.879 10.736 4.163 1.974 8.544 3.725 12.487 5.694 0.219 0.219 0.438 0.219 0.656 0.438 0.438 4.385 0.876 8.766 1.313 13.147-2.193-0.874-4.6-1.312-6.789-1.969zm65.282 22.563c-1.535 0.438-3.067 0.656-4.604 0.875-0.656 0.219-1.313 0.219-1.97 0.438h-0.219-0.438c-6.573 0.879-13.366 1.098-20.154 0.438h-0.22c-0.441 0-1.098-0.219-1.754-0.219-1.532-0.438-2.846-0.875-4.382-1.313-0.438-0.219-1.094-0.657-1.751-0.875 0-0.219 0-0.219-0.219-0.219-0.219-0.661-0.219-1.317-0.441-1.974 0.66-1.532 0.88-3.283 1.099-5.257 0.219-3.068-0.438-6.354-0.876-9.422 0-0.875 0-1.532-0.223-2.408 2.631 1.095 5.042 2.408 7.449 3.725 10.079 5.038 20.377 9.856 30.672 14.457 0.438 0 1.094 0.438 1.97 0.879-1.093 0.218-2.407 0.437-3.939 0.875zm7.008-33.298c0 1.094 0 2.188-0.219 3.287-1.751-1.098-4.162-1.536-6.132-2.192-3.943-0.875-7.887-2.192-11.611-3.506-7.668-2.626-15.117-5.694-22.785-8.324-3.505-1.094-4.818 4.162-1.531 5.26 7.226 2.626 14.456 5.694 21.687 8.325 3.725 1.532 7.448 2.845 11.392 3.939 2.631 0.875 6.133 1.974 8.763 1.098-0.219 4.381-0.438 8.981-0.438 13.362-0.219 1.532-0.219 3.068-0.219 4.819-1.536-0.656-3.068-1.313-4.382-1.751-10.517-4.381-20.811-9.422-31.108-14.022-2.408-0.875-4.601-1.97-7.012-2.849-0.219-3.939-0.656-7.887-0.875-11.826-1.313-13.804-2.408-27.384-3.283-40.965-0.88-13.585-1.755-27.166-2.411-40.966-0.438-6.574-0.876-13.366-1.317-20.154-0.219-3.506-0.219-7.011-0.656-10.517 1.316-0.219 2.63-0.219 3.947-0.438 5.256-0.219 10.513-0.438 15.77-0.219 9.86 0.219 19.498 1.97 29.135 2.626v7.887c0 7.011 0.438 14.022 0.876 21.034 0.441 14.238 1.536 28.479 2.192 42.717 0.435 14.458 0.654 28.915 0.217 43.375z"/>
   <path d="m1244.7 390.66c3.505-0.219 6.792 0.657 10.079 1.532 3.067 0.879 5.913 2.411 8.98 1.974 1.095-0.219 1.532-1.532 1.095-2.412-1.751-2.845-5.476-3.939-8.544-4.819-3.943-1.313-7.667-1.532-11.61-1.751-3.502-0.437-3.502 5.914 0 5.476z"/>
   <path d="m1316.4 433.38c-3.725-1.532-7.23-2.626-10.955-3.064-2.63-0.219-3.067 3.943-0.656 4.6 3.287 0.875 6.351 1.974 9.638 3.287 2.192 0.875 5.257 2.845 7.449 1.313 0.656-0.438 0.875-0.875 0.875-1.751-0.657-2.631-4.163-3.506-6.351-4.385z"/>
   <path d="m1310.9 420.46c0.879-0.66 1.099-1.536 0.879-2.63-0.223-1.536-2.192-2.412-3.724-3.068-1.313-0.657-2.85-0.875-4.604-1.095-3.939-0.219-3.939 6.355 0 6.132 2.192 1e-3 5.261 1.975 7.449 0.661z"/>
   <path d="m1310.5 407.97c0.875 0.438 1.755 0.438 2.63 0h1.095c0.438-0.219 0.879-0.657 0.879-1.094 0-0.219 0.219-0.438 0.219-0.875 0-0.657-0.438-1.095-0.879-1.532 0-0.219-0.219-0.219-0.219-0.438-0.219 0-0.219-0.219-0.438-0.219-0.657-0.879-1.751-1.098-2.631-0.879-1.094 0.438-1.97 1.536-1.97 2.63s0.657 1.969 1.314 2.407z"/>
   <path d="m790.6 428.56c-3.068-1.317-5.913-2.411-8.981-3.509-2.411-0.875-3.505 3.068-1.094 3.947 2.849 1.094 5.913 2.188 8.98 3.502 1.974 0.875 4.382 2.849 6.793 2.192 0.438-0.219 0.875-0.875 0.656-1.317-0.656-2.845-4.162-3.721-6.354-4.815z"/>
   <path d="m780.97 413.66c0.876 0 1.313 0.219 1.974 0.438 1.095 0.657 2.188 1.094 3.502 0.438 0.875-0.438 0.875-1.313 0.875-1.97-0.219-1.317-1.531-1.974-2.626-2.849-1.095-0.656-2.411-0.879-3.725-1.098-1.317 0-2.411 1.317-2.411 2.63 0 1.316 1.094 2.63 2.411 2.411z"/>
   <path d="m879.33 452.66c-1.755-1.751-4.381 0.879-2.849 2.849 11.392 12.049 24.754 22.128 38.776 31.109 7.23 4.6 14.457 9.2 21.905 13.581 6.574 4.162 13.8 9.419 21.249 11.393 1.755 0.438 2.63-1.532 1.755-2.849-4.818-5.913-12.486-9.638-19.061-13.362-7.229-4.6-14.679-8.762-22.124-13.366-13.803-8.544-28.04-17.744-39.651-29.355z"/>
   <path d="m997.84 492.75c-3.067-1.313-6.354-2.412-9.419-3.725-2.849-1.094-3.943 3.287-1.316 4.381 2.63 1.098 5.256 2.193 7.887 3.287 2.411 1.094 5.037 2.63 7.668 2.63 1.316 0 1.974-1.317 1.316-2.192-1.316-2.407-3.729-3.502-6.136-4.381z"/>
   <path d="m845.15 385.84c-1.095-0.657-2.408-0.875-3.502-1.094-2.85 0-2.85 4.381 0 4.381 0.656 0 1.313 0.219 1.751 0.657 0.656 0.219 1.094 0.438 1.751 0.657 0.66 0.219 1.316-0.219 1.755-0.438 0.656-0.219 0.875-0.875 0.656-1.532-0.219-1.317-1.313-1.974-2.411-2.631z"/>
   <path d="m1026.3 355.18c-2.631-0.219-2.631 3.721 0 3.939 0.219 0 0.438 0.219 0.656 0.219 0.438 0.219 0.875 0.219 1.095 0.438 0.219 0.223 0.441 0.223 0.66 0.441-0.219-0.219 1.313 0.438 0.875 0.219 0.438 0.219 0.876 0.219 1.532 0.438 0.876 0 1.313-0.875 1.313-1.536-0.437-2.626-3.939-4.158-6.131-4.158z"/>
   <path d="m1042.5 350.79c-2.411-1.094-4.819-1.97-7.668-1.751-1.974 0.219-2.63 3.287-0.438 3.725 2.411 0.219 4.6 1.094 6.788 2.192 1.974 0.875 3.947 2.188 6.136 2.407 1.095 0 1.532-1.313 1.095-2.188-1.095-2.193-3.721-3.509-5.913-4.385z"/>
   <path d="m1067.7 354.74c-5.476-3.291-11.393-6.136-16.868-9.422-2.192-1.313-4.381 2.192-1.974 3.725 5.042 3.287 10.298 6.354 15.555 9.2 2.411 1.532 4.822 3.068 7.23 4.604 2.626 1.532 4.818 3.501 7.668 4.377 1.094 0.438 2.188-1.094 1.531-2.188-2.625-4.602-8.542-7.67-13.142-10.296z"/>
   <path d="m1094.5 358.24c-6.354-4.6-12.709-9.418-18.622-14.675-1.536-1.317-3.943 0.875-2.411 2.408 5.697 5.038 11.83 9.86 17.747 14.46 5.693 4.381 11.173 9.638 17.743 12.487 1.094 0.438 1.973-0.657 1.316-1.751-4.166-5.261-10.517-8.986-15.773-12.929z"/>
   <path d="m1122.5 359.11c-6.132-4.377-12.264-8.324-17.523-13.581-2.189-2.192-5.476 1.098-3.287 3.287 4.818 4.819 10.298 8.762 15.992 12.705 2.63 1.974 5.476 3.943 7.887 6.132 2.63 2.411 5.038 5.042 7.887 6.792 1.095 0.656 2.63-0.438 2.192-1.532-1.974-6.135-8.325-10.297-13.148-13.803z"/>
  </g>
 </g>
</svg>
