<?xml version="1.0" encoding="UTF-8" standalone="no"?>
<!-- Created with Inkscape (http://www.inkscape.org/) -->

<svg
   xmlns:dc="http://purl.org/dc/elements/1.1/"
   xmlns:cc="http://creativecommons.org/ns#"
   xmlns:rdf="http://www.w3.org/1999/02/22-rdf-syntax-ns#"
   xmlns:svg="http://www.w3.org/2000/svg"
   xmlns="http://www.w3.org/2000/svg"
   xmlns:sodipodi="http://sodipodi.sourceforge.net/DTD/sodipodi-0.dtd"
   xmlns:inkscape="http://www.inkscape.org/namespaces/inkscape"
   width="174.71mm"
   height="128.16mm"
   version="1.1"
   viewBox="0 0 174.71 128.16"
   id="svg114"
   sodipodi:docname="volunteer2.svg"
   inkscape:version="0.92.3 (2405546, 2018-03-11)">
  <defs
     id="defs118" />
  <sodipodi:namedview
     pagecolor="#ffffff"
     bordercolor="#666666"
     borderopacity="1"
     objecttolerance="10"
     gridtolerance="10"
     guidetolerance="10"
     inkscape:pageopacity="0"
     inkscape:pageshadow="2"
     inkscape:window-width="3066"
     inkscape:window-height="1689"
     id="namedview116"
     showgrid="false"
     inkscape:zoom="0.97443297"
     inkscape:cx="132.09674"
     inkscape:cy="242.19213"
     inkscape:window-x="134"
     inkscape:window-y="55"
     inkscape:window-maximized="1"
     inkscape:current-layer="g110" />
  <metadata
     id="metadata2">
    <rdf:RDF>
      <cc:Work
         rdf:about="">
        <dc:format>image/svg+xml</dc:format>
        <dc:type
           rdf:resource="http://purl.org/dc/dcmitype/StillImage" />
        <dc:title />
      </cc:Work>
    </rdf:RDF>
  </metadata>
  <g
     transform="translate(-16.968 -85.512)"
     id="g112">
    <g
       transform="matrix(.26458 0 0 .26458 -497.04 -171.76)"
       fill="#414042"
       id="g110">
      <path
         d="m2578.2 1209.7s0.01 0 0.01 0.01c-0.01-0.012-0.018-0.024-0.026-0.037 0.01 0.01 0.011 0.021 0.017 0.031z"
         id="path4" />
      <path
         d="m2313.8 1139.4c0.029 0.17 0.066 0.348 0.105 0.491 0.023 0.074 0.043 0.152 0.076 0.218-0.109-0.658-0.178-1.016-0.215-1.173 0.01 0.149 0.016 0.306 0.034 0.464z"
         id="path6" />
      <path
         d="m2459.5 1331.1h-7.23c-2.635 0-2.635 4.385 0 4.385 2.189-0.219 4.377-0.219 6.355-0.219 1.75 0 4.158 0.438 5.471-1.102 0.438-0.657 0.438-1.313 0-1.97-1.094-1.313-3.065-1.094-4.596-1.094z"
         id="path8"
         style="fill:#ffffff" />
      <path
         d="m2443.9 1349.1c-2.416-0.656-4.822-0.219-7.449-0.438-2.854-0.219-5.697-0.876-8.762-1.532-2.197-0.438-3.291 3.064-0.877 3.502 4.816 1.102 12.922 3.947 17.307 0.438 0.656-0.438 0.656-1.751-0.219-1.97z"
         id="path10"
         style="fill:#ffffff" />
      <path
         d="m2379.9 1318c-3.947-1.531-8.326-2.626-12.492-3.939-8.762-2.188-17.742-3.729-26.723-5.26-2.408-0.438-3.502 3.29-1.096 3.728 8.545 2.189 16.869 4.378 25.193 6.574 4.377 1.313 8.543 2.626 12.709 4.158 2.846 0.875 7.23 3.51 10.295 1.751 0.656-0.219 0.875-0.876 0.656-1.532-0.874-3.284-5.698-4.604-8.542-5.48z"
         id="path12"
         style="fill:#ffffff" />
      <path
         d="m1947.7 1111.2c23.004 15.773 49.947 23.879 74.482 36.37 4.823 2.407 10.732 1.531 13.804-3.291 2.188-0.219 4.158-1.094 5.698-2.407 2.626-2.407 3.721-5.917 5.472-8.763 1.532-2.626 3.509-5.26 5.479-7.668 3.5-5.041 6.572-10.294 6.791-16.648 0.438-12.271-12.052-16.868-21.689-19.501-1.751-0.438-3.721-1.096-5.698-1.752-0.545-0.136-1.179-0.354-1.842-0.556-0.235-0.186-2.307-1.045-2.754-1.194-5.917-2.627-12.053-4.823-17.962-7.012-5.698-1.97-11.834-4.158-16.212-6.136 0.438 0.438 0.219 0.219-0.656-0.22-0.883-0.219-1.54-0.656-2.415-1.094-1.313-0.656-2.407-1.313-3.721-1.97-1.095-0.657-2.196-1.095-3.291-1.751l-0.219-0.219c-1.313-1.532-2.188-2.627-3.721-3.729-0.07-0.047-0.129-0.093-0.194-0.139-0.147-0.142-0.593-0.547-0.899-0.955-2.854-3.939-8.544-6.793-13.147-3.502-6.792 4.814-9.419 12.92-12.264 20.369-0.657 1.532-1.321 3.072-1.759 4.604-0.219 0.657-0.438 1.313-0.875 1.752-0.096 0.269-0.161 0.458-0.215 0.616-0.061 0.129-0.133 0.281-0.224 0.478-0.656 1.532-1.313 2.846-1.97 4.385-0.656 0.876-1.094 1.532-1.531 2.407-0.22 0.219-1.971 2.627-0.657 0.876-4.166 5.481-3.947 12.492 2.189 16.65zm91.703-0.189c-0.026-0.057-0.052-0.108-0.077-0.169 0.065 0.083 0.112 0.165 0.137 0.248-0.021-0.027-0.039-0.049-0.06-0.079zm0.436 0.574c0.413 0.481 0.687 0.893 0 0zm-0.901-3.832c0-0.011 0-0.021-0.01-0.031 0.039-0.079 0.074-0.151 0.119-0.242-0.03 0.09-0.073 0.182-0.112 0.273zm-56.627-23.278c4.604 3.502 9.638 6.574 14.897 9.2 4.823 2.408 9.857 4.385 14.898 6.574 4.822 2.188 9.419 5.033 14.679 6.792 3.327 1.456 7.055 2.32 10.609 3.342-1.233 2.043-2.734 3.952-4.254 5.858-2.415 3.283-5.042 6.792-6.574 10.731-19.791-9.609-40.548-16.801-59.217-28.245 1.564-3.216 2.926-6.582 4.229-10.094 1.095-3.063 2.189-6.128 3.283-9.2-0.219 1.095-0.219 0.875 0.219-0.219 0.188-0.374 0.378-0.749 0.563-1.123 0.03 0.01 0.065 0.02 0.095 0.029 1.976 2.409 4.385 4.386 6.573 6.355z"
         id="path14"
         style="fill:#f2f2f2" />
      <polygon
         points="2578.2 1209.5 2578.2 1209.5 2578.2 1209.5"
         id="polygon16" />
      <path
         d="m2436.8 1191.3c0.056 0.149 0.22 0.544 0.552 1.32-0.17-0.454-0.356-0.892-0.552-1.32z"
         id="path18" />
      <path
         d="m2551.3 1093.4c-1.531 0.219-1.531 0.219-0.438 0-1.094 0.219-2.189 0.219-3.51 0.438-3.283 0.22-6.785 0.438-10.074 0.657-6.793 0.219-13.586 0.219-20.152 0.438-7.01 0.219-13.803 0.438-20.596 1.532-7.012 1.102-16.867 3.29-19.057 11.177-0.438 1.313-0.219 3.283 0.219 4.815 0 0.219-0.219 0.438-0.219 0.656-0.219 1.103-0.438 2.415-0.438 3.51 0 2.188 0.219 4.377 0.438 6.792 0.219 5.69 0 11.17 0.438 16.868 0.658 6.354 4.598 10.075 10.732 10.732 15.336 1.97 30.672 1.313 46.008 0.438 5.689-0.219 11.607 0.219 17.523 0 5.48 0 12.045-0.219 17.307-2.408 1.094 0.22 2.188 0 3.283-0.219 8.543-3.29 10.52-11.177 12.49-19.063 1.969-7.23 3.064-14.672 1.531-22.121-1.531-7.448-7.449-13.146-14.461-15.554-5.471-1.971-12.045-0.438-17.523 0.656-1.093 0.218-2.407 0.437-3.501 0.656zm12.027 22.073c-0.078 1.15-0.365 3.802 0.018 0.931-0.219 2.626-0.875 5.253-1.75 7.887-0.219 0.875-0.438 1.751-0.656 2.845-1.089 0.156-2.498 0.311-2.289 0.31-2.453 0.185-4.901 0.348-7.35 0.348-5.916 0-11.615-0.219-17.523 0-7.23 0.438-14.68 1.094-21.91 1.313-4.775 0.137-9.635 0.191-14.475 0.264-0.687-3.754-1.284-7.521-2.174-11.214 0.656 0 1.313 0 2.188-0.219h17.525c12.053 0.438 24.098 0.875 35.932-0.657 3.502-0.438 7.012-0.875 10.295-1.531 0.814 0 1.507-0.125 2.169-0.277z"
         id="path20"
         style="fill:#f2f2f2" />
      <path
         d="m2525.8 1312.3 0.045 0.182c0-0.063-0.02-0.124-0.045-0.182z"
         id="path22" />
      <path
         d="m2393.5 1302.6c-3.064-0.883-6.348-1.32-9.418-1.977-6.348-1.095-12.922-1.532-19.494-1.751-3.064-0.22-3.064 4.604 0 4.822 6.135 0.438 12.053 1.313 17.961 2.407 3.291 0.438 6.355 1.095 9.42 1.97 2.195 0.438 5.26 1.532 7.23 0.219 0.875-0.656 0.875-1.313 0.656-2.188-1.096-2.408-4.158-2.845-6.355-3.502z"
         id="path24"
         style="fill:#ffffff" />
      <path
         d="m2041.9 1228.6c4.385-0.664 7.668-5.698 7.668-9.864 0-1.97-0.656-3.939-1.97-5.69 0.655-0.438 1.313-0.883 1.759-1.321 3.721-3.939 4.377-10.075 4.596-15.108 0-10.083-4.385-19.721-14.241-23.441-3.502-1.313-7.23-1.54-10.951-1.095-2.188 0.438-4.385 0.656-6.573 1.095-0.875 0.219-1.532 0.438-2.407 0.656-0.219 0-2.634 0.438-1.751 0.438-10.083 1.095-20.158 1.313-30.015 1.97-5.917 0.219-11.607 1.313-17.306 2.846-1.751 0.445-3.51 0.883-5.261 1.539-0.219-0.219-0.438-0.219-0.656-0.438 0 0-1.958-1.311-1.5-0.954-1.619-1.185-3.281-2.151-5.511-2.555-6.793-1.532-11.827 3.063-12.483 9.637-0.438 3.291 0 6.793-0.219 10.083 0 3.94 0 7.887 0.219 11.827 0.876 10.513 4.815 20.377 15.555 24.316 5.034 1.751 10.513 0.875 15.773 0.656 7.223-0.656 14.452-1.094 21.683-1.313 7.23-0.438 14.46-0.876 21.69-1.532 7.23-0.659 14.678-0.44 21.901-1.752zm-8.619-36.529c-1e-3 0 0 0 0-0.01 0.185 0.042 0.364 0.089 0.516 0.164-0.212-0.07-0.373-0.119-0.514-0.158zm0.19 1.657c0.081 0.4 0.111 0.588 0 0zm-0.686-1.928c0.01 0.012 0.017 0.025 0.024 0.038-0.089-0.075-0.194-0.161-0.328-0.265 0.118 0.092 0.218 0.165 0.304 0.227zm-50.25 19.705c-3.064 0.219-6.354 0.438-9.419 0.657-1.313 0.227-2.626 0.227-3.939 0.445-0.428 0-1.068 0-1.506-0.207-0.068-0.114-0.138-0.229-0.205-0.343-0.106-0.272-0.212-0.561-0.267-0.771-0.207-0.826-0.413-1.465-0.62-2.27-0.01-0.081-0.018-0.188-0.036-0.356 0-0.876-0.219-1.97-0.219-3.064-0.219-3.947 0-7.887-0.219-12.053 1.094 0.219 2.196 0.438 3.29 0.438 4.815 0.657 9.856 0 14.891 0.219 10.083 0.657 20.158 0.876 30.015 0.22 4.385-0.438 8.763-1.095 13.147-1.97 0.6-0.201 1.384-0.226 2.183-0.394 0.125 0 0.336-0.018 0.662-0.045 0.876-0.219 1.532 0 2.408 0h0.03c0.019 0.063 0.218 0.18 0.337 0.211 0.01 0.014 0.021 0.032 0.031 0.045 0.016 0.061 0.027 0.11 0.047 0.183 0.064 0.135 0.151 0.476 0.227 0.814 0.207 1.698 0.211 3.404 0.211 5.102-0.227 2.627 0 5.253 0.438 7.887 0 0.657 0.219 1.313 0.438 1.971-3.947 0-8.105 0.438-12.053 0.875-6.792 0.438-13.577 1.095-20.588 1.313-6.356 0.437-12.711 0.655-19.284 1.093z"
         id="path26"
         style="fill:#f2f2f2" />
      <path
         d="m2525.6 1312.1c0.034 0.039 0.101 0.122 0.149 0.229l-0.193-0.772c-0.01 0.058-0.017 0.112-0.024 0.168z"
         id="path28" />
      <path
         d="m2602.5 1204.5c-1.313-6.793-6.793-13.147-12.92-15.993-8.988-4.166-19.283-4.385-28.922-5.479-10.074-1.095-19.939-2.188-30.014-3.291-4.814-0.438-9.639-0.875-14.453-1.313-5.479-0.438-11.178-1.751-16.438-0.657-2.846 0.438-5.033 3.072-5.689 5.479-0.219 0.656-0.219 1.094-0.219 1.532-5.48 7.668-9.639 17.524-10.303 26.724-0.211 5.042 0.883 10.74 4.166 14.898 4.604 6.136 10.951 8.98 18.182 11.615 11.613 4.158 24.098 5.909 36.15 9.199 5.908 1.751 11.389 4.378 17.086 6.574 7.23 2.845 16.211 6.128 24.098 3.721 3.939-1.095 7.004-4.159 8.105-8.106 0.656-2.407 0.438-5.26-0.438-7.887 4.377-4.604 7.004-10.513 9.42-16.648 2.626-6.572 3.282-13.584 2.189-20.368zm-24.214 5.315c0 1e-3 0 1e-3 0.01 0 0 0.01 0.01 0.019 0.011 0.028-0.01-0.01-0.011-0.019-0.017-0.03zm-0.142-0.176c-0.121-0.164-0.252-0.344-0.398-0.543 0.174 0.174 0.307 0.347 0.425 0.521v0.039c-0.011-0.01-0.018-0.011-0.029-0.017zm0.235 0.31c0 0.01 0.01 0.01 0.01 0.015 0-0.01-0.011-0.015-0.016-0.021l0.01 0.01zm-0.219-0.47c-0.231-1.605-0.063-0.832 0 0 0.01 0.018 0.015 0.034 0.021 0.052 0.028 0.058 0.045 0.116 0.066 0.174-0.01-0.01-0.021-0.015-0.029-0.021 0.016 0.024 0.034 0.049 0.049 0.073 0.01 0.017 0.014 0.032 0.019 0.048 0-1e-3 -0.01 0-0.01 0-0.023-0.044-0.045-0.082-0.067-0.124-0.01 0-0.017-0.011-0.024-0.016v-0.031c0 0.01 0.01 0.011 0.011 0.016 0-0.01-0.01-0.014-0.012-0.021-0.01-0.048-0.014-0.093-0.02-0.136 0 0.038 0 0.075 0.01 0.113-1.098-1.989-0.407-1.088-0.01-0.126zm-72.051-1.697c-0.092 0.688-0.144 1.065-0.168 1.246 0.031-0.39 0.078-0.797 0.168-1.246zm-0.352 4.666c-0.127-0.671-0.151-1.097 0 0zm70.237 6.285c-0.367 1.013-0.193 0.711 0.049 0.201-0.23 0.508-0.533 0.987-0.705 1.331-1.094 2.415-2.195 4.604-3.072 7.011-0.438 1.321-1.094 2.854-1.313 4.166-1.094-0.219-1.969-0.438-3.064-0.875-5.479-1.97-10.73-4.166-16.43-5.917-10.74-3.502-22.348-5.042-33.297-7.668-2.854-0.656-5.48-1.313-8.105-2.188-0.806-0.161-1.73-0.559-2.688-0.933-0.01-0.054-0.814-0.46-1.465-0.756-0.01-0.016-0.01-0.031-0.014-0.047v-2.431c0-0.512 0.01-1.029 0.049-1.584 0.059-0.404 0.261-1.753 0.389-2.137 0.438-1.97 0.875-3.947 1.094-6.136 0.227-1.313 0.664-2.846 0.664-4.158 1.531 0.438 2.846 0.656 4.377 1.094 5.041 1.532 10.076 2.407 15.336 3.502 9.857 1.97 19.713 3.291 29.797 4.822 4.814 0.657 9.418 1.313 14.232 2.189 1.752 0.438 3.291 0.656 5.043 1.094 0.129 0.032 0.292 0.084 0.463 0.144 0.288 0.159 0.566 0.319 0.849 0.479 0 0.011 1e-3 0.022 1e-3 0.033 0.04 0.08 0.064 0.173 0.09 0.266-0.015-0.097-0.027-0.185-0.041-0.271 0.036 0.02 0.071 0.04 0.107 0.06 0.057 0.298 0.063 0.623 0.063 1.04-0.022-0.145-0.041-0.264-0.062-0.394 0.01 0.296-0.039 0.595-0.157 0.831 0 0.354 0.01 0.586 0.015 0.753-0.477 2.259-1.247 4.374-2.205 6.479zm2.44-8.654c0.01 0 0.017 0.01 0.025 0.014 0.056 0.105 0.108 0.211 0.161 0.316-0.068-0.12-0.125-0.223-0.186-0.33zm0.064 0.034c0.022 0.013 0.048 0.024 0.07 0.037 0.557 0.63 1.186 1.637-0.07-0.037z"
         id="path30"
         style="fill:#f2f2f2" />
      <path
         d="m2004.2 1011.3c1.532 4.385 4.377 6.354 7.887 8.98 2.626 2.189 5.261 4.166 7.887 6.355 5.479 4.596 10.951 9.199 16.43 14.014 5.261 4.604 10.514 9.427 15.335 14.461 5.035 5.26 10.076 12.928 17.963 13.365 0.438 0 0.875 0 1.094-0.219 0.656 0.438 1.314 0.657 1.752 0.657 5.479 1.095 8.762-0.876 12.709-4.159 2.627-1.977 5.041-4.166 7.449-6.354 4.158-3.729 8.543-8.105 9.855-13.367 1.314-1.313 1.971-3.282 1.971-5.26 0.438-5.69-5.035-9.638-8.543-13.577-3.064-3.29-6.137-6.792-9.201-9.856-5.916-6.136-12.053-11.615-19.057-16.43-5.697-3.947-11.834-7.23-17.75-10.959-3.501-2.188-7.879-5.033-11.169-8.543-0.438-2.627-1.97-5.034-4.159-6.354-4.385-2.626-8.98-0.657-11.833 3.071-6.348 8.762-15.773 16.648-19.057 27.381-0.438 1.094-0.438 2.627 0 3.729 0 1.095 0 1.971 0.437 3.065zm22.128-11.826c2.846-3.072 5.69-6.137 8.324-9.427 1.313 2.196 3.064 4.385 5.034 6.573 5.042 5.479 11.396 10.076 16.429 14.242 3.072 2.406 4.387 3.063 7.449 5.916 3.291 3.064 6.574 6.348 9.639 9.857 3.291 3.501 6.572 7.229 9.863 10.95 0.656 0.876 1.533 1.751 2.189 2.626-1.314 1.102-2.854 1.978-4.166 2.854-3.283 2.188-6.355 4.377-9.201 7.011-0.219 0-0.438 0.22-0.656 0.438-1.969-2.416-4.158-4.823-6.135-7.012-4.816-5.26-10.076-10.076-15.117-14.898-5.252-4.814-10.731-9.637-16.211-14.241-2.845-2.188-5.909-4.597-8.755-7.011-1.102-0.876-2.415-1.752-3.509-2.627 1.752-1.749 3.284-3.501 4.823-5.251z"
         id="path32"
         style="fill:#f2f2f2" />
      <path
         d="m2525.6 1310.3c1.094-4.814-1.104-9.856-5.48-12.701-4.166-2.627-6.791-4.385-10.951-8.763-2.852-3.29-5.916-6.354-9.199-9.418-3.947-3.729-8.105-7.23-13.146-9.419-3.064-1.54-5.918-2.196-9.639-2.415-1.531 0-3.51 0.219-5.041 1.094-1.094-0.219-2.189-0.219-3.502 0.219h-0.219c0.219-3.939 0.219-7.887 0.438-11.826 0.438-10.075-0.438-20.369-1.094-30.233-0.445-10.075-1.32-20.369-3.291-30.007-1.75-8.105-5.033-15.992-8.98-23.223-4.596-8.763-10.951-16.43-18.182-23.223 3.721-6.573 5.254-15.116 5.041-21.472-0.227-5.69-1.539-11.607-4.604-16.211-1.75-3.064-4.166-5.253-6.791-7.004 0.438-3.728 0.219-7.668-0.439-11.614-1.094-7.23-3.939-14.023-9.637-19.057-3.283-3.072-7.449-5.26-11.389-7.668 2.846-14.022 0.438-28.701-8.77-40.09-4.596-5.698-10.951-10.514-18.4-11.607-2.625-0.445-5.479-0.445-8.105 0.211 0-4.158-0.875-8.316-2.627-12.264-2.625-5.918-8.105-10.514-13.803-13.147-8.98-3.939-18.182-4.378-28.037-2.845-6.355 1.094-13.146 3.063-18.838 6.573-1.758-2.634-4.166-4.823-6.355-6.792-9.207-7.668-23.879-13.147-35.932-9.639-8.762 2.627-16.211 8.981-21.463 16.649-7.012-3.29-15.992-1.095-23.004 2.845-7.449 4.385-13.365 11.178-17.742 18.846-0.221 0.438-0.439 0.656-0.666 1.094-2.188-0.438-4.596-0.438-6.783 0-6.793 1.313-12.49 5.691-16.869 10.732-0.219 0-0.219 0.219-0.438 0.219-1.539-0.219-3.51-0.438-5.26-0.656-4.596-0.656-8.762-0.219-13.584 0.438-8.105 1.313-15.773 4.596-23.223 8.543-14.453 7.887-26.943 19.494-37.238 32.203-11.396 13.805-20.377 28.921-25.629 46.008-5.262 17.306-6.793 36.143-6.137 54.105 0.656 16.211 1.094 32.203 0.219 48.414-0.438 8.981-0.875 17.962-1.094 26.943v7.668c-0.438-0.438-0.875-0.657-1.094-0.876-1.533-1.97-4.166-3.721-6.574-4.377-8.98-2.415-18.181 4.596-24.316 10.513-4.822 5.042-8.981 10.514-13.366 15.992-2.407 3.064-5.033 6.136-7.668 9.2-1.531 1.97-3.063 3.721-4.814 5.261-0.348 0.348-2.484 2.067-2.255 1.998-0.855 0.579-1.714 1.258-2.567 1.941-1.971 2.626-2.408 3.071-1.313 1.532-0.657 0.656-1.095 1.539-1.532 2.415-0.875 0.875-1.313 1.751-1.97 2.626-3.071 5.042-2.853 10.732-1.32 16.211 2.634 10.514 10.521 19.713 17.531 27.819 6.785 7.448 14.015 14.241 21.464 21.033 8.981 7.887 17.97 15.992 26.724 24.098 13.805 12.702 27.607 25.192 42.287 36.8 7.668 6.136 15.773 12.053 23.879 17.751 4.377 2.845 8.762 5.253 13.795 7.223 4.387 1.759 8.326 4.385 12.492 6.573 4.377 2.407 9.855 1.095 12.482-3.283 0.438-0.875 0.875-1.97 1.102-3.071 4.377-1.532 8.543-4.815 12.482-7.887 5.041-4.158 9.639-9.2 14.023-14.015 4.596-5.042 8.762-10.74 12.482-16.212 2.414-3.29 3.729-8.543 3.51-12.271 0-1.094-0.219-2.188-0.438-3.063 1.75-5.479 0.219-10.075-3.072-14.022 5.479-1.313 10.74-3.502 15.773-5.472 9.418-3.729 18.627-7.887 27.607-12.71 1.094-0.656 2.408-1.531 3.721-2.188 0.875 1.095 1.969 2.188 3.072 3.283 3.281 3.51 6.783 6.354 10.512 8.981 7.668 5.479 15.992 9.637 24.756 13.146 8.324 3.283 16.648 5.917 25.41 7.887 5.252 1.313 10.514 2.407 15.773 3.064-1.75 2.188-3.291 4.822-3.51 7.887-6.785 12.271 8.988 25.411 17.533 31.984 5.033 3.721 10.512 7.23 15.984 10.513 5.916 3.51 12.49 7.668 19.721 6.136h0.656c0.875-0.219 1.75-0.219 2.846-0.438 6.135-1.751 9.863-7.449 13.803-12.264 12.482-15.117 25.631-29.796 39.652-43.818 14.023-13.796 28.475-26.943 42.717-40.528 5.697-5.253 11.834-10.075 17.523-15.336 5.699-5.252 10.959-10.731 15.555-16.867 0.877-1.095 1.752-2.188 2.189-3.283 0.656-1.313 1.094-2.407 1.758-3.729 0.05-0.198 0.145-0.474 0.242-0.742 0.098-0.223 0.18-0.449 0.26-0.678 0.08-0.199 0.109-0.271 0.033-0.099 0.36-1.063 0.561-2.176 0.561-3.296l-0.194-1.068c-0.012-0.012-0.024-0.026-0.024-0.026-0.424 2.534-0.438 2.411-0.044-0.349l-0.177-0.972 0.201 0.804c0.01-0.048 0.013-0.09 0.02-0.14v-1.101zm-84.395-103.63c0.015 0.077 0.032 0.154 0.047 0.231 0.251 1.882 0.071 0.527-0.047-0.231zm-12.654-29.346c-0.168-0.224-0.294-0.392-0.402-0.534 0.146 0.178 0.283 0.356 0.402 0.534zm-7.668-44.905c1.094-1.313 1.971-2.634 2.627-3.947-0.219 1.532-0.656 2.853-1.096 4.385-0.219 0.438-0.438 0.876-0.656 1.532 0.875-1.97 0.656-1.532-0.438 1.313-0.438 1.094-0.438 0.875 0.219-0.219-0.219 0.438-0.438 0.875-0.656 1.313-0.219 0.219-0.219 0.438-0.438 0.657-0.656-0.438-1.533-0.876-2.408-1.313 1.096-1.314 1.971-2.627 2.846-3.721zm-5.26 31.765c-0.256-0.214-0.456-0.374-0.627-0.507 0.223 0.153 0.426 0.306 0.627 0.507zm-1.533-1.101c0.146 0.1 0.279 0.186 0.407 0.268 0.025 0.052 0.243 0.256 0.688 0.615 2.852 2.188 5.479 4.815 8.105 7.223 1.313 1.32 2.414 2.853 3.508 4.166 0.405 0.404 0.804 0.809 1.157 1.214 0.368 0.519 1.226 1.702 1.47 2.069 1.971 2.853 3.939 5.917 5.48 9.199 0.648 1.141 1.295 2.278 1.854 3.503-0.165-0.44 0.607 1.268 0.771 1.758 0.438 1.094 0.656 2.188 1.096 3.29 1.029 3.295 1.857 6.591 2.499 9.894 1e-3 0.094 0.035 0.455 0.126 1.276 0.219 1.095 0.219 2.407 0.438 3.502 0.227 2.853 0.664 5.698 0.877 8.543 0.664 10.083 1.102 20.159 1.32 30.234 0.219 6.136 0.656 12.053 1.094 18.181 0.219 3.729 0.656 7.668 1.752 11.177 0.219 1.095 0.438 2.189 0.656 3.064-3.721 3.51-7.668 7.449-11.17 11.17-11.396 11.834-23.223 23.004-34.619 34.618-9.418 9.638-18.4 19.713-27.381 29.569-1.969-0.656-4.158-1.094-6.135-1.531-4.158-0.657-8.1-1.751-12.266-2.846-8.105-2.196-15.992-4.822-24.098-6.792-12.49-3.064-25.41-4.385-37.682-8.325 2.414-1.751 4.822-3.509 7.23-5.479 3.51-2.627 6.791-5.253 10.082-8.105 9.639 4.604 20.15 7.011 30.445 9.418 6.793 1.54 13.584 3.291 20.377 5.261 3.721 1.095 7.449 2.188 11.389 3.064 3.072 0.664 7.23 1.758 10.295 0.438 0.883-0.438 1.531-1.532 0.656-2.407-2.189-1.97-5.473-2.627-8.324-3.502-3.721-1.095-7.449-2.196-11.389-3.072-6.793-1.97-13.586-3.721-20.377-5.033-9.857-2.196-20.371-3.51-29.789-7.012 22.566-19.939 42.061-43.154 57.834-68.784 4.814-7.668 8.543-15.555 11.826-24.105 1.32-3.939 2.414-7.879 3.291-11.826 1.094-5.261 0.875-9.856-1.533-14.679-0.875-1.751-2.414-2.627-4.166-3.064-1.75-1.532-3.939-2.846-6.135-4.166-3.939-2.407-8.105-4.597-12.047-7.004-7.887-4.604-15.553-9.645-23.002-15.116 2.625 1.75-0.219-0.438-0.877-0.876-0.875-0.656-1.75-1.32-2.625-1.978-1.979-1.751-3.729-3.502-5.699-5.253-1.969-1.97-3.939-3.946-5.916-6.136-1.094-0.875-1.971-2.188-3.064-3.282-0.438-0.445-0.875-1.103-1.313-1.54-0.219-0.438-0.438-0.656-0.877-1.095-1.539-2.188-3.07-4.596-4.385-7.011-0.174-0.522-0.482-1.044-0.713-1.566-0.011-0.083-0.055-0.266-0.162-0.622-0.438-1.095-0.875-2.188-1.094-3.502-0.025-0.052-0.051-0.129-0.076-0.218-0.049-0.155-0.086-0.319-0.105-0.491-0.07-0.397-0.101-0.743-0.033-0.464v-0.359-0.646c0.059-0.266 0.139-0.653 0.219-0.895 0-0.213 0.028-0.396 0.066-0.571 0.116-0.231 0.378-0.748 0.59-0.96 0.117-0.235 0.484-0.782 0.599-0.971 0.2-0.188 0.433-0.374 0.714-0.562 1.096-1.313 3.721-3.064 5.48-3.502 1.531-0.664 3.283-1.102 5.033-1.54 2.854-0.438-1.75 0.219 1.313-0.219h2.635c1.752-0.219 3.721-0.219 5.473 0 3.508 1.532 7.01 3.072 10.52 4.166 9.199 3.502 18.182 7.668 27.818 11.389 4.385 1.751 8.762 3.51 13.146 5.261 2.189 0.875 4.379 1.751 6.566 2.626 0.55 0.272 1.098 0.463 1.645 0.672 0.488 0.209 1.848 0.79 2.713 1.156 3.08 1.442 6.141 2.901 9.01 4.745 1.531 0.876 3.07 1.751 4.604 2.846 0.877 0.437 1.533 1.094 2.189 1.532zm-44.029 199.14c-1.094 1.094-1.977 2.188-3.072 3.282-2.406 2.854-5.033 5.698-7.449 8.544-2.406-1.313-4.814-1.97-7.447-2.846-4.16-1.094-8.318-2.188-12.703-3.29-8.105-1.97-16.211-3.502-24.316-5.472-12.928-3.291-25.191-8.324-37.9-12.49 4.822-3.064 9.199-6.129 13.803-9.419 4.604 1.97 9.639 3.728 14.461 5.26 7.887 2.188 15.992 3.502 23.66 5.472 8.105 2.196 16.211 4.823 24.098 7.23 4.158 1.102 8.105 2.196 12.264 3.071 1.31 0.22 2.843 0.658 4.601 0.658zm-55.988-225.88c0.084-0.314 0.211-0.588 0.344-0.854-0.167 0.414-0.276 0.687-0.344 0.854zm0.562-1.073c0.112-0.225 0.284-0.449 0.512-0.674-0.099 0.126-0.26 0.339-0.512 0.674zm1.094-77.984c2.408 0.876 4.822 1.313 7.449 1.751 1.533 0.219 3.283 0.438 5.035 0.438-0.65 0.656-1.096 1.094-1.752 1.751-2.846 2.407-5.471 4.823-8.324 7.229-0.875-3.721-1.531-7.448-2.408-11.169zm12.709 49.728c4.379 1.97 8.982 3.283 13.578 4.377 3.51 0.876 7.012 1.313 10.514 1.532 1.32 0 2.852 0.219 4.385 0-0.438 0.883-1.096 1.978-1.314 3.072-2.406-0.438-4.822-0.876-7.01-1.313-0.219 0-0.219-0.219-0.438-0.219-4.379-2.415-9.201-3.072-14.023-3.51-1.531-0.219-3.283-0.219-4.814-0.219-0.22-1.094-0.439-2.407-0.878-3.72zm68.348 20.37c-7.012-2.189-14.023-4.597-21.252-6.574l0.438-0.438c0.219 0.219 0.438 0.219 0.664 0.219 4.814-0.438 9.637-0.219 14.672 0.876 2.625 0.438 5.041 1.32 7.666 2.196 0.221 0.219 0.221 0.219 0.439 0.219-0.877 1.094-1.752 2.407-2.627 3.502zm-0.219 25.848c-0.49-0.21-0.797-0.341-0.978-0.418 0.326 0.125 0.653 0.255 0.978 0.418zm12.295-62.134c-0.015-0.03-0.025-0.055-0.041-0.087 0 0 0.01 0.01 0.01 0.011 0.011 0.03 0.019 0.048 0.031 0.076zm-5.283-5.994c0.656 0.876 1.531 1.532 2.188 2.407 0.844 0.633 1.485 1.466 2.119 2.114 0.23 0.519 0.568 1.006 0.915 1.361 0.312 0.684 0.505 1.271 0.694 2.004 0 0.438 0.211 1.095 0.211 1.751 0.094 0.404 0.159 0.638 0.206 0.771 0.01 0.104 0.012 0.197 0.021 0.324 0.211 1.758 0.211 3.509 0.211 5.041 0 0.464-0.104 0.928-0.165 1.392 0.075-1.147-0.272 1.478-0.272 1.673 0 0.875-0.211 1.758-0.438 2.634-2.846-0.664-5.908-0.664-8.762-0.876-3.721-0.227-7.887 0-10.951 2.627-1.094 0.656 0 1.97 1.094 1.751 3.729-0.657 7.668-0.438 11.389 0 1.979 0.438 3.947 0.875 5.918 0.875-0.438 0.876-1.096 2.627-0.438 0.876-1.096 2.853-2.627 5.479-4.379 7.887-3.07-1.97-7.666-2.846-10.52-3.502-3.502-0.657-7.441-1.095-11.17-0.876 8.98-8.762 16.648-18.845 22.129-30.234zm-32.424-52.354c0.658 0 1.096-0.227 1.752-0.227 0.608-0.102 0.855-0.154 0.923-0.181 0.11-0.01 0.237-0.018 0.39-0.03 0.385 0 0.611-0.01 0.746-0.013 0.046 0 0.078 0.01 0.129 0.013 0.877 0.211 1.752 0.438 2.416 0.656-1.758-0.445 0.656 0.438 0.875 0.657 0.875 0.438 1.533 0.876 2.189 1.313 0.875 0.656 0.875 0.875 0.219 0.219l1.313 1.313c0.656 0.656 1.314 1.313 1.971 1.971 0.059 0.072 0.1 0.121 0.15 0.182-0.118-0.102-0.068 0.043 0.514 0.912 0.648 0.883 1.094 1.758 1.531 2.634 0 0 1.314 3.064 0.656 1.095 0.658 1.75 1.096 3.721 1.533 5.697 0.156 0.626 0.313 1.256 0.469 1.962-0.047 0.113 0.188 2.313 0.188 2.635 0 1.97 0 3.947-0.219 5.917-0.061 0.854-0.053 1.052-0.021 0.974-0.212 1.047-0.424 1.899-0.636 2.747-0.438 1.978-1.096 3.947-1.533 5.698-0.438 1.095-0.656 1.97-1.094 2.845-0.152 0.439-0.297 0.874-0.443 1.251-0.081 0.131-0.218 0.363-0.432 0.727-1.541 3.502-3.51 7.004-5.48 10.294-1.094 1.752-2.188 3.502-3.508 5.034-0.658 0.884-1.314 1.759-1.971 2.634 1.094-1.313-1.313 1.97-1.531 2.188-2.846 3.283-5.48 6.793-8.324 10.076-1.533 1.531-2.854 3.29-4.387 4.822-1.75-0.656-4.158-0.219-5.908-0.219-3.51 0-7.012-0.438-10.521-1.095-5.471-1.094-10.949-3.071-16.211-5.479-0.219-0.438-0.438-1.095-0.438-1.751-1.313-4.166-2.627-8.544-3.939-12.71 2.408-1.094 4.596-2.845 6.793-4.596 3.721-3.072 7.449-6.136 11.17-9.419 5.916-5.261 11.607-10.958 16.648-17.313 5.478-7.003 10.732-14.89 14.021-23.433zm-60.467-21.471h0.664c2.408-0.219 4.596-0.876 7.004-1.313 3.947-1.095 7.449-2.196 11.396-2.853 1.313-0.219 1.313-0.219 0.656-0.219 0.875 0 1.971 0 3.064-0.219 1.969 0 4.166 0 6.135 0.219 0.174 0.012 0.311 0.02 0.439 0.026 0.176 0.046 0.453 0.107 0.875 0.192 0.875 0 1.75 0.219 2.852 0.445 1.223 0.349 2.445 0.703 3.668 1.164 0.26 0.132 1.947 0.876 2.242 1.023 0.256 0.171 0.477 0.307 0.693 0.438-0.712-0.421 0.325 0.315 0.838 0.658 0.344 0.34 1.034 1.202 1.35 1.565 0.311 0.589 0.58 1.191 0.848 1.717-1.533-3.063-0.219-0.219 0 0.657 0.018 0.052 0.025 0.095 0.039 0.144-0.075-0.943 0.18 0.448 0.18 0.95 0 0.155-1e-3 0.298 0 0.446v0.218c-1e-3 -0.01 0-0.012 0-0.019-0.01 1.038-0.035 1.955-0.217 2.864 0 0.215-0.014 0.509-0.026 0.781-0.048 0.233-0.1 0.471-0.192 0.75-0.438 2.408-1.102 4.604-1.76 7.012-0.438 0.875-0.875 1.97-1.313 3.064-0.183 0.458-0.237 0.629-0.226 0.647-0.163 0.443-0.355 0.888-0.649 1.329-2.02 4.241-4.435 8.105-7.2 11.773-0.218 0.265-1.487 1.877-1.78 2.023-1.314 1.758-2.846 3.51-4.385 5.041-0.877 1.094-1.752 1.97-2.846 3.064-2.627-0.438-5.473 0-7.887 0-3.502 0-6.793-0.656-10.076-1.751-1.75-8.325-2.627-16.212-3.283-24.974-0.227-2.188-0.227-10.075-1.539-16.43 0.219-0.213 0.219-0.213 0.438-0.432zm40.746-0.437c-0.297-0.189-0.533-0.338-0.72-0.453 0.224 0.134 0.452 0.274 0.72 0.453zm-80.836-10.076c-0.455 0.379-0.743 0.619-0.92 0.767 0.307-0.274 0.613-0.538 0.92-0.767zm-14.234 37.894c0.219-2.846 0.438-5.691 0.875-8.763-0.438 3.509 0.221-1.313 0.439-2.188 0.219-1.313 0.438-2.627 0.875-4.166 0.438-2.408 1.094-4.814 1.969-7.441 0.34-0.856 0.682-1.842 1.026-2.855 0.313-0.673 0.935-2.049 1.171-2.404 0.891-1.962 2.076-3.776 3.313-5.448-0.094 0.169 1.455-1.736 1.939-2.22 0.537-0.538 1.076-1.07 1.614-1.558 0.357-0.289 1.4-1.139 1.896-1.507 0.875-0.656 1.971-1.32 3.064-1.759 0.057-0.037 0.111-0.065 0.168-0.1 0.182-0.062 0.638-0.242 0.926-0.338 0.036-0.019 0.074-0.027 0.11-0.042-0.179 0.021-0.31 0.038-0.412 0.05-0.138 0.064-0.25 0.118-0.343 0.162 0.109-0.059 0.213-0.109 0.318-0.159-0.387 0.044-0.236 0.017 0.089-0.044 0.339-0.158 0.651-0.284 0.894-0.405-0.349 0.161-0.63 0.292-0.856 0.398 0.255-0.048 0.594-0.114 0.856-0.18 0.184 0 0.379 1e-3 0.572 2e-3 0.099-1e-3 0.194-2e-3 0.305-2e-3 -0.01 1e-3 -0.018 2e-3 -0.027 3e-3 0.885 0.011 1.832 0.052 2.66 0.217 0.174 0 0.453 0.016 0.712 0.029 0.273 0.047 0.548 0.099 0.821 0.189 2.625 0.438 5.26 1.095 7.668 1.978 0.656 0.219 1.313 0.438 1.969 0.656-2.627-0.875-0.438-0.219 0 0 0.474 0.236 0.884 0.41 1.299 0.588-0.162-0.052-0.019 0.052 0.453 0.287 0.656 0.219 1.313 0.657 1.75 0.876h0.227c-0.883 2.407-1.102 4.815-1.32 7.011-0.438 4.378-0.656 8.763-0.656 13.141 0 6.135-0.439 13.803 1.75 19.939 0.227 5.471 0.664 10.95 1.32 16.43 1.096 10.513 3.283 20.807 5.691 30.891 1.32 5.033 2.633 9.855 4.166 14.671 1.094 3.947 1.969 8.324 3.939 11.834-1.094 0.656-2.189 1.532-3.283 2.188-0.219 0-0.656 0.219-0.875 0.219-3.729 0.219-7.449 0.219-10.959 0-6.785-0.219-13.797-0.438-20.588 0-1.096 0-1.752 0.657-1.971 1.313-0.656-0.876-1.32-1.751-1.977-2.627-0.219-0.219-0.219-0.438-0.438-0.656v-0.219c-2.408-9.419-5.473-18.619-8.105-27.826-1.684-6.101-2.76-12.011-3.812-18.297 0.428 2.512-0.128-1.266-0.128-2.073-0.221-1.313-0.439-2.626-0.439-3.947-0.219-3.063-0.438-5.908-0.656-8.98-0.218-5.691-0.218-11.171 0-16.868zm40.529 105.81c-0.221 0-0.221 0-0.439-0.219-0.19-0.038-0.344-0.074-0.479-0.108-0.973-0.401-1.789-0.803-2.592-1.205-1.314-0.875-2.627-1.531-3.939-2.407-0.337-0.337-0.675-0.672-1.013-0.908-0.388-0.309-1.185-0.94-1.185-1.062-2.406-1.978-4.596-4.166-6.566-6.573-1.75-2.196-3.07-3.947-4.385-5.698-0.875-1.095-1.531-1.97-2.188-3.064 6.791-0.219 13.584 0.876 20.369 1.313 1.977 0.219 3.947 0.438 5.916 0.438-1.531 2.188-2.844 4.597-3.5 7.23-1.095 4.157-1.095 8.323 0 12.263zm-0.987-0.346c-0.491-0.13-0.538-0.198 0 0zm-61.457-2.287c0.103 0.226-0.103-0.103-0.431-0.431zm13.45 11.342c-0.133 0.048-1.787-0.68 0 0zm16.49-1.313c1.78-0.68 0.136 0.045 0 0zm-47.896-82.973c0-4.159 0.219-8.325 0.438-12.491 0.219-2.188 0.438-4.596 0.656-6.784-0.219 2.626 0.219-1.095 0.219-1.759 0.221-1.094 0.439-2.188 0.658-3.502 0.875-4.385 2.188-8.762 3.729-12.928 0.219-0.438 0.438-1.094 0.656-1.532 0.656-1.095 1.094-2.188 1.75-3.282 0.438-1.096 1.094-1.971 1.752-3.072 0.164-0.165 1.444-1.94 1.507-2.063 1.052-1.354 2.392-2.71 3.753-4.066 0.751-0.751 1.503-1.354 2.256-2.062-0.321 0.404 2.15-1.258 2.34-1.447 0.875-0.657 1.971-1.095 3.072-1.532-3.072 9.638-4.385 19.713-4.604 30.016-0.438 12.045 0.656 24.316 2.406 36.143 1.322 7.23 3.072 14.46 5.262 21.472 0.875 3.063 1.969 5.909 3.064 8.762-1.752-0.219-3.941-0.219-5.473-0.438-4.385-0.438-8.543-1.095-12.709-2.627-1.752-0.664-2.627 2.189-0.656 3.064 3.729 1.532 7.887 2.407 11.834 3.064 2.406 0.656 6.127 1.977 8.98 1.531 0.219 0.445 0.438 0.657 0.656 1.103 1.971 4.814 4.377 10.075 8.105 13.577 0.425 0.425 0.846 0.849 1.07 1.274-1.013-0.175-2.012-0.197-2.828-0.399-3.064-0.656-6.129-1.094-8.98-1.751-5.91-1.094-11.828-2.845-17.307-5.041-2.188-0.876-3.721 2.853-1.531 3.729 5.26 2.407 10.73 4.158 16.43 5.698 2.846 0.656 5.916 1.313 8.98 1.75 2.408 0.438 5.041 1.532 7.449 0.438 1.313 2.845 2.854 5.479 4.604 7.887-3.51-0.438-7.23-0.657-10.738-1.313-7.223-1.095-14.672-1.978-21.902-2.853-0.656-1.095-1.32-2.188-1.971-3.283-0.883-1.532-1.758-3.064-2.414-4.604-0.438-0.876-0.875-1.532-1.094-2.408-0.221-0.438-1.314-3.063-0.439-0.656-1.531-3.502-2.625-7.23-3.721-10.951-0.875-3.509-1.758-7.011-2.414-10.521-0.438-1.751-0.656-3.502-1.094-5.253 0-0.875-0.219-1.751-0.439-2.634 0-0.656 0-1.094-0.219-1.751-0.875-8.761-1.312-17.742-1.093-26.505zm1.312 106.03c-2.188-0.438-4.596-0.876-6.791-1.313 0.438-0.219 0.656-0.656 1.094-0.876 1.752 0.875 3.728 1.532 5.697 2.189zm-10.512-37.683c2.188 4.604 4.596 8.98 7.668 13.146 0.219 0.438 0.219 0.657 0.438 0.876-0.438-0.219-0.875-0.657-1.314-0.876-0.584-0.438-0.769-0.578-0.574-0.497-0.367-0.229-0.668-0.52-0.965-0.816-1.531-1.313-2.846-2.634-4.158-3.946-0.656-0.657-1.313-1.313-1.75-1.97-1.162-1.273-0.789-0.772-0.473-0.373-0.102-0.125-0.228-0.278-0.412-0.503-1.086-1.751-2.188-3.283-3.063-5.041-0.219-0.438-0.438-0.657-0.438-0.876 0.875 0 1.75 0.219 2.625 0.438s1.76 0.218 2.416 0.438zm-1.978-4.815c-1.75-0.219-3.502-0.656-5.252-0.875-1.531-3.729-2.854-7.449-3.947-11.396l0.656 0.219c1.539 0.438 3.072 0.875 4.604 1.095 1.095 3.726 2.408 7.447 3.939 10.957zm-5.252-16.43c-0.219 0-0.438 0-0.875-0.219-1.314-0.22-2.854-0.657-4.385-1.095-0.877-2.853-1.533-5.917-2.408-8.981-0.219-1.102-0.438-2.196-0.656-3.29 1.75 0.219 3.721 0.219 5.697-0.219 0.656 4.604 1.533 9.2 2.627 13.804zm-13.147-55.427c0.038-0.133 0.067-0.257 0.102-0.386-0.081 0.572-0.221 1.576-0.102 0.386zm-0.218 4.166c0-1.102 0-2.195 0.219-3.509 0.072-0.611 0.112-0.963 0.134-1.162 0.349-1.316 0.572-2.49 0.96-3.661 0.445-1.313 0.883-2.626 1.32-3.939 0.171-0.512 0.345-1.024 0.619-1.536 0.127-0.34 0.256-0.721 0.256-0.871 1.533-2.853 3.064-5.698 4.816-8.324 0.219-0.438 1.75-2.415 0.438-0.438 0.438-0.664 0.875-1.32 1.313-1.758 0.664-0.656 1.102-1.094 1.76-1.751-1.76 8.105-2.416 16.212-2.854 24.317-0.438 12.053-0.219 24.754 1.32 37.244-1.977-0.656-4.166-1.094-6.354-1.539-1.752-6.566-3.072-13.359-3.729-19.057-0.437-4.596-0.437-9.2-0.218-14.016zm-1.096 83.902c0.656 1.095 1.314 2.188 1.971 3.064 1.32 2.188 2.852 4.166 4.604 5.917h-0.202c-0.289-0.119-1.987-0.438-1.987-0.438-1.094-0.438-1.977-0.876-3.729-1.532-1.313-0.664-2.406-1.54-3.721-2.196-0.656-0.438-1.313-0.876-1.75-1.313-1.977-1.532 1.75 1.313-0.227-0.219-1.922-1.537-3.663-3.253-5.248-5.132-0.059-0.101-0.246-0.394-0.441-0.785 2.188 0.664 4.377 1.32 6.572 1.759 1.533 0.218 2.845 0.437 4.158 0.875zm-2.844-5.26c-3.729-0.657-7.668-1.313-11.178-2.627-0.286-0.43-1.133-2.261-1.377-2.743-0.409-1.05-0.898-2.074-1.25-2.955-0.438-1.531-0.656-2.845-1.094-4.385 2.627 1.103 5.26 1.759 7.887 2.196 1.094 0.219 1.969 0.438 3.064 0.657 1.095 3.283 2.415 6.574 3.948 9.857zm-6.137-17.525c0.219 0.875 0.438 1.97 0.875 3.063h-0.438c-3.502-0.656-6.793-1.531-9.855-2.845l-0.219-0.219c-0.184-0.546-0.363-1.836-0.169-0.886-0.046-0.451-0.052-0.914-0.052-1.303-0.219-1.313-0.438-2.854-0.438-4.386v-8.762c0.219-3.064 0.438-5.917 0.658-8.981 0-0.18 0.293-1.822 0.279-1.331 0.064-0.452 0.158-0.934 0.158-1.514 0.219-1.54 0.438-2.853 0.875-4.385 0-0.657 0.219-1.095 0.219-1.532 0.438 1.97 0.875 4.158 1.313 6.136 1.98 8.984 4.168 17.964 6.794 26.945zm15.118 275.37c-3.51 3.721-7.012 7.449-10.514 11.17-2.854-1.313-6.354-1.751-9.418-2.188-4.822-0.656-9.646-0.876-14.461-1.32-9.645-0.657-19.939-1.751-27.826-7.661-1.531-1.32-3.721 1.532-2.188 2.846 7.666 6.136 16.867 8.543 26.504 9.856 5.041 0.656 10.303 1.095 15.336 1.751 2.408 0.219 5.26 0.875 7.887 1.102-2.627 2.846-5.479 5.472-8.543 7.88-0.438 0.438-0.875 0.664-1.531 1.102-0.877 0.656-1.971 1.313-3.072 1.97-2.189 1.532-4.158 3.283-5.473 5.472-0.438-0.212-0.656-0.438-0.875-0.876-4.166-3.721-8.98-6.565-13.584-9.638-3.721-2.407-7.449-5.033-10.951-7.667-4.385-3.283-6.137-4.597-10.295-7.887-14.896-12.046-28.92-24.974-42.943-37.676-8.543-7.668-16.867-15.335-25.41-23.003-7.667-6.793-15.116-13.585-22.128-21.034-1.313-1.532-2.845-3.064-4.158-4.814-0.656-0.876-1.313-1.532-1.97-2.416 2.188 2.635 0-0.219-0.438-0.656-1.095-1.532-2.196-3.283-3.072-4.814-0.438-0.657-0.875-1.532-1.313-2.416 0 0-0.219-0.219-0.219-0.656 7.448-3.721 12.49-11.389 17.962-17.524 1.97-1.97 3.729-4.377 5.479-6.573 0.876-1.095 1.751-2.407 2.627-3.502 0.308-0.462 1.481-1.893 1.387-1.712 0.78-1.013 1.563-1.952 2.341-2.892 1.971-2.408 4.158-4.815 6.348-6.785 0.664-0.438 1.102-0.883 1.539-1.32-2.635 2.196-0.438 0.227 0.219-0.219 0.656-0.22 1.094-0.657 1.533-0.876 0.656-0.219 1.313-0.438 1.969-0.875 0.875 1.751 1.752 3.509 2.846 5.26 2.414 3.721 5.041 7.449 7.668 10.951 5.479 7.887 11.615 15.116 17.961 22.565 11.834 13.804 24.756 27.162 38.34 39.652 13.365 12.483 27.389 24.317 42.061 35.486 5.041 3.947 10.301 7.23 15.992 10.514 1.313 0.883 2.852 1.759 4.166 2.634 0.546 0.272 2.283 1.567 2.823 1.972 0.372 0.309 0.745 0.626 1.116 0.874-1.316 1.309-2.41 2.622-3.722 3.943zm1.75-5.479c0.267 0.178 0.534 0.395 0.802 0.615-0.162-0.123-0.414-0.316-0.802-0.615zm0.218-27.162c-1.75-1.103-3.502-2.196-5.041-3.072-6.785-5.033-11.607-8.98-19.057-15.116-7.23-6.129-14.459-12.483-21.471-18.838-1.094-1.094-2.408-2.188-3.502-3.283 8.105 5.91 16.648 11.389 25.629 16.212 7.012 3.939 14.461 7.011 21.691 10.294 3.502 1.751 7.012 3.502 10.295 5.26 0.875 0.438 1.531 0.876 2.414 1.313-3.946 1.969-7.667 4.158-10.958 7.23zm40.311-20.597c-6.793 3.283-13.805 6.574-20.809 9.419-0.438 0.219-0.883 0.438-1.102 0.657-4.814-3.721-10.732-5.91-15.992-8.325-7.223-3.282-14.891-6.347-22.121-9.637-7.668-3.722-14.896-8.325-22.127-12.483-6.793-3.729-13.586-7.449-20.15-11.615-4.385-4.377-8.771-8.762-12.93-13.14 9.639 5.034 19.713 9.419 29.578 14.016 12.045 5.479 23.879 10.958 35.924 15.992 5.916 2.634 11.826 5.041 17.963 7.668 6.135 2.626 12.271 5.041 19.063 5.917 1.971 0.219 2.189-2.627 0.877-3.729-4.824-3.502-10.303-5.69-15.994-8.105-6.135-2.407-12.271-5.034-18.406-7.668-12.045-5.253-24.09-10.294-36.143-15.766-10.732-4.604-21.473-9.2-32.203-14.022-3.729-1.751-7.668-3.51-11.389-5.261-5.918-6.354-11.615-12.702-17.744-18.838-1.32-1.313-2.635-2.626-3.947-3.946 0-0.22 0.219-0.438 0.219-0.438 9.857 7.449 21.033 12.71 32.422 17.532 6.793 2.846 13.586 5.69 20.377 8.543 7.443 3.283 14.453 7.004 21.684 10.295 15.992 7.229 32.422 13.139 49.072 18.837 8.543 2.854 17.086 5.698 25.629 8.544 4.166 1.531 8.324 2.853 12.49 4.166 1.094 0.438 2.408 0.875 3.721 1.313-5.909 3.501-11.827 7.011-17.962 10.074zm25.191-14.46c-2.627-1.313-5.471-2.188-8.105-3.063-4.158-1.313-8.324-2.627-12.264-4.166-8.324-2.627-16.43-5.253-24.756-8.106-16.648-5.69-33.523-11.607-49.734-18.618-7.004-3.064-14.016-6.573-21.025-9.638-6.793-2.846-13.586-5.479-20.379-7.887-12.045-4.604-24.316-9.419-35.047-16.211 0.875-3.064 0.875-6.136 0.875-9.419 0.219-5.261 0.219-10.513 0.438-15.992 0.219-10.075 0.656-20.377 1.313-30.672 0.664-8.98 0.664-17.962 0.664-26.942 0.219-8.981 0.877-17.963 1.752-26.725 0.219-4.166 0.656-8.543 1.094-12.709 0-1.095 0.219-2.189 0.219-3.064 0.438-3.51-0.219 2.188 0.219-1.313 0.438-2.415 0.656-4.822 1.314-7.229 0.656-3.947 1.75-8.105 3.07-12.053 0.438-1.97 1.314-3.939 1.971-5.91 0.348-0.875 0.561-1.611 0.852-2.424-0.021 0.164 1.159-2.481 1.336-2.836 3.283-7.23 7.668-13.804 12.49-20.158 0.272-0.543 0.626-0.998 0.961-1.425 0.078-0.06 1.076-1.268 1.229-1.42 1.094-1.533 2.408-3.064 3.502-4.386 2.854-3.282 5.697-6.347 8.543-9.2 2.189-1.969 4.166-3.939 6.355-5.908 1.094-0.876 1.969-1.541 3.064-2.416 0.438-0.438 0.875-0.875 1.539-1.313 0.144 0 1.228-0.847 1.397-0.995 4.591-3.469 9.385-6.369 14.376-8.862 1.094-0.656 2.188-1.094 3.283-1.531 0.875-0.438 1.75-0.656 2.625-1.095 2.635-0.876 5.262-1.759 8.107-2.415-1.314 3.729-2.408 7.449-3.064 11.396-0.438 0.438-0.658 0.656-0.877 1.094-1.094-0.438-2.195-0.438-3.07-0.656-3.502-1.094-7.004-1.97-10.514-3.072-2.408-0.875-3.939 2.854-1.75 4.166 3.063 1.752 6.354 2.846 9.637 3.939 0.656 0 1.094 0.219 1.531 0.445-1.313 1.971-2.406 3.939-3.502 5.91-0.656 1.313-1.313 2.634-1.75 4.166-2.414-0.656-4.604-1.095-6.793-1.759-5.26-1.095-10.301-2.407-15.555-2.845-3.063-0.219-3.063 4.822 0 5.041 5.254 0.438 10.295 1.97 15.117 3.283 1.533 0.438 3.283 1.094 5.035 1.531-0.877 3.072-1.971 6.137-2.627 8.981-0.875 2.415-1.533 4.822-1.971 7.449-3.07-0.876-6.135-1.532-8.98-2.407-5.916-1.751-11.615-3.721-17.742-4.822-3.072-0.657-4.387 3.728-1.322 4.603 5.918 1.532 11.615 3.94 17.533 5.917 2.188 0.657 5.689 2.189 9.199 2.846-0.656 4.385-1.094 8.543-1.32 12.928-0.875-0.438-1.971-0.875-2.846-1.313-3.502-1.321-7.449-2.196-11.17-3.072-7.23-1.97-14.68-3.282-22.127-4.596-2.408-0.438-3.283 2.845-0.877 3.721 6.793 2.188 13.586 4.166 20.596 5.917 3.502 1.094 6.785 2.188 10.295 3.283 1.971 0.656 3.939 1.75 6.129 2.188 0 1.758 0.227 3.728 0.438 5.479 1.539 13.585 5.916 26.068 15.117 36.151 4.604 5.033 10.52 8.98 16.43 12.045 7.668 3.502 17.523 4.604 25.629 1.532 8.332 2.188 16.65 3.947 24.982 5.917 8.105 1.751 16.211 3.721 24.09 5.479 4.166 0.876 8.105 1.97 12.271 2.627 3.502 0.875 8.324 2.188 11.834 1.313 0.875-0.219 1.313-1.531 0.648-1.97-2.627-2.415-6.566-3.071-9.855-4.166-3.939-1.313-8.105-1.97-12.047-2.845-8.105-1.97-16.211-3.51-24.316-5.261-3.947-0.875-7.668-1.532-11.607-2.407 2.189 0.219 4.377-0.438 6.348-1.532 2.635-1.313 3.51-3.947 3.291-6.573 0.875 0.656 1.75 1.094 2.846 1.751 8.105 5.26 17.742 6.573 27.16 5.26 6.355 1.97 12.93 3.502 19.502 4.815 5.691 1.102 11.389 2.196 17.088 3.51 5.471 1.094 11.17 2.845 16.648 3.721 1.313 0 1.969-1.313 0.875-1.97-8.98-5.917-21.033-7.23-31.328-8.981-5.252-0.876-10.512-1.751-15.555-2.846 1.971-0.875 3.947-1.758 5.699-2.634 4.377-2.407 8.105-5.253 9.418-9.199 6.793 4.166 16.43 7.667 23.223 3.071 4.596 5.909 10.076 11.17 15.555 15.992 6.354 5.69 13.357 10.951 20.588 15.773-1.969-0.883-3.721-1.54-5.471-2.415-3.072-1.532-5.48 2.853-2.635 4.385 2.197 1.095 4.604 1.97 7.012 2.846 2.195 0.875 4.166 1.531 6.354 0.438 0.439-0.219 0.658-0.876 0.439-1.532 4.158 2.407 8.324 4.822 12.49 7.23 2.844 1.751 5.908 3.721 9.199 5.033-0.219 0.438-0.219 0.884-0.438 1.321-1.32 4.377-2.416 6.565-4.822 10.951-3.939 7.887-8.982 15.335-14.242 22.347-0.656 0.875-1.313 1.751-1.969 2.626-1.971 2.627 1.313-1.751-0.877 1.095-0.875 1.313-1.969 2.626-2.852 3.947-2.189 2.626 1.32-1.759-0.875 0.875-2.627 3.502-5.473 7.012-8.318 10.514-5.479 6.792-11.395 13.584-17.313 19.932-6.129 6.573-12.482 12.49-19.275 18.407-3.064 2.845-6.354 5.472-9.637 8.324-1.533 1.313-3.291 2.627-5.043 3.939 2.197-1.751-0.656 0.438-0.875 0.657-1.094 0.875-2.188 1.751-3.283 2.415-6.791 5.033-13.803 9.857-21.034 14.452zm81.495 43.819c-2.408-0.219-4.385-0.438-5.699-0.656-2.406-0.438-4.814-0.876-7.23-1.54-7.879-1.751-15.984-3.282-24.09-5.252-7.668-1.978-15.336-4.386-22.346-7.449-3.947-1.751-7.449-3.729-10.951-5.698-0.664-0.438-1.102-0.876-1.76-1.095 1.533-1.094 2.854-1.97 4.385-2.845 13.141 4.596 25.85 10.95 39.434 14.671 8.105 2.196 16.213 4.166 24.318 5.917 3.721 0.876 7.66 1.97 11.389 3.072 1.75 0.438 3.281 0.875 4.814 1.313-4.159-0.438-8.106-0.22-12.264-0.438zm47.976 47.539c-1.314 1.751-2.846 3.283-4.385 5.034-1.096-0.656-2.408-1.095-3.721-1.751-5.041-2.626-9.857-5.479-14.68-8.543-0.438-0.438-0.656-0.657-1.094-0.876 3.064 0.657 6.354 0.876 9.418 1.095 4.604 0.219 9.201 0.438 13.805 0.656 1.313 0.219 2.625 0.219 3.939 0.438-1.094 1.313-2.188 2.626-3.282 3.947zm105.81-104.72c-6.574 5.909-13.367 11.826-19.939 17.524-5.035 4.378-9.639 8.981-14.453 13.577-7.23 6.574-14.461 13.366-21.471 19.939l-0.439 0.438c-4.377-1.97-9.855-1.531-14.459-1.75-6.129-0.438-12.264-1.313-18.4-2.416-2.846-0.656-3.939 3.51-1.094 4.166 5.471 1.313 11.389 2.189 17.086 2.627 4.158 0.438 9.199 1.313 13.805 0.438-4.605 4.385-8.982 8.763-13.367 13.147-2.625-1.532-6.354-1.095-9.418-1.313-3.947-0.438-7.887-1.532-11.834-2.188-7.012-1.321-14.016-1.759-20.807 1.313-2.416 1.094-0.658 5.252 1.969 4.377 7.012-2.846 14.023-1.095 21.252 0.219 3.721 0.875 10.076 2.634 14.891 1.759-3.283 3.502-6.564 6.784-9.637 10.294-2.846-0.875-5.91-0.875-8.762-1.313-4.816-0.664-9.857-1.539-14.672-1.978-4.604-0.656-9.207-0.875-13.805-0.875-2.406 0.219-5.916 0.656-7.449 2.626-1.313 1.759 0.877 4.166 2.408 2.635 1.313-1.532 5.697-0.876 7.449-0.876 4.166 0.219 8.543 1.095 12.928 1.751 4.377 0.656 8.762 1.313 13.141 1.97 1.539 0.219 3.07 0.656 4.604 0.656-2.189 2.415-4.166 4.823-6.137 7.012-0.875 1.095-1.75 2.188-2.846 3.29-1.102-0.226-2.414-0.438-3.508-0.664-4.598-0.438-8.982-0.656-13.578-0.656-7.668-0.219-15.992-0.438-22.785-4.158l-0.656-0.657c-0.219-0.219-0.438-0.438-0.875-0.656 0.875-0.656 1.531-1.313 2.188-1.978 2.846-3.063 5.699-6.347 8.545-9.419 5.697-6.565 11.17-12.92 16.867-19.274 11.615-12.929 23.441-25.63 35.268-38.559 10.959-11.826 22.566-23.223 33.736-35.268 5.041-5.479 10.082-11.17 15.553-16.43 1.322-1.313 2.416-2.627 3.51-3.947 0.656-0.656 1.314-1.313 1.971-1.97 0.178 0.089 0.359 0.216 0.552 0.348-0.233 0 2.73 2.118 3.134 2.458 0.014 0.014 0.029 0.027 0.043 0.041 0.01 0.01 0.012 0.016-0.01 0.01 0.026 0.02 0.043 0.031 0.066 0.049 0.295 0.277 0.618 0.552 1.035 0.827 3.283 3.063 6.566 6.347 9.418 9.638 5.254 5.697 10.076 11.607 16.211 16.211-2.417 2.405-4.825 4.813-7.231 7.009z"
         id="path34"
         style="fill:#f2f2f2" />
      <path
         d="m2435.8 1047c2.188 2.634 4.814 6.136 7.449 9.645 4.814 5.91 9.637 11.607 15.109 16.868 3.289 3.063 9.426 4.597 13.146 1.751 11.17-8.543 21.908-17.743 32.641-26.725 2.408-1.977 5.041-4.166 7.449-6.135 0.656-0.438 1.094-0.876 1.752-1.314 0-0.219 2.852-2.195 0.875-0.883 1.539-1.094 2.852-1.969 4.166-3.064 2.844-1.969 5.479-3.939 8.324-5.697 0.438-0.438 1.094-0.875 1.75-1.094 4.158-0.876 8.764-3.94 11.615-5.91 5.473-3.51 12.922-7.668 15.109-14.241 1.979-6.792-3.939-12.271-10.074-12.053-0.439-1.095-1.096-1.97-2.189-2.845-7.668-6.574-12.928-16.431-22.566-20.815-6.791-3.063-13.803-2.845-20.369 1.103-2.635 1.531-5.041 3.721-7.23 5.908-0.664 0.657-1.539 1.533-2.414 2.197-0.314 0.314-0.518 0.518-0.77 0.769-0.072 0.025-0.23 0.115-0.545 0.325-11.17 7.449-23.879 12.045-34.172 20.807-4.379 3.729-8.324 7.668-12.271 11.834-3.502 3.502-7.66 6.129-10.076 10.514-2.627 1.751-4.158 5.041-3.064 7.887 1.532 4.157 3.72 7.666 6.355 11.168zm77.018-52.848c-0.13-0.098-0.125-0.106 0 0zm-1.223-0.82c-0.165-0.063-0.307-0.118-0.435-0.167 0.152 0.047 0.304 0.102 0.435 0.167zm-1.276-0.354c-0.088-0.01-0.077-0.011 0 0zm-59.191 41.32c5.041-2.853 9.207-7.011 13.803-10.739 0.875-0.656 1.76-1.532 2.854-2.408 0.219-0.219 3.064-2.626 1.531-1.313 2.189-1.751 4.598-3.064 7.012-4.604 5.691-3.283 11.607-5.91 17.305-8.981 5.254-2.845 9.639-5.909 13.797-10.075 0.875-0.875 1.758-1.532 2.635-2.189 0.186-0.187 0.323-0.323 0.428-0.431 0.189-0.142 0.377-0.276 0.565-0.384 0.437 0.195 0.958 0.438 1.194 0.596 0.277 0.278 0.555 0.464 0.833 0.621 0.077 0.073 0.163 0.155 0.263 0.255 1.969 1.751 3.727 3.502 5.479 5.479 1.969 2.188 3.721 4.377 5.689 6.347-3.063 0.657-5.908 2.853-8.543 4.604-2.846 1.75-5.689 3.721-8.316 5.697-6.137 4.596-12.053 9.419-17.969 14.234-7.986 6.683-15.609 13.611-23.322 20.331-2.979-2.996-5.856-6.108-8.664-9.154-2.406-2.634-4.814-5.261-7.223-7.448 0.211-0.218 0.438-0.218 0.649-0.438z"
         id="path36"
         style="fill:#f2f2f2" />
      <path
         d="m2578.3 1210.2c0.021 0.134 0.044 0.283 0.067 0.436 0-0.152-0.028-0.296-0.067-0.436z"
         id="path38" />
      <path
         d="m2338.3 1028.6c0.219 0 0.657-0.219 0 0z"
         id="path40" />
      <path
         d="m2275.4 997.88c-0.029 0.014-0.06 0.029-0.089 0.044 0.01-1e-3 0.016-2e-3 0.024-3e-3 0.034-0.017 0.063-0.03 0.102-0.048-0.012 2e-3 -0.026 5e-3 -0.037 7e-3z"
         id="path42" />
      <path
         d="m2400.5 1286.7c-2.627-0.875-5.473-0.664-8.324-0.875-3.064-0.445-5.91-1.103-8.762-2.196-2.627-0.876-4.598 3.729-1.971 5.041 2.846 1.313 5.697 2.188 8.98 2.627 3.291 0.656 6.793 1.313 10.076 0.656 2.855-0.656 2.197-4.377 1e-3 -5.253z"
         id="path44"
         style="fill:#ffffff" />
      <path
         d="m2070.4 1323.2c0.875-0.438 0.875-1.751 0.438-2.188-2.406-2.408-6.354-2.196-9.418-2.854-3.729-0.656-7.449-1.313-11.17-2.407-2.415-0.875-3.29 2.853-1.102 3.729 3.729 1.313 7.23 2.407 11.176 3.064 3.065 0.656 7.012 1.97 10.076 0.656z"
         id="path46"
         style="fill:#ffffff" />
      <path
         d="m2276.9 997.7c-0.443 5e-3 -0.789 0.037-1.118 0.176 0.321-0.04 0.773-0.097 1.396-0.175-0.097-1e-3 -0.185 0-0.278-1e-3z"
         id="path48" />
      <path
         d="m2091.4 1338.6c2.846 1.094 6.129 3.939 8.982 3.939 0.875 0 1.969-0.876 1.75-1.751-0.438-3.502-4.385-5.472-7.23-6.793-3.947-1.75-8.105-2.845-12.264-3.721-8.332-1.97-16.875-2.845-25.418-2.845-2.846-0.219-2.627 3.939 0 4.158 7.449 0.657 14.898 1.751 22.346 3.291 3.947 0.877 8.105 1.971 11.834 3.722z"
         id="path50"
         style="fill:#ffffff" />
      <path
         d="m2324.1 1041.5h8.107c2.406 0.219 4.822 0.438 6.791-0.657 0.875-0.664 0.875-1.977 0-2.414-1.969-1.314-4.385-0.876-6.791-0.876h-8.107c-2.625-1e-3 -2.625 3.947 0 3.947z"
         id="path52"
         style="fill:#ffffff" />
      <path
         d="m2118.4 1358.9c4.596 1.102 11.17 3.072 15.555 0.876 0.875-0.438 1.314-2.189 0.438-2.846-3.729-2.845-9.855-2.626-14.459-3.502-5.699-1.094-11.17-2.415-16.869-3.947-10.949-2.407-21.471-5.253-32.641-6.354-2.189-0.211-2.627 3.51-0.438 3.947 10.951 1.97 21.908 5.261 32.641 8.105 5.261 1.533 10.513 2.846 15.773 3.721z"
         id="path54"
         style="fill:#ffffff" />
      <path
         d="m2146.6 1380c6.137 1.094 14.461 3.947 20.598 1.97 1.094-0.219 1.094-1.532 0.219-2.188-2.635-1.97-6.355-2.846-9.42-3.502-3.729-0.884-7.449-1.321-10.957-2.196-7.223-1.532-14.453-2.846-21.684-4.378-14.461-2.634-28.701-5.041-43.154-6.792-1.758-0.219-2.195 2.846-0.438 3.283 14.453 2.634 28.912 6.136 43.154 9.199 7.231 1.539 14.459 3.071 21.682 4.604z"
         id="path56"
         style="fill:#ffffff" />
      <path
         d="m2168.1 1394.2c-6.574-1.313-13.365-1.978-19.939-2.853-14.891-1.97-28.914-8.106-44.029-9.419-1.533-0.219-1.971 2.634-0.219 2.853 14.24 1.97 27.387 9.2 41.621 11.607 6.355 1.095 12.709 1.751 19.064 2.846 6.129 1.094 12.264 3.509 18.4 3.728 1.531 0 2.188-1.751 1.094-2.634-3.948-4.158-10.514-5.253-15.992-6.128z"
         id="path58"
         style="fill:#ffffff" />
      <path
         d="m2226.2 1095.2c2.844 0.657 6.135 1.313 8.98 0.438 1.969-0.656 1.969-3.721 0-4.377-2.408-0.875-5.041-0.438-7.449-0.875-3.283-0.877-4.595 4.157-1.531 4.814z"
         id="path60"
         style="fill:#ffffff" />
      <path
         d="m2190.2 1050.5c-0.096 0.145-0.178 0.288-0.256 0.433-0.24 0.65-0.467 1.148 0.256-0.433z"
         id="path62" />
      <path
         d="m2275.7 1088.8c-2.627 0-2.627 4.166 0 4.166 3.502 0 7.012 0.438 10.514 0 1.094 0 1.758-0.438 1.977-1.532 0.219-0.438 0.219-0.656 0-1.094-0.219-1.102-0.883-1.54-1.977-1.54-3.502-0.437-7.012 0-10.514 0z"
         id="path64"
         style="fill:#ffffff" />
      <path
         d="m2167 1125.9c-0.074-0.409-0.129-0.691-0.169-0.886 0.031 0.311 0.079 0.618 0.169 0.886z"
         id="path66" />
      <path
         d="m2213.5 1149.9c0.175 0.109 0.359 0.208 0.574 0.278-0.291-0.146-0.476-0.237-0.574-0.278z"
         id="path68" />
      <path
         d="m2271.9 1079.2h6.574c1.75 0 5.033-0.219 5.033-2.627 0-2.406-2.627-2.625-4.385-2.845-2.408 0-4.814 0.22-7.223 0.22-3.29 0-3.29 5.252 0 5.252z"
         id="path70"
         style="fill:#ffffff" />
      <path
         d="m2167.3 1100.2c-0.033 0.229-0.061 0.454-0.061 0.675 0.04-0.357 0.057-0.567 0.061-0.675z"
         id="path72" />
      <path
         d="m2266.7 1103.7c4.604 2.634 9.418 3.946 14.68 4.822 5.26 0.656 11.389 1.313 16.43 0.219 0.875 0 1.531-0.875 1.75-1.532v-1.32c-0.219-0.657-0.875-1.532-1.75-1.532-4.385-0.876-9.201-0.438-13.586-0.438-5.479 0-10.73-1.095-15.555-3.283-2.188-1.096-4.159 1.969-1.969 3.064z"
         id="path74"
         style="fill:#ffffff" />
      <path
         d="m2048.6 1280.3c-0.316 0.411-0.634 0.832-0.949 1.274 0.651-0.842 0.909-1.198 0.949-1.274z"
         id="path76" />
      <path
         d="m2218.3 1252.9c8.105 1.313 15.773 4.158 23.441 7.004 7.887 2.853 15.773 5.479 23.879 8.105 8.762 2.853 17.523 5.917 26.285 8.543 4.385 1.313 8.982 2.415 13.586 3.291 4.377 0.875 9.637 1.97 14.021 0.875 1.971-0.438 2.189-2.853 0.65-3.947-3.941-1.97-8.756-2.626-12.922-3.721-4.377-1.094-8.98-2.188-13.365-3.501-8.98-2.416-17.525-5.479-26.506-8.106-7.887-2.634-15.992-5.041-23.879-7.667-7.887-2.635-16.211-4.823-24.754-4.386-1.97 0-2.626 3.283-0.436 3.51z"
         id="path78"
         style="fill:#ffffff" />
      <path
         d="m2100 1147.8c2.406 1.094 4.814 2.188 7.221 3.063 3.51 1.532 7.23 3.283 10.959 3.502 2.189 0 2.846-3.063 1.094-4.158-3.063-1.532-6.791-2.407-9.855-3.502-2.635-0.883-5.041-1.978-7.887-2.634-1.972-0.437-3.511 2.634-1.532 3.729z"
         id="path80"
         style="fill:#ffffff" />
      <path
         d="m2170.5 1262.3c20.596 10.294 42.496 17.087 64.406 24.098 10.951 3.502 22.127 5.909 33.297 8.543 5.48 1.313 10.514 3.064 15.555 5.034 4.822 1.532 10.295 3.291 15.117 1.751 2.408-0.875 2.408-3.939 0-4.596-4.604-1.751-9.637-2.408-14.242-3.947-4.814-1.97-9.637-3.502-14.678-4.597-11.17-2.845-22.34-5.041-33.299-8.324-21.682-6.573-43.811-12.271-65.063-20.377-1.533-0.656-2.408 1.751-1.093 2.415z"
         id="path82"
         style="fill:#ffffff" />
      <path
         d="m2106.5 1167c1.094-3.283-5.916-4.159-8.105-4.604-2.414-0.656-3.291 2.854-1.102 3.51 1.977 0.656 3.729 1.095 5.479 1.751 1.095 0.437 3.283 1.094 3.728-0.657z"
         id="path84"
         style="fill:#ffffff" />
      <path
         d="m2101.9 1126.3c4.377 3.502 8.98 5.698 14.242 7.449 5.471 1.751 11.607 3.939 17.523 3.502 1.094-0.22 1.533-1.532 0.438-2.189-4.166-3.282-9.637-3.721-14.678-5.041-5.48-1.532-10.732-3.283-15.773-5.909-1.314-0.658-3.064 1.312-1.752 2.188z"
         id="path86"
         style="fill:#ffffff" />
      <path
         d="m2408 1269.3c-2.408 0-4.158 0-6.355-1.532-2.627-1.97-5.252 2.415-2.627 4.385 2.854 2.188 6.793 3.283 10.076 1.095 1.539-1.314 1.094-3.722-1.094-3.948z"
         id="path88"
         style="fill:#ffffff" />
      <path
         d="m2411.1 1255.8c1.533-0.22 3.721-0.22 4.816-1.313 0.656-0.656 0.656-1.978 0-2.634-1.096-1.313-3.283-1.095-4.816-1.313-1.758-0.219-3.508 0.656-3.508 2.626 0 1.976 1.75 2.852 3.508 2.634z"
         id="path90"
         style="fill:#ffffff" />
      <path
         d="m2270.2 1313.4c-7.004-1.095-14.016-2.407-20.809-4.822-6.791-2.408-13.584-5.472-20.377-8.106-15.555-5.69-31.102-11.388-46.875-16.867-13.584-4.815-27.168-9.2-40.746-13.804-13.584-4.597-26.725-9.856-39.215-16.86-0.875-0.664-1.969 0.656-1.094 1.532 10.293 9.2 22.777 15.117 35.705 20.15 14.021 5.479 28.264 10.075 42.498 15.336 15.773 5.917 31.984 11.389 47.758 17.524 7.23 2.626 14.24 5.917 21.471 8.543 7.012 2.408 14.453 4.385 21.684 1.97 1.976-0.657 2.414-4.159 0-4.596z"
         id="path92"
         style="fill:#ffffff" />
      <path
         d="m2259.5 1239.1c6.793 0.657 13.805 4.158 20.158 6.573 6.785 2.846 13.359 5.472 20.588 6.785 6.355 1.321 12.93 1.978 19.494 3.291 3.072 0.438 6.137 1.094 9.209 1.97 3.063 0.875 5.689 2.188 8.762 1.97 1.75 0 3.064-1.751 1.969-3.502-2.844-5.042-10.73-6.136-16.211-7.23-6.791-1.313-13.584-1.97-20.377-3.283-7.441-1.32-14.453-3.946-21.682-6.573-7.23-2.634-14.242-4.385-21.91-4.822-3.064-1e-3 -3.064 4.603 0 4.821z"
         id="path94"
         style="fill:#ffffff" />
      <path
         d="m2292.1 1222.7c8.982 2.188 17.963 5.034 26.943 7.887 4.385 1.313 8.762 2.845 13.367 4.377 3.939 1.313 7.666 2.634 12.045 1.759 0.883-0.227 1.102-1.321 0.438-1.978-2.846-3.502-6.785-4.596-10.951-5.69-4.377-1.54-8.98-2.853-13.359-4.166-8.988-2.626-18.188-4.604-27.387-6.354-2.627-0.659-3.94 3.289-1.096 4.165z"
         id="path96"
         style="fill:#ffffff" />
      <path
         d="m2317.3 1208.7c6.572 1.532 12.709 4.166 19.283 6.354 3.281 1.095 6.564 1.97 9.855 2.845 2.627 0.657 6.129 1.751 8.543 0 0.875-0.656 1.314-1.75 0.656-2.626-1.75-2.407-4.604-2.845-7.447-3.29-3.502-0.876-6.793-1.751-10.076-2.627-6.574-1.532-13.146-3.283-19.939-4.377-2.408-0.657-3.502 3.064-0.875 3.721z"
         id="path98"
         style="fill:#ffffff" />
      <path
         d="m2353.7 1016.3c0-0.496-0.027-0.895-0.178-1.396 0.023 0.287 0.076 0.783 0.178 1.596v-0.2z"
         id="path100" />
      <path
         d="m2359.6 1086.4c4.605-0.438 14.242 0.438 16.432-4.597 0.219-0.438-0.219-1.102-0.658-1.54-2.188-1.094-4.377-0.219-6.783 0.22-3.072 0.438-6.355 0.883-9.428 1.32-2.625 0.439-1.969 4.816 0.437 4.597z"
         id="path102"
         style="fill:#ffffff" />
      <path
         d="m2373.4 1072.4c2.627 0 6.355 0.22 7.887-2.188 0.438-0.657 0-1.533-0.656-1.752-2.189-0.875-4.822-0.438-7.23-0.438-2.847 0-2.847 4.598-1e-3 4.378z"
         id="path104"
         style="fill:#ffffff" />
      <path
         d="m2339 1033c0.656 0 1.314-0.445 1.971-0.883 0.875-0.656 1.75-1.531 1.313-2.846-0.438-1.094-1.75-1.531-2.846-0.875-0.219 0-0.656 0.219-0.219 0 0 0-0.219 0-0.438 0.219h-0.438c-1.094-0.219-2.189 1.095-2.189 2.189 0 0.656 0.213 1.094 0.658 1.539 0.656 0.657 1.313 0.875 2.188 0.657z"
         id="path106"
         style="fill:#ffffff" />
      <path
         d="m2335.9 1095.2c4.822 1.97 9.645 3.291 14.678 3.947 3.729 0.438 10.74 2.188 13.367-1.32 0.219-0.438 0.219-0.876 0-1.313-2.189-3.064-8.107-2.407-11.396-2.627-5.254-0.438-10.514-1.75-15.328-3.501-3.291-1.322-4.385 3.72-1.321 4.814z"
         id="path108"
         style="fill:#ffffff" />
    </g>
  </g>
</svg>
